G04 #@! TF.GenerationSoftware,KiCad,Pcbnew,(5.0.0)*
G04 #@! TF.CreationDate,2018-10-03T16:43:44-04:00*
G04 #@! TF.ProjectId,gb_walkie,67625F77616C6B69652E6B696361645F,0.1a*
G04 #@! TF.SameCoordinates,Original*
G04 #@! TF.FileFunction,Copper,L2,Bot,Signal*
G04 #@! TF.FilePolarity,Positive*
%FSLAX46Y46*%
G04 Gerber Fmt 4.6, Leading zero omitted, Abs format (unit mm)*
G04 Created by KiCad (PCBNEW (5.0.0)) date 10/03/18 16:43:44*
%MOMM*%
%LPD*%
G01*
G04 APERTURE LIST*
G04 #@! TA.AperFunction,ComponentPad*
%ADD10R,2.000000X2.000000*%
G04 #@! TD*
G04 #@! TA.AperFunction,ComponentPad*
%ADD11C,2.000000*%
G04 #@! TD*
G04 #@! TA.AperFunction,ComponentPad*
%ADD12R,1.800000X1.800000*%
G04 #@! TD*
G04 #@! TA.AperFunction,ComponentPad*
%ADD13C,1.800000*%
G04 #@! TD*
G04 #@! TA.AperFunction,ComponentPad*
%ADD14R,0.840000X0.840000*%
G04 #@! TD*
G04 #@! TA.AperFunction,ComponentPad*
%ADD15C,0.840000*%
G04 #@! TD*
G04 #@! TA.AperFunction,ComponentPad*
%ADD16O,0.850000X1.850000*%
G04 #@! TD*
G04 #@! TA.AperFunction,ComponentPad*
%ADD17R,2.300000X2.300000*%
G04 #@! TD*
G04 #@! TA.AperFunction,ComponentPad*
%ADD18C,2.300000*%
G04 #@! TD*
G04 #@! TA.AperFunction,ComponentPad*
%ADD19R,3.200000X2.000000*%
G04 #@! TD*
G04 #@! TA.AperFunction,ComponentPad*
%ADD20R,2.500000X1.500000*%
G04 #@! TD*
G04 #@! TA.AperFunction,ComponentPad*
%ADD21O,2.500000X1.500000*%
G04 #@! TD*
G04 #@! TA.AperFunction,ComponentPad*
%ADD22O,3.500000X2.200000*%
G04 #@! TD*
G04 #@! TA.AperFunction,SMDPad,CuDef*
%ADD23R,0.900000X1.700000*%
G04 #@! TD*
G04 #@! TA.AperFunction,ViaPad*
%ADD24C,0.890000*%
G04 #@! TD*
G04 #@! TA.AperFunction,ViaPad*
%ADD25C,0.600000*%
G04 #@! TD*
G04 #@! TA.AperFunction,Conductor*
%ADD26C,1.000000*%
G04 #@! TD*
G04 #@! TA.AperFunction,Conductor*
%ADD27C,0.600000*%
G04 #@! TD*
G04 #@! TA.AperFunction,Conductor*
%ADD28C,0.800000*%
G04 #@! TD*
G04 #@! TA.AperFunction,Conductor*
%ADD29C,0.400000*%
G04 #@! TD*
G04 #@! TA.AperFunction,Conductor*
%ADD30C,0.200000*%
G04 #@! TD*
G04 #@! TA.AperFunction,Conductor*
%ADD31C,0.254000*%
G04 #@! TD*
G04 APERTURE END LIST*
D10*
G04 #@! TO.P,BT1,1*
G04 #@! TO.N,Net-(BT1-Pad1)*
X156500000Y-59080000D03*
D11*
G04 #@! TO.P,BT1,2*
G04 #@! TO.N,GND*
X156500000Y-71780000D03*
G04 #@! TD*
G04 #@! TO.P,SW2,1*
G04 #@! TO.N,PUSH2*
X136240000Y-47740000D03*
G04 #@! TO.P,SW2,2*
G04 #@! TO.N,GND*
X136240000Y-43240000D03*
G04 #@! TO.P,SW2,1*
G04 #@! TO.N,PUSH2*
X142740000Y-47740000D03*
G04 #@! TO.P,SW2,2*
G04 #@! TO.N,GND*
X142740000Y-43240000D03*
G04 #@! TD*
G04 #@! TO.P,SW3,1*
G04 #@! TO.N,PUSH3*
X136240000Y-40440000D03*
G04 #@! TO.P,SW3,2*
G04 #@! TO.N,GND*
X136240000Y-35940000D03*
G04 #@! TO.P,SW3,1*
G04 #@! TO.N,PUSH3*
X142740000Y-40440000D03*
G04 #@! TO.P,SW3,2*
G04 #@! TO.N,GND*
X142740000Y-35940000D03*
G04 #@! TD*
D12*
G04 #@! TO.P,D1,1*
G04 #@! TO.N,Net-(D1-Pad1)*
X115845000Y-38450000D03*
D13*
G04 #@! TO.P,D1,2*
G04 #@! TO.N,LED2*
X113305000Y-38450000D03*
G04 #@! TD*
G04 #@! TO.P,D2,2*
G04 #@! TO.N,LED3*
X121230000Y-38450000D03*
D12*
G04 #@! TO.P,D2,1*
G04 #@! TO.N,Net-(D2-Pad1)*
X123770000Y-38450000D03*
G04 #@! TD*
G04 #@! TO.P,D3,1*
G04 #@! TO.N,Net-(D3-Pad1)*
X107770000Y-38450000D03*
D13*
G04 #@! TO.P,D3,2*
G04 #@! TO.N,3DFIX*
X105230000Y-38450000D03*
G04 #@! TD*
D14*
G04 #@! TO.P,J1,1*
G04 #@! TO.N,Net-(J1-Pad1)*
X130330000Y-48778000D03*
D15*
G04 #@! TO.P,J1,2*
G04 #@! TO.N,Net-(J1-Pad2)*
X129680000Y-49778000D03*
G04 #@! TO.P,J1,3*
G04 #@! TO.N,Net-(J1-Pad3)*
X129030000Y-48778000D03*
G04 #@! TO.P,J1,4*
G04 #@! TO.N,Net-(J1-Pad4)*
X128380000Y-49778000D03*
G04 #@! TO.P,J1,5*
G04 #@! TO.N,GND*
X127730000Y-48778000D03*
D16*
G04 #@! TO.P,J1,0*
G04 #@! TO.N,N/C*
X132605000Y-48998000D03*
X125455000Y-48998000D03*
G04 #@! TD*
D17*
G04 #@! TO.P,LS1,1*
G04 #@! TO.N,Net-(L5-Pad1)*
X128300000Y-36640000D03*
D18*
G04 #@! TO.P,LS1,2*
G04 #@! TO.N,Net-(L4-Pad1)*
X131800000Y-36640000D03*
G04 #@! TD*
D11*
G04 #@! TO.P,SW1,S1*
G04 #@! TO.N,PUSH1*
X162080000Y-43970000D03*
G04 #@! TO.P,SW1,S2*
G04 #@! TO.N,GND*
X162080000Y-38970000D03*
D19*
G04 #@! TO.P,SW1,MP*
G04 #@! TO.N,N/C*
X155080000Y-47070000D03*
X155080000Y-35870000D03*
D11*
G04 #@! TO.P,SW1,B*
G04 #@! TO.N,ENC2*
X147580000Y-43970000D03*
G04 #@! TO.P,SW1,C*
G04 #@! TO.N,GND*
X147580000Y-41470000D03*
D10*
G04 #@! TO.P,SW1,A*
G04 #@! TO.N,ENC1*
X147580000Y-38970000D03*
G04 #@! TD*
D20*
G04 #@! TO.P,SW5,1*
G04 #@! TO.N,Net-(BT1-Pad1)*
X161510000Y-69620000D03*
D21*
G04 #@! TO.P,SW5,2*
G04 #@! TO.N,+BATT*
X161510000Y-71620000D03*
G04 #@! TO.P,SW5,3*
G04 #@! TO.N,Net-(SW5-Pad3)*
X161510000Y-73620000D03*
D22*
G04 #@! TO.P,SW5,*
G04 #@! TO.N,*
X161510000Y-67520000D03*
X161510000Y-75720000D03*
G04 #@! TD*
D23*
G04 #@! TO.P,RESET1,1*
G04 #@! TO.N,GND*
X119490000Y-45280000D03*
G04 #@! TO.P,RESET1,2*
G04 #@! TO.N,RESET*
X122890000Y-45280000D03*
G04 #@! TD*
D24*
G04 #@! TO.N,+BATT*
X136745000Y-66475000D03*
D25*
G04 #@! TO.N,GND*
X158540000Y-66030000D03*
X158520000Y-63660000D03*
X155600000Y-65230000D03*
X141490000Y-75950000D03*
X141550000Y-77070000D03*
X141660000Y-73520000D03*
X110600000Y-96390000D03*
X121110000Y-96440000D03*
X119560000Y-80340000D03*
X123740000Y-81210000D03*
X161490000Y-56350000D03*
X140245000Y-74175000D03*
X140545000Y-75925000D03*
X140620000Y-71125000D03*
X136245000Y-72925000D03*
D24*
X104470000Y-77850000D03*
X105120000Y-72750000D03*
X121545000Y-62325000D03*
X126270000Y-62325000D03*
D25*
X148420000Y-68900000D03*
X154695000Y-69200000D03*
X154695000Y-68475000D03*
X136795000Y-82175000D03*
X138445000Y-78325000D03*
X143895000Y-79125000D03*
X143920000Y-80100000D03*
X136445000Y-78400000D03*
X131070000Y-77425000D03*
X152670000Y-78925000D03*
X152595000Y-80175000D03*
X159195000Y-89400000D03*
X150220000Y-78300000D03*
X157495000Y-81850000D03*
X146895000Y-92500000D03*
X139020000Y-88800000D03*
X103770000Y-36820000D03*
X110030000Y-36160000D03*
X117570000Y-35880000D03*
D24*
G04 #@! TO.N,GNDA*
X116330000Y-54500000D03*
X149270000Y-85150000D03*
X153530000Y-76820000D03*
X143460000Y-62780000D03*
X149850000Y-61130000D03*
D25*
X153530000Y-72475000D03*
D24*
X152399990Y-57630000D03*
D25*
X153530000Y-78200000D03*
D24*
G04 #@! TO.N,+3V3*
X119720000Y-69940000D03*
X143270000Y-84710000D03*
X126520000Y-87210000D03*
D25*
X148270000Y-81360000D03*
X147780000Y-72660000D03*
X146808000Y-75698000D03*
X149010000Y-92080000D03*
X148495000Y-55550000D03*
X158600000Y-82330000D03*
X152495000Y-61825000D03*
D24*
G04 #@! TO.N,VDDA*
X147580000Y-84750000D03*
X149300000Y-76860000D03*
X149720000Y-74640000D03*
X152635000Y-68050000D03*
D25*
G04 #@! TO.N,3DFIX*
X107195000Y-60400000D03*
G04 #@! TO.N,SDCS*
X141070000Y-94970000D03*
X151270000Y-95680000D03*
G04 #@! TO.N,RESET*
X112970000Y-70190000D03*
X118058000Y-65102000D03*
X133895000Y-66300000D03*
X102230000Y-79360000D03*
X122910000Y-50060000D03*
G04 #@! TO.N,MP3RX*
X137270000Y-77730000D03*
X145370000Y-78070000D03*
G04 #@! TO.N,LED2*
X107320000Y-62810000D03*
G04 #@! TO.N,LED3*
X106930000Y-64110000D03*
G04 #@! TO.N,MP3CS*
X126830000Y-91600000D03*
X128740000Y-90480000D03*
G04 #@! TO.N,PUSH1*
X110550000Y-60600000D03*
G04 #@! TO.N,ENC2*
X112580000Y-60270000D03*
G04 #@! TO.N,ENC1*
X114320000Y-59675000D03*
G04 #@! TO.N,PUSH2*
X107770002Y-54990000D03*
G04 #@! TO.N,PUSH3*
X106900000Y-54910000D03*
X140620000Y-46470000D03*
G04 #@! TO.N,RXI*
X104070000Y-81350000D03*
X107495000Y-84875000D03*
G04 #@! TO.N,XDCS*
X104400000Y-67380000D03*
X132490000Y-72640000D03*
G04 #@! TO.N,DREQ*
X110945000Y-71850000D03*
X143870000Y-69200000D03*
G04 #@! TO.N,+1V8*
X148860000Y-72830000D03*
X146810000Y-77360000D03*
X151470000Y-70425000D03*
G04 #@! TD*
D26*
G04 #@! TO.N,+BATT*
X148085072Y-54474990D02*
X136745000Y-65815062D01*
X154445009Y-56690071D02*
X152229928Y-54474990D01*
X154445010Y-60020012D02*
X154445009Y-56690071D01*
X152229928Y-54474990D02*
X148085072Y-54474990D01*
X160339998Y-71620000D02*
X159205011Y-70485013D01*
X161510000Y-71620000D02*
X160339998Y-71620000D01*
X159205011Y-70485013D02*
X159205011Y-68341011D01*
X159205011Y-68341011D02*
X156550001Y-65686001D01*
X156550001Y-65686001D02*
X156550001Y-62125003D01*
X156550001Y-62125003D02*
X154445010Y-60020012D01*
X136745000Y-65815062D02*
X136745000Y-66475000D01*
D27*
G04 #@! TO.N,GNDA*
X153530000Y-80890000D02*
X149270000Y-85150000D01*
X143460000Y-62780000D02*
X148570000Y-62780000D01*
X148570000Y-62780000D02*
X148570000Y-62410000D01*
X148570000Y-62410000D02*
X149850000Y-61130000D01*
X153530000Y-65240000D02*
X153530000Y-70780000D01*
X148570000Y-62780000D02*
X151070000Y-62780000D01*
X151070000Y-62780000D02*
X153530000Y-65240000D01*
X153530000Y-70780000D02*
X153530000Y-72475000D01*
X153530000Y-72475000D02*
X153530000Y-76820000D01*
X152399990Y-58580010D02*
X152399990Y-58259325D01*
X152399990Y-58259325D02*
X152399990Y-57630000D01*
X149850000Y-61130000D02*
X152399990Y-58580010D01*
X143015001Y-63224999D02*
X143460000Y-62780000D01*
X116330000Y-54500000D02*
X123305002Y-54500000D01*
X136430002Y-67625000D02*
X138615000Y-67625000D01*
X138615000Y-67625000D02*
X143015001Y-63224999D01*
X123305002Y-54500000D02*
X136430002Y-67625000D01*
X153530000Y-76820000D02*
X153530000Y-78200000D01*
X153530000Y-78200000D02*
X153530000Y-80890000D01*
D28*
G04 #@! TO.N,+3V3*
X119275001Y-70384999D02*
X115455001Y-70384999D01*
X119720000Y-69940000D02*
X119275001Y-70384999D01*
X115455001Y-70384999D02*
X112480000Y-73360000D01*
X112480000Y-73360000D02*
X112480000Y-82020000D01*
X112480000Y-82020000D02*
X117670000Y-87210000D01*
X140770000Y-87210000D02*
X143270000Y-84710000D01*
X143899325Y-84710000D02*
X145479325Y-86290000D01*
X143270000Y-84710000D02*
X143899325Y-84710000D01*
X155440000Y-86290000D02*
X158600000Y-83130000D01*
X117670000Y-87210000D02*
X126520000Y-87210000D01*
X126520000Y-87210000D02*
X140770000Y-87210000D01*
D29*
X144920000Y-84710000D02*
X148270000Y-81360000D01*
X143270000Y-84710000D02*
X144920000Y-84710000D01*
D30*
X147780000Y-72660000D02*
X146808000Y-73632000D01*
X146808000Y-73632000D02*
X146808000Y-75698000D01*
X148930000Y-92000000D02*
X149010000Y-92080000D01*
X148930000Y-86290000D02*
X148930000Y-92000000D01*
D28*
X145479325Y-86290000D02*
X148930000Y-86290000D01*
X148930000Y-86290000D02*
X155440000Y-86290000D01*
X148520000Y-55525000D02*
X148495000Y-55550000D01*
X151795000Y-55525000D02*
X148520000Y-55525000D01*
X153395000Y-59325000D02*
X153395000Y-57125000D01*
X158155001Y-78675001D02*
X158155001Y-69885001D01*
X152495000Y-60225000D02*
X153395000Y-59325000D01*
X158600000Y-79120000D02*
X158155001Y-78675001D01*
X158155001Y-69885001D02*
X154495000Y-66225000D01*
X154495000Y-66225000D02*
X154495000Y-63825000D01*
X154495000Y-63825000D02*
X152495000Y-61825000D01*
X153395000Y-57125000D02*
X151795000Y-55525000D01*
X152495000Y-61825000D02*
X152495000Y-60225000D01*
X158600000Y-83130000D02*
X158600000Y-82330000D01*
X158600000Y-82330000D02*
X158600000Y-79120000D01*
D27*
G04 #@! TO.N,VDDA*
X147580000Y-84750000D02*
X149300000Y-83030000D01*
X149300000Y-83030000D02*
X149300000Y-76860000D01*
X149300000Y-76860000D02*
X149300000Y-75060000D01*
X149300000Y-75060000D02*
X149720000Y-74640000D01*
X149720000Y-74010675D02*
X150270000Y-73460675D01*
X149720000Y-74640000D02*
X149720000Y-74010675D01*
X150270000Y-73460675D02*
X152635000Y-71095675D01*
X152635000Y-71095675D02*
X152635000Y-68050000D01*
D30*
G04 #@! TO.N,3DFIX*
X105230000Y-45255030D02*
X105230000Y-39722792D01*
X105230000Y-39722792D02*
X105230000Y-38450000D01*
X107195000Y-60400000D02*
X105219968Y-58424968D01*
X105219968Y-58424968D02*
X105219968Y-45265062D01*
X105219968Y-45265062D02*
X105230000Y-45255030D01*
G04 #@! TO.N,SDCS*
X141070000Y-94970000D02*
X141810000Y-95710000D01*
X141810000Y-95710000D02*
X151240000Y-95710000D01*
X151240000Y-95710000D02*
X151270000Y-95680000D01*
G04 #@! TO.N,RESET*
X133470736Y-66300000D02*
X133895000Y-66300000D01*
X118058000Y-65102000D02*
X119256000Y-66300000D01*
X119256000Y-66300000D02*
X133470736Y-66300000D01*
X110975736Y-70190000D02*
X102230000Y-78935736D01*
X112970000Y-70190000D02*
X110975736Y-70190000D01*
X102230000Y-78935736D02*
X102230000Y-79360000D01*
X122890000Y-45280000D02*
X122890000Y-50040000D01*
X122890000Y-50040000D02*
X122910000Y-50060000D01*
G04 #@! TO.N,MP3RX*
X137270000Y-77730000D02*
X145030000Y-77730000D01*
X145030000Y-77730000D02*
X145370000Y-78070000D01*
G04 #@! TO.N,LED2*
X109795000Y-34940000D02*
X113305000Y-38450000D01*
X104100000Y-34940000D02*
X109795000Y-34940000D01*
X101440000Y-37600000D02*
X104100000Y-34940000D01*
X107320000Y-62810000D02*
X101440000Y-56930000D01*
X101440000Y-56930000D02*
X101440000Y-37600000D01*
G04 #@! TO.N,LED3*
X117310000Y-34530000D02*
X120330001Y-37550001D01*
X120330001Y-37550001D02*
X121230000Y-38450000D01*
X103689998Y-34530000D02*
X117310000Y-34530000D01*
X106930000Y-64110000D02*
X101009990Y-58189990D01*
X101009990Y-37210008D02*
X103689998Y-34530000D01*
X101009990Y-58189990D02*
X101009990Y-37210008D01*
G04 #@! TO.N,MP3CS*
X127950000Y-90480000D02*
X128740000Y-90480000D01*
X126830000Y-91600000D02*
X127950000Y-90480000D01*
G04 #@! TO.N,PUSH1*
X147324990Y-33560000D02*
X157734990Y-43970000D01*
X125370000Y-39230000D02*
X125370000Y-34450000D01*
X108780020Y-60600000D02*
X105569979Y-57389959D01*
X157734990Y-43970000D02*
X162080000Y-43970000D01*
X110550000Y-60600000D02*
X108780020Y-60600000D01*
X126260000Y-33560000D02*
X147324990Y-33560000D01*
X105569979Y-57389959D02*
X105569978Y-45410042D01*
X105569978Y-45410042D02*
X111200020Y-39780000D01*
X125370000Y-34450000D02*
X126260000Y-33560000D01*
X111200020Y-39780000D02*
X124820000Y-39780000D01*
X124820000Y-39780000D02*
X125370000Y-39230000D01*
G04 #@! TO.N,ENC2*
X150145000Y-37650000D02*
X150145000Y-41405000D01*
X146525000Y-34030000D02*
X150145000Y-37650000D01*
X126510000Y-34030000D02*
X146525000Y-34030000D01*
X125830000Y-34710000D02*
X126510000Y-34030000D01*
X125830000Y-39350000D02*
X125830000Y-34710000D01*
X125005000Y-40175000D02*
X125830000Y-39350000D01*
X112069999Y-59759999D02*
X108435009Y-59759999D01*
X112580000Y-60270000D02*
X112069999Y-59759999D01*
X108435009Y-59759999D02*
X105919989Y-57244979D01*
X105919989Y-57244979D02*
X105919989Y-45590011D01*
X150145000Y-41405000D02*
X147580000Y-43970000D01*
X105919989Y-45590011D02*
X111335000Y-40175000D01*
X111335000Y-40175000D02*
X125005000Y-40175000D01*
G04 #@! TO.N,ENC1*
X146170000Y-34520000D02*
X147580000Y-35930000D01*
X126780000Y-34520000D02*
X146170000Y-34520000D01*
X126260000Y-35040000D02*
X126780000Y-34520000D01*
X126260000Y-39520000D02*
X126260000Y-35040000D01*
X125130000Y-40650000D02*
X126260000Y-39520000D01*
X111380000Y-40650000D02*
X125130000Y-40650000D01*
X106270000Y-45760000D02*
X111380000Y-40650000D01*
X114320000Y-59675000D02*
X114275000Y-59630000D01*
X147580000Y-35930000D02*
X147580000Y-38970000D01*
X114275000Y-59630000D02*
X112615996Y-59630000D01*
X112615996Y-59630000D02*
X112360997Y-59375001D01*
X112360997Y-59375001D02*
X108945001Y-59375001D01*
X108945001Y-59375001D02*
X106270000Y-56700000D01*
X106270000Y-56700000D02*
X106270000Y-45760000D01*
G04 #@! TO.N,PUSH2*
X136240000Y-47740000D02*
X142740000Y-47740000D01*
X136240000Y-47740000D02*
X135200000Y-46700000D01*
X126520000Y-46700000D02*
X122195000Y-42375000D01*
X107770002Y-54565736D02*
X107770002Y-54990000D01*
X122195000Y-42375000D02*
X112320000Y-42375000D01*
X135200000Y-46700000D02*
X126520000Y-46700000D01*
X112320000Y-42375000D02*
X107770002Y-46924998D01*
X107770002Y-46924998D02*
X107770002Y-54565736D01*
G04 #@! TO.N,PUSH3*
X136240000Y-40440000D02*
X142740000Y-40440000D01*
X140620000Y-42560000D02*
X142740000Y-40440000D01*
X140620000Y-46470000D02*
X140620000Y-42560000D01*
X136240000Y-38530000D02*
X136240000Y-40440000D01*
X127209998Y-34980000D02*
X132690000Y-34980000D01*
X106900000Y-45700000D02*
X111575000Y-41025000D01*
X111575000Y-41025000D02*
X125249988Y-41025000D01*
X132690000Y-34980000D02*
X136240000Y-38530000D01*
X125249988Y-41025000D02*
X126710000Y-39564988D01*
X106900000Y-54910000D02*
X106900000Y-45700000D01*
X126710000Y-39564988D02*
X126710000Y-35479998D01*
X126710000Y-35479998D02*
X127209998Y-34980000D01*
G04 #@! TO.N,RXI*
X107495000Y-84775000D02*
X107495000Y-84875000D01*
X104070000Y-81350000D02*
X107495000Y-84775000D01*
G04 #@! TO.N,XDCS*
X104824264Y-67380000D02*
X105874264Y-68430000D01*
X104400000Y-67380000D02*
X104824264Y-67380000D01*
X105874264Y-68430000D02*
X119710000Y-68430000D01*
X119710000Y-68430000D02*
X124490000Y-73210000D01*
X124490000Y-73210000D02*
X131920000Y-73210000D01*
X131920000Y-73210000D02*
X132490000Y-72640000D01*
G04 #@! TO.N,DREQ*
X110945000Y-71850000D02*
X112845000Y-71850000D01*
X112845000Y-71850000D02*
X115495000Y-69200000D01*
X119985012Y-69200000D02*
X124510012Y-73725000D01*
X115495000Y-69200000D02*
X119985012Y-69200000D01*
X132219002Y-73725000D02*
X136119002Y-69825000D01*
X124510012Y-73725000D02*
X132219002Y-73725000D01*
X136119002Y-69825000D02*
X143245000Y-69825000D01*
X143245000Y-69825000D02*
X143870000Y-69200000D01*
D29*
G04 #@! TO.N,+1V8*
X148860000Y-73254264D02*
X147800000Y-74314264D01*
X148860000Y-72830000D02*
X148860000Y-73254264D01*
X147800000Y-74314264D02*
X147800000Y-76370000D01*
X147800000Y-76370000D02*
X146810000Y-77360000D01*
X148860000Y-72830000D02*
X151265000Y-70425000D01*
X151265000Y-70425000D02*
X151470000Y-70425000D01*
D26*
G04 #@! TO.N,Net-(BT1-Pad1)*
X163760000Y-69620000D02*
X161510000Y-69620000D01*
X164170000Y-69210000D02*
X163760000Y-69620000D01*
X164170000Y-64575000D02*
X164170000Y-69210000D01*
X158570000Y-58975000D02*
X164170000Y-64575000D01*
X156570000Y-58975000D02*
X158570000Y-58975000D01*
G04 #@! TD*
D31*
G04 #@! TO.N,GND*
G36*
X162597464Y-32920244D02*
X163172345Y-33128916D01*
X163683799Y-33464240D01*
X164104395Y-33908230D01*
X164411571Y-34437072D01*
X164590266Y-35027073D01*
X164633001Y-35505918D01*
X164633001Y-63939157D01*
X159173538Y-58479695D01*
X159130186Y-58414814D01*
X158873170Y-58243082D01*
X158646526Y-58198000D01*
X158646525Y-58198000D01*
X158570000Y-58182778D01*
X158493475Y-58198000D01*
X157782426Y-58198000D01*
X157782426Y-58080000D01*
X157760928Y-57971920D01*
X157699705Y-57880295D01*
X157608080Y-57819072D01*
X157500000Y-57797574D01*
X155500000Y-57797574D01*
X155391920Y-57819072D01*
X155300295Y-57880295D01*
X155239072Y-57971920D01*
X155222009Y-58057704D01*
X155222008Y-56766602D01*
X155237231Y-56690071D01*
X155176927Y-56386900D01*
X155048543Y-56194761D01*
X155048542Y-56194760D01*
X155005194Y-56129885D01*
X154940319Y-56086537D01*
X152833466Y-53979685D01*
X152790114Y-53914804D01*
X152533098Y-53743072D01*
X152306454Y-53697990D01*
X152306453Y-53697990D01*
X152229928Y-53682768D01*
X152153403Y-53697990D01*
X148161598Y-53697990D01*
X148085072Y-53682768D01*
X147781901Y-53743072D01*
X147729628Y-53778000D01*
X147524886Y-53914804D01*
X147481536Y-53979682D01*
X136249695Y-65211524D01*
X136184814Y-65254876D01*
X136013082Y-65511893D01*
X135997316Y-65591157D01*
X135952778Y-65815062D01*
X135968000Y-65891587D01*
X135968000Y-66346997D01*
X123789188Y-54168185D01*
X127479508Y-54168185D01*
X127484349Y-54784523D01*
X127688571Y-55366064D01*
X128070155Y-55850100D01*
X128587952Y-56184437D01*
X129186131Y-56333026D01*
X129800190Y-56279843D01*
X130363915Y-56030622D01*
X130816520Y-55612239D01*
X131109201Y-55069805D01*
X131210399Y-54461812D01*
X131210167Y-54432329D01*
X131099432Y-53826001D01*
X130798267Y-53288232D01*
X130339146Y-52877008D01*
X129771576Y-52636674D01*
X129156758Y-52593142D01*
X128560987Y-52751108D01*
X128048504Y-53093538D01*
X127674571Y-53583508D01*
X127479508Y-54168185D01*
X123789188Y-54168185D01*
X123753190Y-54132188D01*
X123720996Y-54084006D01*
X123530136Y-53956478D01*
X123361831Y-53923000D01*
X123361830Y-53923000D01*
X123305002Y-53911696D01*
X123248174Y-53923000D01*
X116774062Y-53923000D01*
X116738980Y-53887918D01*
X116473615Y-53778000D01*
X116186385Y-53778000D01*
X115921020Y-53887918D01*
X115717918Y-54091020D01*
X115608000Y-54356385D01*
X115608000Y-54643615D01*
X115717918Y-54908980D01*
X115921020Y-55112082D01*
X116186385Y-55222000D01*
X116473615Y-55222000D01*
X116738980Y-55112082D01*
X116774062Y-55077000D01*
X123066002Y-55077000D01*
X133731984Y-65742983D01*
X133568156Y-65810843D01*
X133455999Y-65923000D01*
X119412159Y-65923000D01*
X118635000Y-65145842D01*
X118635000Y-64987228D01*
X118547157Y-64775156D01*
X118384844Y-64612843D01*
X118172772Y-64525000D01*
X117943228Y-64525000D01*
X117731156Y-64612843D01*
X117568843Y-64775156D01*
X117481000Y-64987228D01*
X117481000Y-65216772D01*
X117568843Y-65428844D01*
X117731156Y-65591157D01*
X117943228Y-65679000D01*
X118101842Y-65679000D01*
X118963170Y-66540329D01*
X118984199Y-66571801D01*
X119015671Y-66592830D01*
X119015672Y-66592831D01*
X119108902Y-66655125D01*
X119218874Y-66677000D01*
X119218877Y-66677000D01*
X119256000Y-66684384D01*
X119293122Y-66677000D01*
X133455999Y-66677000D01*
X133568156Y-66789157D01*
X133780228Y-66877000D01*
X134009772Y-66877000D01*
X134221844Y-66789157D01*
X134384157Y-66626844D01*
X134452017Y-66463016D01*
X135981816Y-67992815D01*
X136014008Y-68040994D01*
X136204868Y-68168522D01*
X136373173Y-68202000D01*
X136430001Y-68213304D01*
X136486829Y-68202000D01*
X138558172Y-68202000D01*
X138615000Y-68213304D01*
X138671828Y-68202000D01*
X138671829Y-68202000D01*
X138840134Y-68168522D01*
X139030994Y-68040994D01*
X139063188Y-67992812D01*
X143463185Y-63592816D01*
X143463186Y-63592814D01*
X143554001Y-63502000D01*
X143603615Y-63502000D01*
X143868980Y-63392082D01*
X143904062Y-63357000D01*
X148513171Y-63357000D01*
X148570000Y-63368304D01*
X148626829Y-63357000D01*
X150831000Y-63357000D01*
X152953000Y-65479001D01*
X152953000Y-67400233D01*
X152778615Y-67328000D01*
X152491385Y-67328000D01*
X152226020Y-67437918D01*
X152022918Y-67641020D01*
X151913000Y-67906385D01*
X151913000Y-68193615D01*
X152022918Y-68458980D01*
X152058001Y-68494063D01*
X152058000Y-70856674D01*
X149902186Y-73012489D01*
X149902183Y-73012491D01*
X149352186Y-73562489D01*
X149304007Y-73594681D01*
X149176478Y-73785541D01*
X149143000Y-73953846D01*
X149131696Y-74010675D01*
X149143000Y-74067503D01*
X149143000Y-74195938D01*
X149107918Y-74231020D01*
X148998000Y-74496385D01*
X148998000Y-74546000D01*
X148932186Y-74611814D01*
X148884007Y-74644006D01*
X148804106Y-74763587D01*
X148756479Y-74834866D01*
X148711696Y-75060000D01*
X148723001Y-75116832D01*
X148723000Y-76415938D01*
X148687918Y-76451020D01*
X148578000Y-76716385D01*
X148578000Y-77003615D01*
X148687918Y-77268980D01*
X148723001Y-77304063D01*
X148723000Y-80996999D01*
X148596844Y-80870843D01*
X148384772Y-80783000D01*
X148155228Y-80783000D01*
X147943156Y-80870843D01*
X147780843Y-81033156D01*
X147693000Y-81245228D01*
X147693000Y-81262421D01*
X144722421Y-84233000D01*
X144394825Y-84233000D01*
X144387415Y-84221910D01*
X144163477Y-84072280D01*
X143966003Y-84033000D01*
X143966001Y-84033000D01*
X143899325Y-84019737D01*
X143832649Y-84033000D01*
X143522254Y-84033000D01*
X143413615Y-83988000D01*
X143126385Y-83988000D01*
X142861020Y-84097918D01*
X142657918Y-84301020D01*
X142612918Y-84409661D01*
X140489579Y-86533000D01*
X126772254Y-86533000D01*
X126663615Y-86488000D01*
X126376385Y-86488000D01*
X126267746Y-86533000D01*
X117950423Y-86533000D01*
X113157000Y-81739579D01*
X113157000Y-77615228D01*
X136693000Y-77615228D01*
X136693000Y-77844772D01*
X136780843Y-78056844D01*
X136943156Y-78219157D01*
X137155228Y-78307000D01*
X137384772Y-78307000D01*
X137596844Y-78219157D01*
X137709001Y-78107000D01*
X144793000Y-78107000D01*
X144793000Y-78184772D01*
X144880843Y-78396844D01*
X145043156Y-78559157D01*
X145255228Y-78647000D01*
X145484772Y-78647000D01*
X145696844Y-78559157D01*
X145859157Y-78396844D01*
X145947000Y-78184772D01*
X145947000Y-77955228D01*
X145859157Y-77743156D01*
X145696844Y-77580843D01*
X145484772Y-77493000D01*
X145326158Y-77493000D01*
X145322832Y-77489674D01*
X145301801Y-77458199D01*
X145177098Y-77374875D01*
X145067126Y-77353000D01*
X145067122Y-77353000D01*
X145030000Y-77345616D01*
X144992878Y-77353000D01*
X137709001Y-77353000D01*
X137596844Y-77240843D01*
X137384772Y-77153000D01*
X137155228Y-77153000D01*
X136943156Y-77240843D01*
X136780843Y-77403156D01*
X136693000Y-77615228D01*
X113157000Y-77615228D01*
X113157000Y-75583228D01*
X146231000Y-75583228D01*
X146231000Y-75812772D01*
X146318843Y-76024844D01*
X146481156Y-76187157D01*
X146693228Y-76275000D01*
X146922772Y-76275000D01*
X147134844Y-76187157D01*
X147297157Y-76024844D01*
X147323001Y-75962452D01*
X147323001Y-76172420D01*
X146712421Y-76783000D01*
X146695228Y-76783000D01*
X146483156Y-76870843D01*
X146320843Y-77033156D01*
X146233000Y-77245228D01*
X146233000Y-77474772D01*
X146320843Y-77686844D01*
X146483156Y-77849157D01*
X146695228Y-77937000D01*
X146924772Y-77937000D01*
X147136844Y-77849157D01*
X147299157Y-77686844D01*
X147387000Y-77474772D01*
X147387000Y-77457579D01*
X148104071Y-76740508D01*
X148143897Y-76713897D01*
X148249323Y-76556116D01*
X148277000Y-76416975D01*
X148277000Y-76416971D01*
X148286343Y-76370001D01*
X148277000Y-76323031D01*
X148277000Y-74511843D01*
X149164074Y-73624770D01*
X149203897Y-73598161D01*
X149309323Y-73440380D01*
X149337000Y-73301238D01*
X149337000Y-73301235D01*
X149346343Y-73254265D01*
X149337000Y-73207295D01*
X149337000Y-73169001D01*
X149349157Y-73156844D01*
X149437000Y-72944772D01*
X149437000Y-72927579D01*
X151362580Y-71002000D01*
X151584772Y-71002000D01*
X151796844Y-70914157D01*
X151959157Y-70751844D01*
X152047000Y-70539772D01*
X152047000Y-70310228D01*
X151959157Y-70098156D01*
X151796844Y-69935843D01*
X151584772Y-69848000D01*
X151355228Y-69848000D01*
X151143156Y-69935843D01*
X151109390Y-69969609D01*
X151078884Y-69975677D01*
X150921103Y-70081103D01*
X150894494Y-70120926D01*
X148762421Y-72253000D01*
X148745228Y-72253000D01*
X148533156Y-72340843D01*
X148370843Y-72503156D01*
X148355208Y-72540902D01*
X148269157Y-72333156D01*
X148106844Y-72170843D01*
X147894772Y-72083000D01*
X147665228Y-72083000D01*
X147453156Y-72170843D01*
X147290843Y-72333156D01*
X147203000Y-72545228D01*
X147203000Y-72703842D01*
X146567674Y-73339168D01*
X146536199Y-73360199D01*
X146452875Y-73484903D01*
X146431000Y-73594875D01*
X146431000Y-73594878D01*
X146423616Y-73632000D01*
X146431000Y-73669123D01*
X146431001Y-75258998D01*
X146318843Y-75371156D01*
X146231000Y-75583228D01*
X113157000Y-75583228D01*
X113157000Y-73640421D01*
X115735423Y-71061999D01*
X119208325Y-71061999D01*
X119275001Y-71075262D01*
X119341677Y-71061999D01*
X119341679Y-71061999D01*
X119539153Y-71022719D01*
X119763091Y-70873089D01*
X119800864Y-70816557D01*
X120020340Y-70597082D01*
X120128980Y-70552082D01*
X120332082Y-70348980D01*
X120410798Y-70158944D01*
X124217182Y-73965329D01*
X124238211Y-73996801D01*
X124269683Y-74017830D01*
X124269684Y-74017831D01*
X124318222Y-74050263D01*
X124362914Y-74080125D01*
X124472886Y-74102000D01*
X124472889Y-74102000D01*
X124510011Y-74109384D01*
X124547134Y-74102000D01*
X132181880Y-74102000D01*
X132219002Y-74109384D01*
X132256124Y-74102000D01*
X132256128Y-74102000D01*
X132366100Y-74080125D01*
X132490803Y-73996801D01*
X132511834Y-73965326D01*
X136275161Y-70202000D01*
X143207878Y-70202000D01*
X143245000Y-70209384D01*
X143282122Y-70202000D01*
X143282126Y-70202000D01*
X143392098Y-70180125D01*
X143516801Y-70096801D01*
X143537832Y-70065326D01*
X143826158Y-69777000D01*
X143984772Y-69777000D01*
X144196844Y-69689157D01*
X144359157Y-69526844D01*
X144447000Y-69314772D01*
X144447000Y-69085228D01*
X144359157Y-68873156D01*
X144196844Y-68710843D01*
X143984772Y-68623000D01*
X143755228Y-68623000D01*
X143543156Y-68710843D01*
X143380843Y-68873156D01*
X143293000Y-69085228D01*
X143293000Y-69243842D01*
X143088842Y-69448000D01*
X136156124Y-69448000D01*
X136119002Y-69440616D01*
X136081879Y-69448000D01*
X136081876Y-69448000D01*
X135971904Y-69469875D01*
X135878674Y-69532169D01*
X135878673Y-69532170D01*
X135847201Y-69553199D01*
X135826172Y-69584671D01*
X133013874Y-72396970D01*
X132979157Y-72313156D01*
X132816844Y-72150843D01*
X132604772Y-72063000D01*
X132375228Y-72063000D01*
X132163156Y-72150843D01*
X132000843Y-72313156D01*
X131913000Y-72525228D01*
X131913000Y-72683842D01*
X131763842Y-72833000D01*
X124646159Y-72833000D01*
X120002832Y-68189674D01*
X119981801Y-68158199D01*
X119857098Y-68074875D01*
X119747126Y-68053000D01*
X119747122Y-68053000D01*
X119710000Y-68045616D01*
X119672878Y-68053000D01*
X106030423Y-68053000D01*
X105117096Y-67139674D01*
X105096065Y-67108199D01*
X104971362Y-67024875D01*
X104861390Y-67003000D01*
X104861386Y-67003000D01*
X104833443Y-66997442D01*
X104726844Y-66890843D01*
X104514772Y-66803000D01*
X104285228Y-66803000D01*
X104073156Y-66890843D01*
X103910843Y-67053156D01*
X103823000Y-67265228D01*
X103823000Y-67494772D01*
X103910843Y-67706844D01*
X104073156Y-67869157D01*
X104285228Y-67957000D01*
X104514772Y-67957000D01*
X104726844Y-67869157D01*
X104753553Y-67842448D01*
X105581434Y-68670329D01*
X105602463Y-68701801D01*
X105633935Y-68722830D01*
X105633936Y-68722831D01*
X105692437Y-68761920D01*
X105727166Y-68785125D01*
X105837138Y-68807000D01*
X105837141Y-68807000D01*
X105874263Y-68814384D01*
X105911386Y-68807000D01*
X119553842Y-68807000D01*
X119569842Y-68823000D01*
X115532122Y-68823000D01*
X115495000Y-68815616D01*
X115457877Y-68823000D01*
X115457874Y-68823000D01*
X115357328Y-68843000D01*
X115347902Y-68844875D01*
X115254672Y-68907169D01*
X115254671Y-68907170D01*
X115223199Y-68928199D01*
X115202170Y-68959671D01*
X112688842Y-71473000D01*
X111384001Y-71473000D01*
X111271844Y-71360843D01*
X111059772Y-71273000D01*
X110830228Y-71273000D01*
X110618156Y-71360843D01*
X110455843Y-71523156D01*
X110368000Y-71735228D01*
X110368000Y-71964772D01*
X110455843Y-72176844D01*
X110618156Y-72339157D01*
X110830228Y-72427000D01*
X111059772Y-72427000D01*
X111271844Y-72339157D01*
X111384001Y-72227000D01*
X112655579Y-72227000D01*
X112048441Y-72834138D01*
X111991910Y-72871911D01*
X111842280Y-73095849D01*
X111812092Y-73247615D01*
X111789737Y-73360000D01*
X111803000Y-73426677D01*
X111803001Y-81953319D01*
X111789737Y-82020000D01*
X111828571Y-82215228D01*
X111842281Y-82284152D01*
X111991911Y-82508090D01*
X112048441Y-82545862D01*
X117144140Y-87641563D01*
X117181910Y-87698090D01*
X117405848Y-87847720D01*
X117603322Y-87887000D01*
X117603323Y-87887000D01*
X117669999Y-87900263D01*
X117736676Y-87887000D01*
X126267746Y-87887000D01*
X126376385Y-87932000D01*
X126663615Y-87932000D01*
X126772254Y-87887000D01*
X140703324Y-87887000D01*
X140770000Y-87900263D01*
X140836676Y-87887000D01*
X140836678Y-87887000D01*
X141034152Y-87847720D01*
X141258090Y-87698090D01*
X141295864Y-87641557D01*
X143550422Y-85387000D01*
X143618904Y-85387000D01*
X144953465Y-86721563D01*
X144991235Y-86778090D01*
X145215173Y-86927720D01*
X145412647Y-86967000D01*
X145412648Y-86967000D01*
X145479324Y-86980263D01*
X145546001Y-86967000D01*
X148553000Y-86967000D01*
X148553001Y-91720998D01*
X148520843Y-91753156D01*
X148433000Y-91965228D01*
X148433000Y-92194772D01*
X148520843Y-92406844D01*
X148683156Y-92569157D01*
X148895228Y-92657000D01*
X149124772Y-92657000D01*
X149336844Y-92569157D01*
X149499157Y-92406844D01*
X149587000Y-92194772D01*
X149587000Y-91965228D01*
X149499157Y-91753156D01*
X149336844Y-91590843D01*
X149307000Y-91578481D01*
X149307000Y-86967000D01*
X155373324Y-86967000D01*
X155440000Y-86980263D01*
X155506676Y-86967000D01*
X155506678Y-86967000D01*
X155704152Y-86927720D01*
X155928090Y-86778090D01*
X155965864Y-86721557D01*
X159031562Y-83655860D01*
X159088089Y-83618090D01*
X159237720Y-83394152D01*
X159277000Y-83196678D01*
X159277000Y-83196677D01*
X159290263Y-83130000D01*
X159277000Y-83063324D01*
X159277000Y-79186678D01*
X159290263Y-79120000D01*
X159237720Y-78855847D01*
X159125860Y-78688437D01*
X159088090Y-78631910D01*
X159031562Y-78594139D01*
X158832001Y-78394579D01*
X158832001Y-71210846D01*
X159736462Y-72115308D01*
X159779812Y-72180186D01*
X160036828Y-72351918D01*
X160263472Y-72397000D01*
X160339997Y-72412222D01*
X160345465Y-72411134D01*
X160609285Y-72587413D01*
X160773111Y-72620000D01*
X160609285Y-72652587D01*
X160269574Y-72879574D01*
X160042587Y-73219285D01*
X159962880Y-73620000D01*
X160042587Y-74020715D01*
X160269574Y-74360426D01*
X160353809Y-74416710D01*
X160322721Y-74422894D01*
X159867238Y-74727238D01*
X159562894Y-75182721D01*
X159456023Y-75720000D01*
X159562894Y-76257279D01*
X159867238Y-76712762D01*
X160322721Y-77017106D01*
X160724377Y-77097000D01*
X162295623Y-77097000D01*
X162697279Y-77017106D01*
X163152762Y-76712762D01*
X163457106Y-76257279D01*
X163563977Y-75720000D01*
X163457106Y-75182721D01*
X163152762Y-74727238D01*
X162697279Y-74422894D01*
X162666191Y-74416710D01*
X162750426Y-74360426D01*
X162977413Y-74020715D01*
X163057120Y-73620000D01*
X162977413Y-73219285D01*
X162750426Y-72879574D01*
X162410715Y-72652587D01*
X162246889Y-72620000D01*
X162410715Y-72587413D01*
X162750426Y-72360426D01*
X162977413Y-72020715D01*
X163057120Y-71620000D01*
X162977413Y-71219285D01*
X162750426Y-70879574D01*
X162410715Y-70652587D01*
X162409906Y-70652426D01*
X162760000Y-70652426D01*
X162868080Y-70630928D01*
X162959705Y-70569705D01*
X163020928Y-70478080D01*
X163037055Y-70397000D01*
X163683475Y-70397000D01*
X163760000Y-70412222D01*
X163836525Y-70397000D01*
X163836526Y-70397000D01*
X164063170Y-70351918D01*
X164320186Y-70180186D01*
X164363538Y-70115305D01*
X164633000Y-69845843D01*
X164633000Y-96969263D01*
X164559759Y-97597465D01*
X164351087Y-98172348D01*
X164015763Y-98683802D01*
X163571771Y-99104399D01*
X163042929Y-99411575D01*
X162452929Y-99590269D01*
X161974097Y-99633003D01*
X135053081Y-99633003D01*
X135017279Y-99361062D01*
X134993159Y-99271042D01*
X134993155Y-99271036D01*
X134768382Y-98728385D01*
X134768382Y-98728384D01*
X134742521Y-98683592D01*
X134721785Y-98647675D01*
X134721781Y-98647671D01*
X134364217Y-98181685D01*
X134298318Y-98115786D01*
X133832332Y-97758222D01*
X133832328Y-97758218D01*
X133768719Y-97721494D01*
X133751619Y-97711621D01*
X133751616Y-97711620D01*
X133208967Y-97486848D01*
X133208961Y-97486844D01*
X133118941Y-97462724D01*
X132536598Y-97386057D01*
X132443402Y-97386057D01*
X131861059Y-97462724D01*
X131771039Y-97486844D01*
X131771033Y-97486848D01*
X131228384Y-97711620D01*
X131228381Y-97711621D01*
X131211281Y-97721494D01*
X131147672Y-97758218D01*
X131147668Y-97758222D01*
X130681682Y-98115786D01*
X130615783Y-98181685D01*
X130258219Y-98647671D01*
X130258215Y-98647675D01*
X130237479Y-98683592D01*
X130211618Y-98728384D01*
X130211618Y-98728385D01*
X129986845Y-99271036D01*
X129986841Y-99271042D01*
X129962721Y-99361062D01*
X129926919Y-99633003D01*
X103010740Y-99633003D01*
X102382538Y-99559762D01*
X101807655Y-99351090D01*
X101296201Y-99015766D01*
X100875604Y-98571774D01*
X100568428Y-98042932D01*
X100389734Y-97452932D01*
X100347000Y-96974100D01*
X100347000Y-93538188D01*
X127479508Y-93538188D01*
X127484349Y-94154526D01*
X127688571Y-94736067D01*
X128070155Y-95220103D01*
X128587952Y-95554440D01*
X129186131Y-95703029D01*
X129800190Y-95649846D01*
X130363915Y-95400625D01*
X130816520Y-94982242D01*
X130885052Y-94855228D01*
X140493000Y-94855228D01*
X140493000Y-95084772D01*
X140580843Y-95296844D01*
X140743156Y-95459157D01*
X140955228Y-95547000D01*
X141113842Y-95547000D01*
X141517170Y-95950329D01*
X141538199Y-95981801D01*
X141569671Y-96002830D01*
X141569672Y-96002831D01*
X141575678Y-96006844D01*
X141662902Y-96065125D01*
X141772874Y-96087000D01*
X141772877Y-96087000D01*
X141809999Y-96094384D01*
X141847122Y-96087000D01*
X150860999Y-96087000D01*
X150943156Y-96169157D01*
X151155228Y-96257000D01*
X151384772Y-96257000D01*
X151596844Y-96169157D01*
X151759157Y-96006844D01*
X151826435Y-95844419D01*
X160140542Y-95844419D01*
X160238662Y-96400886D01*
X160521188Y-96890234D01*
X160954042Y-97253442D01*
X161485016Y-97446701D01*
X162050068Y-97446701D01*
X162581042Y-97253442D01*
X163013896Y-96890234D01*
X163296422Y-96400886D01*
X163394542Y-95844419D01*
X163296422Y-95287952D01*
X163013896Y-94798604D01*
X162581042Y-94435396D01*
X162050068Y-94242137D01*
X161485016Y-94242137D01*
X160954042Y-94435396D01*
X160521188Y-94798604D01*
X160238662Y-95287952D01*
X160140542Y-95844419D01*
X151826435Y-95844419D01*
X151847000Y-95794772D01*
X151847000Y-95565228D01*
X151759157Y-95353156D01*
X151596844Y-95190843D01*
X151384772Y-95103000D01*
X151155228Y-95103000D01*
X150943156Y-95190843D01*
X150800999Y-95333000D01*
X141966159Y-95333000D01*
X141647000Y-95013842D01*
X141647000Y-94855228D01*
X141559157Y-94643156D01*
X141396844Y-94480843D01*
X141184772Y-94393000D01*
X140955228Y-94393000D01*
X140743156Y-94480843D01*
X140580843Y-94643156D01*
X140493000Y-94855228D01*
X130885052Y-94855228D01*
X131109201Y-94439808D01*
X131210399Y-93831815D01*
X131210167Y-93802332D01*
X131099432Y-93196004D01*
X130798267Y-92658235D01*
X130339146Y-92247011D01*
X129771576Y-92006677D01*
X129156758Y-91963145D01*
X128560987Y-92121111D01*
X128048504Y-92463541D01*
X127674571Y-92953511D01*
X127479508Y-93538188D01*
X100347000Y-93538188D01*
X100347000Y-90145880D01*
X115475000Y-90145880D01*
X115475000Y-90614120D01*
X115654187Y-91046717D01*
X115985283Y-91377813D01*
X116417880Y-91557000D01*
X116886120Y-91557000D01*
X117059393Y-91485228D01*
X126253000Y-91485228D01*
X126253000Y-91714772D01*
X126340843Y-91926844D01*
X126503156Y-92089157D01*
X126715228Y-92177000D01*
X126944772Y-92177000D01*
X127156844Y-92089157D01*
X127319157Y-91926844D01*
X127407000Y-91714772D01*
X127407000Y-91556158D01*
X128106159Y-90857000D01*
X128300999Y-90857000D01*
X128413156Y-90969157D01*
X128625228Y-91057000D01*
X128854772Y-91057000D01*
X129066844Y-90969157D01*
X129229157Y-90806844D01*
X129317000Y-90594772D01*
X129317000Y-90365228D01*
X129229157Y-90153156D01*
X129066844Y-89990843D01*
X128854772Y-89903000D01*
X128625228Y-89903000D01*
X128413156Y-89990843D01*
X128300999Y-90103000D01*
X127987122Y-90103000D01*
X127949999Y-90095616D01*
X127912877Y-90103000D01*
X127912874Y-90103000D01*
X127802902Y-90124875D01*
X127709672Y-90187169D01*
X127709671Y-90187170D01*
X127678199Y-90208199D01*
X127657170Y-90239671D01*
X126873842Y-91023000D01*
X126715228Y-91023000D01*
X126503156Y-91110843D01*
X126340843Y-91273156D01*
X126253000Y-91485228D01*
X117059393Y-91485228D01*
X117318717Y-91377813D01*
X117649813Y-91046717D01*
X117829000Y-90614120D01*
X117829000Y-90145880D01*
X117649813Y-89713283D01*
X117318717Y-89382187D01*
X116886120Y-89203000D01*
X116417880Y-89203000D01*
X115985283Y-89382187D01*
X115654187Y-89713283D01*
X115475000Y-90145880D01*
X100347000Y-90145880D01*
X100347000Y-81235228D01*
X103493000Y-81235228D01*
X103493000Y-81464772D01*
X103580843Y-81676844D01*
X103743156Y-81839157D01*
X103955228Y-81927000D01*
X104113842Y-81927000D01*
X106926514Y-84739672D01*
X106918000Y-84760228D01*
X106918000Y-84989772D01*
X107005843Y-85201844D01*
X107168156Y-85364157D01*
X107380228Y-85452000D01*
X107609772Y-85452000D01*
X107821844Y-85364157D01*
X107984157Y-85201844D01*
X108072000Y-84989772D01*
X108072000Y-84760228D01*
X107984157Y-84548156D01*
X107821844Y-84385843D01*
X107609772Y-84298000D01*
X107551158Y-84298000D01*
X104647000Y-81393842D01*
X104647000Y-81235228D01*
X104559157Y-81023156D01*
X104396844Y-80860843D01*
X104184772Y-80773000D01*
X103955228Y-80773000D01*
X103743156Y-80860843D01*
X103580843Y-81023156D01*
X103493000Y-81235228D01*
X100347000Y-81235228D01*
X100347000Y-79245228D01*
X101653000Y-79245228D01*
X101653000Y-79474772D01*
X101740843Y-79686844D01*
X101903156Y-79849157D01*
X102115228Y-79937000D01*
X102344772Y-79937000D01*
X102556844Y-79849157D01*
X102719157Y-79686844D01*
X102807000Y-79474772D01*
X102807000Y-79245228D01*
X102719157Y-79033156D01*
X102692448Y-79006447D01*
X111131894Y-70567000D01*
X112530999Y-70567000D01*
X112643156Y-70679157D01*
X112855228Y-70767000D01*
X113084772Y-70767000D01*
X113296844Y-70679157D01*
X113459157Y-70516844D01*
X113547000Y-70304772D01*
X113547000Y-70075228D01*
X113459157Y-69863156D01*
X113296844Y-69700843D01*
X113084772Y-69613000D01*
X112855228Y-69613000D01*
X112643156Y-69700843D01*
X112530999Y-69813000D01*
X111012856Y-69813000D01*
X110975735Y-69805616D01*
X110938614Y-69813000D01*
X110938610Y-69813000D01*
X110828638Y-69834875D01*
X110703935Y-69918199D01*
X110682904Y-69949674D01*
X101989674Y-78642904D01*
X101958199Y-78663935D01*
X101874875Y-78788639D01*
X101853000Y-78898611D01*
X101853000Y-78898614D01*
X101847442Y-78926557D01*
X101740843Y-79033156D01*
X101653000Y-79245228D01*
X100347000Y-79245228D01*
X100347000Y-37210008D01*
X100625606Y-37210008D01*
X100632991Y-37247135D01*
X100632990Y-58152868D01*
X100625606Y-58189990D01*
X100632990Y-58227112D01*
X100632990Y-58227115D01*
X100654865Y-58337087D01*
X100738189Y-58461791D01*
X100769664Y-58482822D01*
X106353000Y-64066158D01*
X106353000Y-64224772D01*
X106440843Y-64436844D01*
X106603156Y-64599157D01*
X106815228Y-64687000D01*
X107044772Y-64687000D01*
X107256844Y-64599157D01*
X107419157Y-64436844D01*
X107507000Y-64224772D01*
X107507000Y-63995228D01*
X107419157Y-63783156D01*
X107256844Y-63620843D01*
X107044772Y-63533000D01*
X106886158Y-63533000D01*
X101386990Y-58033832D01*
X101386990Y-57410148D01*
X106743000Y-62766159D01*
X106743000Y-62924772D01*
X106830843Y-63136844D01*
X106993156Y-63299157D01*
X107205228Y-63387000D01*
X107434772Y-63387000D01*
X107646844Y-63299157D01*
X107809157Y-63136844D01*
X107897000Y-62924772D01*
X107897000Y-62695228D01*
X107809157Y-62483156D01*
X107646844Y-62320843D01*
X107434772Y-62233000D01*
X107276159Y-62233000D01*
X101817000Y-56773842D01*
X101817000Y-48215771D01*
X102273000Y-48215771D01*
X102273000Y-48644229D01*
X102436963Y-49040072D01*
X102739928Y-49343037D01*
X103135771Y-49507000D01*
X103564229Y-49507000D01*
X103960072Y-49343037D01*
X104263037Y-49040072D01*
X104427000Y-48644229D01*
X104427000Y-48215771D01*
X104263037Y-47819928D01*
X103960072Y-47516963D01*
X103564229Y-47353000D01*
X103135771Y-47353000D01*
X102739928Y-47516963D01*
X102436963Y-47819928D01*
X102273000Y-48215771D01*
X101817000Y-48215771D01*
X101817000Y-37756158D01*
X104256159Y-35317000D01*
X109638842Y-35317000D01*
X112248005Y-37926163D01*
X112128000Y-38215880D01*
X112128000Y-38684120D01*
X112307187Y-39116717D01*
X112593470Y-39403000D01*
X111237142Y-39403000D01*
X111200020Y-39395616D01*
X111162897Y-39403000D01*
X111162894Y-39403000D01*
X111052922Y-39424875D01*
X110959692Y-39487169D01*
X110959691Y-39487170D01*
X110928219Y-39508199D01*
X110907190Y-39539671D01*
X105607000Y-44839862D01*
X105607000Y-39567817D01*
X105896717Y-39447813D01*
X106227813Y-39116717D01*
X106407000Y-38684120D01*
X106407000Y-38215880D01*
X106227813Y-37783283D01*
X105994530Y-37550000D01*
X106587574Y-37550000D01*
X106587574Y-39350000D01*
X106609072Y-39458080D01*
X106670295Y-39549705D01*
X106761920Y-39610928D01*
X106870000Y-39632426D01*
X108670000Y-39632426D01*
X108778080Y-39610928D01*
X108869705Y-39549705D01*
X108930928Y-39458080D01*
X108952426Y-39350000D01*
X108952426Y-37550000D01*
X108930928Y-37441920D01*
X108869705Y-37350295D01*
X108778080Y-37289072D01*
X108670000Y-37267574D01*
X106870000Y-37267574D01*
X106761920Y-37289072D01*
X106670295Y-37350295D01*
X106609072Y-37441920D01*
X106587574Y-37550000D01*
X105994530Y-37550000D01*
X105896717Y-37452187D01*
X105464120Y-37273000D01*
X104995880Y-37273000D01*
X104563283Y-37452187D01*
X104232187Y-37783283D01*
X104053000Y-38215880D01*
X104053000Y-38684120D01*
X104232187Y-39116717D01*
X104563283Y-39447813D01*
X104853000Y-39567817D01*
X104853000Y-39759917D01*
X104853001Y-39759922D01*
X104853000Y-45177505D01*
X104835584Y-45265062D01*
X104842969Y-45302189D01*
X104842968Y-58387846D01*
X104835584Y-58424968D01*
X104842968Y-58462090D01*
X104842968Y-58462093D01*
X104864843Y-58572065D01*
X104948167Y-58696769D01*
X104979642Y-58717800D01*
X106618000Y-60356159D01*
X106618000Y-60514772D01*
X106705843Y-60726844D01*
X106868156Y-60889157D01*
X107080228Y-60977000D01*
X107309772Y-60977000D01*
X107521844Y-60889157D01*
X107684157Y-60726844D01*
X107772000Y-60514772D01*
X107772000Y-60285228D01*
X107684157Y-60073156D01*
X107521844Y-59910843D01*
X107309772Y-59823000D01*
X107151159Y-59823000D01*
X105596968Y-58268810D01*
X105596968Y-57950106D01*
X108487188Y-60840326D01*
X108508219Y-60871801D01*
X108632922Y-60955125D01*
X108742894Y-60977000D01*
X108780020Y-60984385D01*
X108817146Y-60977000D01*
X110110999Y-60977000D01*
X110223156Y-61089157D01*
X110435228Y-61177000D01*
X110664772Y-61177000D01*
X110876844Y-61089157D01*
X111039157Y-60926844D01*
X111127000Y-60714772D01*
X111127000Y-60485228D01*
X111039157Y-60273156D01*
X110903000Y-60136999D01*
X111913841Y-60136999D01*
X112003000Y-60226158D01*
X112003000Y-60384772D01*
X112090843Y-60596844D01*
X112253156Y-60759157D01*
X112465228Y-60847000D01*
X112694772Y-60847000D01*
X112906844Y-60759157D01*
X113069157Y-60596844D01*
X113157000Y-60384772D01*
X113157000Y-60155228D01*
X113095602Y-60007000D01*
X113835999Y-60007000D01*
X113993156Y-60164157D01*
X114205228Y-60252000D01*
X114434772Y-60252000D01*
X114646844Y-60164157D01*
X114809157Y-60001844D01*
X114897000Y-59789772D01*
X114897000Y-59560228D01*
X114809157Y-59348156D01*
X114646844Y-59185843D01*
X114434772Y-59098000D01*
X114205228Y-59098000D01*
X113993156Y-59185843D01*
X113925999Y-59253000D01*
X112772155Y-59253000D01*
X112653829Y-59134674D01*
X112632798Y-59103200D01*
X112508095Y-59019876D01*
X112398123Y-58998001D01*
X112398119Y-58998001D01*
X112360997Y-58990617D01*
X112323875Y-58998001D01*
X109101159Y-58998001D01*
X106647000Y-56543842D01*
X106647000Y-55429744D01*
X106785228Y-55487000D01*
X107014772Y-55487000D01*
X107226844Y-55399157D01*
X107295001Y-55331000D01*
X107443158Y-55479157D01*
X107655230Y-55567000D01*
X107884774Y-55567000D01*
X108096846Y-55479157D01*
X108259159Y-55316844D01*
X108347002Y-55104772D01*
X108347002Y-54875228D01*
X108259159Y-54663156D01*
X108147002Y-54550999D01*
X108147002Y-51819265D01*
X160202493Y-51819265D01*
X160300613Y-52375732D01*
X160583139Y-52865080D01*
X161015993Y-53228288D01*
X161546967Y-53421547D01*
X162112019Y-53421547D01*
X162642993Y-53228288D01*
X163075847Y-52865080D01*
X163358373Y-52375732D01*
X163456493Y-51819265D01*
X163358373Y-51262798D01*
X163075847Y-50773450D01*
X162642993Y-50410242D01*
X162112019Y-50216983D01*
X161546967Y-50216983D01*
X161015993Y-50410242D01*
X160583139Y-50773450D01*
X160300613Y-51262798D01*
X160202493Y-51819265D01*
X108147002Y-51819265D01*
X108147002Y-48215771D01*
X109273000Y-48215771D01*
X109273000Y-48644229D01*
X109436963Y-49040072D01*
X109739928Y-49343037D01*
X110135771Y-49507000D01*
X110564229Y-49507000D01*
X110960072Y-49343037D01*
X111263037Y-49040072D01*
X111427000Y-48644229D01*
X111427000Y-48215771D01*
X111263037Y-47819928D01*
X110960072Y-47516963D01*
X110564229Y-47353000D01*
X110135771Y-47353000D01*
X109739928Y-47516963D01*
X109436963Y-47819928D01*
X109273000Y-48215771D01*
X108147002Y-48215771D01*
X108147002Y-47081156D01*
X109662408Y-45565750D01*
X118405000Y-45565750D01*
X118405000Y-46256310D01*
X118501673Y-46489699D01*
X118680302Y-46668327D01*
X118913691Y-46765000D01*
X119204250Y-46765000D01*
X119363000Y-46606250D01*
X119363000Y-45407000D01*
X119617000Y-45407000D01*
X119617000Y-46606250D01*
X119775750Y-46765000D01*
X120066309Y-46765000D01*
X120299698Y-46668327D01*
X120478327Y-46489699D01*
X120575000Y-46256310D01*
X120575000Y-45565750D01*
X120416250Y-45407000D01*
X119617000Y-45407000D01*
X119363000Y-45407000D01*
X118563750Y-45407000D01*
X118405000Y-45565750D01*
X109662408Y-45565750D01*
X110924468Y-44303690D01*
X118405000Y-44303690D01*
X118405000Y-44994250D01*
X118563750Y-45153000D01*
X119363000Y-45153000D01*
X119363000Y-43953750D01*
X119617000Y-43953750D01*
X119617000Y-45153000D01*
X120416250Y-45153000D01*
X120575000Y-44994250D01*
X120575000Y-44303690D01*
X120478327Y-44070301D01*
X120299698Y-43891673D01*
X120066309Y-43795000D01*
X119775750Y-43795000D01*
X119617000Y-43953750D01*
X119363000Y-43953750D01*
X119204250Y-43795000D01*
X118913691Y-43795000D01*
X118680302Y-43891673D01*
X118501673Y-44070301D01*
X118405000Y-44303690D01*
X110924468Y-44303690D01*
X112476159Y-42752000D01*
X122038842Y-42752000D01*
X123471690Y-44184848D01*
X123448080Y-44169072D01*
X123340000Y-44147574D01*
X122440000Y-44147574D01*
X122331920Y-44169072D01*
X122240295Y-44230295D01*
X122179072Y-44321920D01*
X122157574Y-44430000D01*
X122157574Y-46130000D01*
X122179072Y-46238080D01*
X122240295Y-46329705D01*
X122331920Y-46390928D01*
X122440000Y-46412426D01*
X122513000Y-46412426D01*
X122513001Y-49640998D01*
X122420843Y-49733156D01*
X122333000Y-49945228D01*
X122333000Y-50174772D01*
X122420843Y-50386844D01*
X122583156Y-50549157D01*
X122795228Y-50637000D01*
X123024772Y-50637000D01*
X123236844Y-50549157D01*
X123399157Y-50386844D01*
X123487000Y-50174772D01*
X123487000Y-49945228D01*
X123399157Y-49733156D01*
X123267000Y-49600999D01*
X123267000Y-49567135D01*
X124753000Y-49567135D01*
X124793731Y-49771905D01*
X124948887Y-50004112D01*
X125181094Y-50159269D01*
X125455000Y-50213752D01*
X125728905Y-50159269D01*
X125961112Y-50004113D01*
X126116269Y-49771906D01*
X126157000Y-49567136D01*
X126157000Y-49509913D01*
X127177692Y-49509913D01*
X127204905Y-49716796D01*
X127604137Y-49846279D01*
X127683000Y-49840030D01*
X127683000Y-49916642D01*
X127789112Y-50172819D01*
X127985181Y-50368888D01*
X128241358Y-50475000D01*
X128518642Y-50475000D01*
X128774819Y-50368888D01*
X128970888Y-50172819D01*
X129030000Y-50030110D01*
X129089112Y-50172819D01*
X129285181Y-50368888D01*
X129541358Y-50475000D01*
X129818642Y-50475000D01*
X130074819Y-50368888D01*
X130270888Y-50172819D01*
X130377000Y-49916642D01*
X130377000Y-49639358D01*
X130347085Y-49567135D01*
X131903000Y-49567135D01*
X131943731Y-49771905D01*
X132098887Y-50004112D01*
X132331094Y-50159269D01*
X132605000Y-50213752D01*
X132878905Y-50159269D01*
X133111112Y-50004113D01*
X133266269Y-49771906D01*
X133307000Y-49567136D01*
X133307000Y-48428864D01*
X133266269Y-48224094D01*
X133111113Y-47991887D01*
X132878906Y-47836731D01*
X132605000Y-47782248D01*
X132331095Y-47836731D01*
X132098888Y-47991887D01*
X131943732Y-48224094D01*
X131903001Y-48428864D01*
X131903000Y-49567135D01*
X130347085Y-49567135D01*
X130311168Y-49480426D01*
X130750000Y-49480426D01*
X130858080Y-49458928D01*
X130949705Y-49397705D01*
X131010928Y-49306080D01*
X131032426Y-49198000D01*
X131032426Y-48358000D01*
X131010928Y-48249920D01*
X130949705Y-48158295D01*
X130858080Y-48097072D01*
X130750000Y-48075574D01*
X129910000Y-48075574D01*
X129801920Y-48097072D01*
X129710295Y-48158295D01*
X129649072Y-48249920D01*
X129627574Y-48358000D01*
X129627574Y-48399322D01*
X129620888Y-48383181D01*
X129424819Y-48187112D01*
X129168642Y-48081000D01*
X128891358Y-48081000D01*
X128635181Y-48187112D01*
X128580944Y-48241349D01*
X128461913Y-48225692D01*
X127909605Y-48778000D01*
X127923748Y-48792143D01*
X127744143Y-48971748D01*
X127730000Y-48957605D01*
X127177692Y-49509913D01*
X126157000Y-49509913D01*
X126157000Y-48652137D01*
X126661721Y-48652137D01*
X126694873Y-49070531D01*
X126791204Y-49303095D01*
X126998087Y-49330308D01*
X127550395Y-48778000D01*
X126998087Y-48225692D01*
X126791204Y-48252905D01*
X126661721Y-48652137D01*
X126157000Y-48652137D01*
X126157000Y-48428864D01*
X126116269Y-48224094D01*
X125997329Y-48046087D01*
X127177692Y-48046087D01*
X127730000Y-48598395D01*
X128282308Y-48046087D01*
X128255095Y-47839204D01*
X127855863Y-47709721D01*
X127437469Y-47742873D01*
X127204905Y-47839204D01*
X127177692Y-48046087D01*
X125997329Y-48046087D01*
X125961113Y-47991887D01*
X125728906Y-47836731D01*
X125455000Y-47782248D01*
X125181095Y-47836731D01*
X124948888Y-47991887D01*
X124793732Y-48224094D01*
X124753001Y-48428864D01*
X124753000Y-49567135D01*
X123267000Y-49567135D01*
X123267000Y-46412426D01*
X123340000Y-46412426D01*
X123448080Y-46390928D01*
X123539705Y-46329705D01*
X123600928Y-46238080D01*
X123622426Y-46130000D01*
X123622426Y-44430000D01*
X123600928Y-44321920D01*
X123585152Y-44298310D01*
X126227168Y-46940326D01*
X126248199Y-46971801D01*
X126372902Y-47055125D01*
X126482874Y-47077000D01*
X126482877Y-47077000D01*
X126520000Y-47084384D01*
X126557122Y-47077000D01*
X135043842Y-47077000D01*
X135106468Y-47139627D01*
X134963000Y-47485989D01*
X134963000Y-47994011D01*
X135157412Y-48463362D01*
X135516638Y-48822588D01*
X135985989Y-49017000D01*
X136494011Y-49017000D01*
X136963362Y-48822588D01*
X137322588Y-48463362D01*
X137466056Y-48117000D01*
X141513944Y-48117000D01*
X141657412Y-48463362D01*
X142016638Y-48822588D01*
X142485989Y-49017000D01*
X142994011Y-49017000D01*
X143463362Y-48822588D01*
X143822588Y-48463362D01*
X144017000Y-47994011D01*
X144017000Y-47485989D01*
X143822588Y-47016638D01*
X143463362Y-46657412D01*
X142994011Y-46463000D01*
X142485989Y-46463000D01*
X142016638Y-46657412D01*
X141657412Y-47016638D01*
X141513944Y-47363000D01*
X137466056Y-47363000D01*
X137322588Y-47016638D01*
X136963362Y-46657412D01*
X136494011Y-46463000D01*
X135985989Y-46463000D01*
X135639627Y-46606468D01*
X135492831Y-46459673D01*
X135471801Y-46428199D01*
X135347098Y-46344875D01*
X135237126Y-46323000D01*
X135237122Y-46323000D01*
X135200000Y-46315616D01*
X135162878Y-46323000D01*
X126676158Y-46323000D01*
X124745690Y-44392532D01*
X135267073Y-44392532D01*
X135365736Y-44659387D01*
X135975461Y-44885908D01*
X136625460Y-44861856D01*
X137114264Y-44659387D01*
X137212927Y-44392532D01*
X136240000Y-43419605D01*
X135267073Y-44392532D01*
X124745690Y-44392532D01*
X123067419Y-42714261D01*
X129154641Y-42714261D01*
X129252761Y-43270728D01*
X129535287Y-43760076D01*
X129968141Y-44123284D01*
X130499115Y-44316543D01*
X131064167Y-44316543D01*
X131595141Y-44123284D01*
X132027995Y-43760076D01*
X132310521Y-43270728D01*
X132362584Y-42975461D01*
X134594092Y-42975461D01*
X134618144Y-43625460D01*
X134820613Y-44114264D01*
X135087468Y-44212927D01*
X136060395Y-43240000D01*
X136419605Y-43240000D01*
X137392532Y-44212927D01*
X137659387Y-44114264D01*
X137885908Y-43504539D01*
X137861856Y-42854540D01*
X137659387Y-42365736D01*
X137392532Y-42267073D01*
X136419605Y-43240000D01*
X136060395Y-43240000D01*
X135087468Y-42267073D01*
X134820613Y-42365736D01*
X134594092Y-42975461D01*
X132362584Y-42975461D01*
X132408641Y-42714261D01*
X132310521Y-42157794D01*
X132027995Y-41668446D01*
X131595141Y-41305238D01*
X131064167Y-41111979D01*
X130499115Y-41111979D01*
X129968141Y-41305238D01*
X129535287Y-41668446D01*
X129252761Y-42157794D01*
X129154641Y-42714261D01*
X123067419Y-42714261D01*
X122487832Y-42134674D01*
X122466801Y-42103199D01*
X122342098Y-42019875D01*
X122232126Y-41998000D01*
X122232122Y-41998000D01*
X122195000Y-41990616D01*
X122157878Y-41998000D01*
X112357122Y-41998000D01*
X112320000Y-41990616D01*
X112282877Y-41998000D01*
X112282874Y-41998000D01*
X112172902Y-42019875D01*
X112079672Y-42082169D01*
X112079671Y-42082170D01*
X112048199Y-42103199D01*
X112027170Y-42134671D01*
X107529676Y-46632166D01*
X107498201Y-46653197D01*
X107414877Y-46777901D01*
X107393002Y-46887873D01*
X107393002Y-46887876D01*
X107385618Y-46924998D01*
X107393002Y-46962120D01*
X107393003Y-54528606D01*
X107393002Y-54528611D01*
X107393002Y-54550999D01*
X107375001Y-54569000D01*
X107277000Y-54470999D01*
X107277000Y-45856158D01*
X111731159Y-41402000D01*
X125212866Y-41402000D01*
X125249988Y-41409384D01*
X125287110Y-41402000D01*
X125287114Y-41402000D01*
X125397086Y-41380125D01*
X125521789Y-41296801D01*
X125542820Y-41265326D01*
X126950330Y-39857817D01*
X126981801Y-39836789D01*
X127019747Y-39780000D01*
X127065125Y-39712086D01*
X127070380Y-39685666D01*
X127087000Y-39602114D01*
X127087000Y-39602111D01*
X127094384Y-39564988D01*
X127087000Y-39527866D01*
X127087000Y-38059895D01*
X127150000Y-38072426D01*
X129450000Y-38072426D01*
X129558080Y-38050928D01*
X129649705Y-37989705D01*
X129710928Y-37898080D01*
X129732426Y-37790000D01*
X129732426Y-35490000D01*
X129710928Y-35381920D01*
X129694277Y-35357000D01*
X131168504Y-35357000D01*
X130991669Y-35430247D01*
X130590247Y-35831669D01*
X130373000Y-36356152D01*
X130373000Y-36923848D01*
X130590247Y-37448331D01*
X130991669Y-37849753D01*
X131516152Y-38067000D01*
X132083848Y-38067000D01*
X132608331Y-37849753D01*
X133009753Y-37448331D01*
X133227000Y-36923848D01*
X133227000Y-36356152D01*
X133010631Y-35833790D01*
X135863000Y-38686159D01*
X135863000Y-39213944D01*
X135516638Y-39357412D01*
X135157412Y-39716638D01*
X134963000Y-40185989D01*
X134963000Y-40694011D01*
X135157412Y-41163362D01*
X135516638Y-41522588D01*
X135800935Y-41640348D01*
X135365736Y-41820613D01*
X135267073Y-42087468D01*
X136240000Y-43060395D01*
X137212927Y-42087468D01*
X137114264Y-41820613D01*
X136655415Y-41650144D01*
X136963362Y-41522588D01*
X137322588Y-41163362D01*
X137466056Y-40817000D01*
X141513944Y-40817000D01*
X141606468Y-41040373D01*
X140379672Y-42267170D01*
X140348200Y-42288199D01*
X140327171Y-42319671D01*
X140327169Y-42319673D01*
X140264875Y-42412903D01*
X140235616Y-42560000D01*
X140243001Y-42597127D01*
X140243000Y-46030999D01*
X140130843Y-46143156D01*
X140043000Y-46355228D01*
X140043000Y-46584772D01*
X140130843Y-46796844D01*
X140293156Y-46959157D01*
X140505228Y-47047000D01*
X140734772Y-47047000D01*
X140946844Y-46959157D01*
X141109157Y-46796844D01*
X141197000Y-46584772D01*
X141197000Y-46355228D01*
X141109157Y-46143156D01*
X141036001Y-46070000D01*
X153197574Y-46070000D01*
X153197574Y-48070000D01*
X153219072Y-48178080D01*
X153280295Y-48269705D01*
X153371920Y-48330928D01*
X153480000Y-48352426D01*
X156680000Y-48352426D01*
X156788080Y-48330928D01*
X156879705Y-48269705D01*
X156940928Y-48178080D01*
X156962426Y-48070000D01*
X156962426Y-46070000D01*
X156940928Y-45961920D01*
X156879705Y-45870295D01*
X156788080Y-45809072D01*
X156680000Y-45787574D01*
X153480000Y-45787574D01*
X153371920Y-45809072D01*
X153280295Y-45870295D01*
X153219072Y-45961920D01*
X153197574Y-46070000D01*
X141036001Y-46070000D01*
X140997000Y-46030999D01*
X140997000Y-44392532D01*
X141767073Y-44392532D01*
X141865736Y-44659387D01*
X142475461Y-44885908D01*
X143125460Y-44861856D01*
X143614264Y-44659387D01*
X143712927Y-44392532D01*
X142740000Y-43419605D01*
X141767073Y-44392532D01*
X140997000Y-44392532D01*
X140997000Y-42716158D01*
X141304765Y-42408393D01*
X141094092Y-42975461D01*
X141118144Y-43625460D01*
X141320613Y-44114264D01*
X141587468Y-44212927D01*
X142560395Y-43240000D01*
X142919605Y-43240000D01*
X143892532Y-44212927D01*
X144159387Y-44114264D01*
X144385908Y-43504539D01*
X144361856Y-42854540D01*
X144159387Y-42365736D01*
X143892532Y-42267073D01*
X142919605Y-43240000D01*
X142560395Y-43240000D01*
X142546253Y-43225858D01*
X142725858Y-43046253D01*
X142740000Y-43060395D01*
X143712927Y-42087468D01*
X143614264Y-41820613D01*
X143155415Y-41650144D01*
X143463362Y-41522588D01*
X143780489Y-41205461D01*
X145934092Y-41205461D01*
X145958144Y-41855460D01*
X146160613Y-42344264D01*
X146427468Y-42442927D01*
X147400395Y-41470000D01*
X146427468Y-40497073D01*
X146160613Y-40595736D01*
X145934092Y-41205461D01*
X143780489Y-41205461D01*
X143822588Y-41163362D01*
X144017000Y-40694011D01*
X144017000Y-40185989D01*
X143822588Y-39716638D01*
X143463362Y-39357412D01*
X142994011Y-39163000D01*
X142485989Y-39163000D01*
X142016638Y-39357412D01*
X141657412Y-39716638D01*
X141513944Y-40063000D01*
X137466056Y-40063000D01*
X137322588Y-39716638D01*
X136963362Y-39357412D01*
X136617000Y-39213944D01*
X136617000Y-38567122D01*
X136624384Y-38529999D01*
X136617000Y-38492875D01*
X136617000Y-38492874D01*
X136595125Y-38382902D01*
X136511801Y-38258199D01*
X136480330Y-38237171D01*
X135742530Y-37499371D01*
X135975461Y-37585908D01*
X136625460Y-37561856D01*
X137114264Y-37359387D01*
X137212927Y-37092532D01*
X141767073Y-37092532D01*
X141865736Y-37359387D01*
X142475461Y-37585908D01*
X143125460Y-37561856D01*
X143614264Y-37359387D01*
X143712927Y-37092532D01*
X142740000Y-36119605D01*
X141767073Y-37092532D01*
X137212927Y-37092532D01*
X136240000Y-36119605D01*
X136225858Y-36133748D01*
X136046253Y-35954143D01*
X136060395Y-35940000D01*
X136046253Y-35925858D01*
X136225858Y-35746253D01*
X136240000Y-35760395D01*
X136254143Y-35746253D01*
X136433748Y-35925858D01*
X136419605Y-35940000D01*
X137392532Y-36912927D01*
X137659387Y-36814264D01*
X137885908Y-36204539D01*
X137861856Y-35554540D01*
X137659387Y-35065736D01*
X137392534Y-34967074D01*
X137462608Y-34897000D01*
X141517392Y-34897000D01*
X141587466Y-34967074D01*
X141320613Y-35065736D01*
X141094092Y-35675461D01*
X141118144Y-36325460D01*
X141320613Y-36814264D01*
X141587468Y-36912927D01*
X142560395Y-35940000D01*
X142546253Y-35925858D01*
X142725858Y-35746253D01*
X142740000Y-35760395D01*
X142754143Y-35746253D01*
X142933748Y-35925858D01*
X142919605Y-35940000D01*
X143892532Y-36912927D01*
X144159387Y-36814264D01*
X144385908Y-36204539D01*
X144361856Y-35554540D01*
X144159387Y-35065736D01*
X143892534Y-34967074D01*
X143962608Y-34897000D01*
X146013842Y-34897000D01*
X147203000Y-36086159D01*
X147203001Y-37687574D01*
X146580000Y-37687574D01*
X146471920Y-37709072D01*
X146380295Y-37770295D01*
X146319072Y-37861920D01*
X146297574Y-37970000D01*
X146297574Y-39970000D01*
X146319072Y-40078080D01*
X146380295Y-40169705D01*
X146471920Y-40230928D01*
X146580000Y-40252426D01*
X146631121Y-40252426D01*
X146607073Y-40317468D01*
X147580000Y-41290395D01*
X148552927Y-40317468D01*
X148528879Y-40252426D01*
X148580000Y-40252426D01*
X148688080Y-40230928D01*
X148779705Y-40169705D01*
X148840928Y-40078080D01*
X148862426Y-39970000D01*
X148862426Y-37970000D01*
X148840928Y-37861920D01*
X148779705Y-37770295D01*
X148688080Y-37709072D01*
X148580000Y-37687574D01*
X147957000Y-37687574D01*
X147957000Y-35995158D01*
X149768000Y-37806159D01*
X149768001Y-41248840D01*
X149192572Y-41824269D01*
X149225908Y-41734539D01*
X149201856Y-41084540D01*
X148999387Y-40595736D01*
X148732532Y-40497073D01*
X147759605Y-41470000D01*
X147773748Y-41484143D01*
X147594143Y-41663748D01*
X147580000Y-41649605D01*
X146607073Y-42622532D01*
X146705736Y-42889387D01*
X146814322Y-42929728D01*
X146497412Y-43246638D01*
X146303000Y-43715989D01*
X146303000Y-44224011D01*
X146497412Y-44693362D01*
X146856638Y-45052588D01*
X147325989Y-45247000D01*
X147834011Y-45247000D01*
X148303362Y-45052588D01*
X148662588Y-44693362D01*
X148857000Y-44224011D01*
X148857000Y-43715989D01*
X148713532Y-43369627D01*
X150385329Y-41697830D01*
X150416801Y-41676801D01*
X150455995Y-41618144D01*
X150500125Y-41552098D01*
X150516455Y-41470000D01*
X150522000Y-41442126D01*
X150522000Y-41442123D01*
X150529384Y-41405000D01*
X150522000Y-41367878D01*
X150522000Y-37687122D01*
X150529384Y-37649999D01*
X150522000Y-37612875D01*
X150522000Y-37612874D01*
X150500125Y-37502902D01*
X150416801Y-37378199D01*
X150385330Y-37357171D01*
X146965158Y-33937000D01*
X147168832Y-33937000D01*
X157442160Y-44210329D01*
X157463189Y-44241801D01*
X157494661Y-44262830D01*
X157494662Y-44262831D01*
X157555812Y-44303690D01*
X157587892Y-44325125D01*
X157697864Y-44347000D01*
X157697867Y-44347000D01*
X157734989Y-44354384D01*
X157772112Y-44347000D01*
X160853944Y-44347000D01*
X160997412Y-44693362D01*
X161356638Y-45052588D01*
X161825989Y-45247000D01*
X162334011Y-45247000D01*
X162803362Y-45052588D01*
X163162588Y-44693362D01*
X163357000Y-44224011D01*
X163357000Y-43715989D01*
X163162588Y-43246638D01*
X162803362Y-42887412D01*
X162334011Y-42693000D01*
X161825989Y-42693000D01*
X161356638Y-42887412D01*
X160997412Y-43246638D01*
X160853944Y-43593000D01*
X157891149Y-43593000D01*
X154420681Y-40122532D01*
X161107073Y-40122532D01*
X161205736Y-40389387D01*
X161815461Y-40615908D01*
X162465460Y-40591856D01*
X162954264Y-40389387D01*
X163052927Y-40122532D01*
X162080000Y-39149605D01*
X161107073Y-40122532D01*
X154420681Y-40122532D01*
X153003610Y-38705461D01*
X160434092Y-38705461D01*
X160458144Y-39355460D01*
X160660613Y-39844264D01*
X160927468Y-39942927D01*
X161900395Y-38970000D01*
X162259605Y-38970000D01*
X163232532Y-39942927D01*
X163499387Y-39844264D01*
X163725908Y-39234539D01*
X163701856Y-38584540D01*
X163499387Y-38095736D01*
X163232532Y-37997073D01*
X162259605Y-38970000D01*
X161900395Y-38970000D01*
X160927468Y-37997073D01*
X160660613Y-38095736D01*
X160434092Y-38705461D01*
X153003610Y-38705461D01*
X152115617Y-37817468D01*
X161107073Y-37817468D01*
X162080000Y-38790395D01*
X163052927Y-37817468D01*
X162954264Y-37550613D01*
X162344539Y-37324092D01*
X161694540Y-37348144D01*
X161205736Y-37550613D01*
X161107073Y-37817468D01*
X152115617Y-37817468D01*
X149168149Y-34870000D01*
X153197574Y-34870000D01*
X153197574Y-36870000D01*
X153219072Y-36978080D01*
X153280295Y-37069705D01*
X153371920Y-37130928D01*
X153480000Y-37152426D01*
X156680000Y-37152426D01*
X156788080Y-37130928D01*
X156879705Y-37069705D01*
X156940928Y-36978080D01*
X156962426Y-36870000D01*
X156962426Y-34870000D01*
X156940928Y-34761920D01*
X156879705Y-34670295D01*
X156788080Y-34609072D01*
X156680000Y-34587574D01*
X153480000Y-34587574D01*
X153371920Y-34609072D01*
X153280295Y-34670295D01*
X153219072Y-34761920D01*
X153197574Y-34870000D01*
X149168149Y-34870000D01*
X147617822Y-33319674D01*
X147596791Y-33288199D01*
X147472088Y-33204875D01*
X147362116Y-33183000D01*
X147362112Y-33183000D01*
X147324990Y-33175616D01*
X147287868Y-33183000D01*
X126297122Y-33183000D01*
X126259999Y-33175616D01*
X126222877Y-33183000D01*
X126222874Y-33183000D01*
X126112902Y-33204875D01*
X126019672Y-33267169D01*
X126019671Y-33267170D01*
X125988199Y-33288199D01*
X125967170Y-33319671D01*
X125129672Y-34157170D01*
X125098200Y-34178199D01*
X125077171Y-34209671D01*
X125077169Y-34209673D01*
X125014875Y-34302903D01*
X124985616Y-34450000D01*
X124993001Y-34487127D01*
X124993000Y-39073842D01*
X124952426Y-39114416D01*
X124952426Y-37550000D01*
X124930928Y-37441920D01*
X124869705Y-37350295D01*
X124778080Y-37289072D01*
X124670000Y-37267574D01*
X122870000Y-37267574D01*
X122761920Y-37289072D01*
X122670295Y-37350295D01*
X122609072Y-37441920D01*
X122587574Y-37550000D01*
X122587574Y-39350000D01*
X122598116Y-39403000D01*
X121941530Y-39403000D01*
X122227813Y-39116717D01*
X122407000Y-38684120D01*
X122407000Y-38215880D01*
X122227813Y-37783283D01*
X121896717Y-37452187D01*
X121464120Y-37273000D01*
X120995880Y-37273000D01*
X120706163Y-37393004D01*
X120622834Y-37309676D01*
X120622832Y-37309673D01*
X117602832Y-34289674D01*
X117581801Y-34258199D01*
X117457098Y-34174875D01*
X117347126Y-34153000D01*
X117347122Y-34153000D01*
X117310000Y-34145616D01*
X117272878Y-34153000D01*
X103727120Y-34153000D01*
X103689998Y-34145616D01*
X103652875Y-34153000D01*
X103652872Y-34153000D01*
X103542900Y-34174875D01*
X103418197Y-34258199D01*
X103397166Y-34289674D01*
X100769662Y-36917178D01*
X100738190Y-36938207D01*
X100717161Y-36969679D01*
X100717159Y-36969681D01*
X100654865Y-37062911D01*
X100625606Y-37210008D01*
X100347000Y-37210008D01*
X100347000Y-35510743D01*
X100420241Y-34882539D01*
X100628913Y-34307658D01*
X100964237Y-33796204D01*
X101408227Y-33375608D01*
X101937069Y-33068432D01*
X102527070Y-32889737D01*
X103005904Y-32847003D01*
X161969260Y-32847003D01*
X162597464Y-32920244D01*
X162597464Y-32920244D01*
G37*
X162597464Y-32920244D02*
X163172345Y-33128916D01*
X163683799Y-33464240D01*
X164104395Y-33908230D01*
X164411571Y-34437072D01*
X164590266Y-35027073D01*
X164633001Y-35505918D01*
X164633001Y-63939157D01*
X159173538Y-58479695D01*
X159130186Y-58414814D01*
X158873170Y-58243082D01*
X158646526Y-58198000D01*
X158646525Y-58198000D01*
X158570000Y-58182778D01*
X158493475Y-58198000D01*
X157782426Y-58198000D01*
X157782426Y-58080000D01*
X157760928Y-57971920D01*
X157699705Y-57880295D01*
X157608080Y-57819072D01*
X157500000Y-57797574D01*
X155500000Y-57797574D01*
X155391920Y-57819072D01*
X155300295Y-57880295D01*
X155239072Y-57971920D01*
X155222009Y-58057704D01*
X155222008Y-56766602D01*
X155237231Y-56690071D01*
X155176927Y-56386900D01*
X155048543Y-56194761D01*
X155048542Y-56194760D01*
X155005194Y-56129885D01*
X154940319Y-56086537D01*
X152833466Y-53979685D01*
X152790114Y-53914804D01*
X152533098Y-53743072D01*
X152306454Y-53697990D01*
X152306453Y-53697990D01*
X152229928Y-53682768D01*
X152153403Y-53697990D01*
X148161598Y-53697990D01*
X148085072Y-53682768D01*
X147781901Y-53743072D01*
X147729628Y-53778000D01*
X147524886Y-53914804D01*
X147481536Y-53979682D01*
X136249695Y-65211524D01*
X136184814Y-65254876D01*
X136013082Y-65511893D01*
X135997316Y-65591157D01*
X135952778Y-65815062D01*
X135968000Y-65891587D01*
X135968000Y-66346997D01*
X123789188Y-54168185D01*
X127479508Y-54168185D01*
X127484349Y-54784523D01*
X127688571Y-55366064D01*
X128070155Y-55850100D01*
X128587952Y-56184437D01*
X129186131Y-56333026D01*
X129800190Y-56279843D01*
X130363915Y-56030622D01*
X130816520Y-55612239D01*
X131109201Y-55069805D01*
X131210399Y-54461812D01*
X131210167Y-54432329D01*
X131099432Y-53826001D01*
X130798267Y-53288232D01*
X130339146Y-52877008D01*
X129771576Y-52636674D01*
X129156758Y-52593142D01*
X128560987Y-52751108D01*
X128048504Y-53093538D01*
X127674571Y-53583508D01*
X127479508Y-54168185D01*
X123789188Y-54168185D01*
X123753190Y-54132188D01*
X123720996Y-54084006D01*
X123530136Y-53956478D01*
X123361831Y-53923000D01*
X123361830Y-53923000D01*
X123305002Y-53911696D01*
X123248174Y-53923000D01*
X116774062Y-53923000D01*
X116738980Y-53887918D01*
X116473615Y-53778000D01*
X116186385Y-53778000D01*
X115921020Y-53887918D01*
X115717918Y-54091020D01*
X115608000Y-54356385D01*
X115608000Y-54643615D01*
X115717918Y-54908980D01*
X115921020Y-55112082D01*
X116186385Y-55222000D01*
X116473615Y-55222000D01*
X116738980Y-55112082D01*
X116774062Y-55077000D01*
X123066002Y-55077000D01*
X133731984Y-65742983D01*
X133568156Y-65810843D01*
X133455999Y-65923000D01*
X119412159Y-65923000D01*
X118635000Y-65145842D01*
X118635000Y-64987228D01*
X118547157Y-64775156D01*
X118384844Y-64612843D01*
X118172772Y-64525000D01*
X117943228Y-64525000D01*
X117731156Y-64612843D01*
X117568843Y-64775156D01*
X117481000Y-64987228D01*
X117481000Y-65216772D01*
X117568843Y-65428844D01*
X117731156Y-65591157D01*
X117943228Y-65679000D01*
X118101842Y-65679000D01*
X118963170Y-66540329D01*
X118984199Y-66571801D01*
X119015671Y-66592830D01*
X119015672Y-66592831D01*
X119108902Y-66655125D01*
X119218874Y-66677000D01*
X119218877Y-66677000D01*
X119256000Y-66684384D01*
X119293122Y-66677000D01*
X133455999Y-66677000D01*
X133568156Y-66789157D01*
X133780228Y-66877000D01*
X134009772Y-66877000D01*
X134221844Y-66789157D01*
X134384157Y-66626844D01*
X134452017Y-66463016D01*
X135981816Y-67992815D01*
X136014008Y-68040994D01*
X136204868Y-68168522D01*
X136373173Y-68202000D01*
X136430001Y-68213304D01*
X136486829Y-68202000D01*
X138558172Y-68202000D01*
X138615000Y-68213304D01*
X138671828Y-68202000D01*
X138671829Y-68202000D01*
X138840134Y-68168522D01*
X139030994Y-68040994D01*
X139063188Y-67992812D01*
X143463185Y-63592816D01*
X143463186Y-63592814D01*
X143554001Y-63502000D01*
X143603615Y-63502000D01*
X143868980Y-63392082D01*
X143904062Y-63357000D01*
X148513171Y-63357000D01*
X148570000Y-63368304D01*
X148626829Y-63357000D01*
X150831000Y-63357000D01*
X152953000Y-65479001D01*
X152953000Y-67400233D01*
X152778615Y-67328000D01*
X152491385Y-67328000D01*
X152226020Y-67437918D01*
X152022918Y-67641020D01*
X151913000Y-67906385D01*
X151913000Y-68193615D01*
X152022918Y-68458980D01*
X152058001Y-68494063D01*
X152058000Y-70856674D01*
X149902186Y-73012489D01*
X149902183Y-73012491D01*
X149352186Y-73562489D01*
X149304007Y-73594681D01*
X149176478Y-73785541D01*
X149143000Y-73953846D01*
X149131696Y-74010675D01*
X149143000Y-74067503D01*
X149143000Y-74195938D01*
X149107918Y-74231020D01*
X148998000Y-74496385D01*
X148998000Y-74546000D01*
X148932186Y-74611814D01*
X148884007Y-74644006D01*
X148804106Y-74763587D01*
X148756479Y-74834866D01*
X148711696Y-75060000D01*
X148723001Y-75116832D01*
X148723000Y-76415938D01*
X148687918Y-76451020D01*
X148578000Y-76716385D01*
X148578000Y-77003615D01*
X148687918Y-77268980D01*
X148723001Y-77304063D01*
X148723000Y-80996999D01*
X148596844Y-80870843D01*
X148384772Y-80783000D01*
X148155228Y-80783000D01*
X147943156Y-80870843D01*
X147780843Y-81033156D01*
X147693000Y-81245228D01*
X147693000Y-81262421D01*
X144722421Y-84233000D01*
X144394825Y-84233000D01*
X144387415Y-84221910D01*
X144163477Y-84072280D01*
X143966003Y-84033000D01*
X143966001Y-84033000D01*
X143899325Y-84019737D01*
X143832649Y-84033000D01*
X143522254Y-84033000D01*
X143413615Y-83988000D01*
X143126385Y-83988000D01*
X142861020Y-84097918D01*
X142657918Y-84301020D01*
X142612918Y-84409661D01*
X140489579Y-86533000D01*
X126772254Y-86533000D01*
X126663615Y-86488000D01*
X126376385Y-86488000D01*
X126267746Y-86533000D01*
X117950423Y-86533000D01*
X113157000Y-81739579D01*
X113157000Y-77615228D01*
X136693000Y-77615228D01*
X136693000Y-77844772D01*
X136780843Y-78056844D01*
X136943156Y-78219157D01*
X137155228Y-78307000D01*
X137384772Y-78307000D01*
X137596844Y-78219157D01*
X137709001Y-78107000D01*
X144793000Y-78107000D01*
X144793000Y-78184772D01*
X144880843Y-78396844D01*
X145043156Y-78559157D01*
X145255228Y-78647000D01*
X145484772Y-78647000D01*
X145696844Y-78559157D01*
X145859157Y-78396844D01*
X145947000Y-78184772D01*
X145947000Y-77955228D01*
X145859157Y-77743156D01*
X145696844Y-77580843D01*
X145484772Y-77493000D01*
X145326158Y-77493000D01*
X145322832Y-77489674D01*
X145301801Y-77458199D01*
X145177098Y-77374875D01*
X145067126Y-77353000D01*
X145067122Y-77353000D01*
X145030000Y-77345616D01*
X144992878Y-77353000D01*
X137709001Y-77353000D01*
X137596844Y-77240843D01*
X137384772Y-77153000D01*
X137155228Y-77153000D01*
X136943156Y-77240843D01*
X136780843Y-77403156D01*
X136693000Y-77615228D01*
X113157000Y-77615228D01*
X113157000Y-75583228D01*
X146231000Y-75583228D01*
X146231000Y-75812772D01*
X146318843Y-76024844D01*
X146481156Y-76187157D01*
X146693228Y-76275000D01*
X146922772Y-76275000D01*
X147134844Y-76187157D01*
X147297157Y-76024844D01*
X147323001Y-75962452D01*
X147323001Y-76172420D01*
X146712421Y-76783000D01*
X146695228Y-76783000D01*
X146483156Y-76870843D01*
X146320843Y-77033156D01*
X146233000Y-77245228D01*
X146233000Y-77474772D01*
X146320843Y-77686844D01*
X146483156Y-77849157D01*
X146695228Y-77937000D01*
X146924772Y-77937000D01*
X147136844Y-77849157D01*
X147299157Y-77686844D01*
X147387000Y-77474772D01*
X147387000Y-77457579D01*
X148104071Y-76740508D01*
X148143897Y-76713897D01*
X148249323Y-76556116D01*
X148277000Y-76416975D01*
X148277000Y-76416971D01*
X148286343Y-76370001D01*
X148277000Y-76323031D01*
X148277000Y-74511843D01*
X149164074Y-73624770D01*
X149203897Y-73598161D01*
X149309323Y-73440380D01*
X149337000Y-73301238D01*
X149337000Y-73301235D01*
X149346343Y-73254265D01*
X149337000Y-73207295D01*
X149337000Y-73169001D01*
X149349157Y-73156844D01*
X149437000Y-72944772D01*
X149437000Y-72927579D01*
X151362580Y-71002000D01*
X151584772Y-71002000D01*
X151796844Y-70914157D01*
X151959157Y-70751844D01*
X152047000Y-70539772D01*
X152047000Y-70310228D01*
X151959157Y-70098156D01*
X151796844Y-69935843D01*
X151584772Y-69848000D01*
X151355228Y-69848000D01*
X151143156Y-69935843D01*
X151109390Y-69969609D01*
X151078884Y-69975677D01*
X150921103Y-70081103D01*
X150894494Y-70120926D01*
X148762421Y-72253000D01*
X148745228Y-72253000D01*
X148533156Y-72340843D01*
X148370843Y-72503156D01*
X148355208Y-72540902D01*
X148269157Y-72333156D01*
X148106844Y-72170843D01*
X147894772Y-72083000D01*
X147665228Y-72083000D01*
X147453156Y-72170843D01*
X147290843Y-72333156D01*
X147203000Y-72545228D01*
X147203000Y-72703842D01*
X146567674Y-73339168D01*
X146536199Y-73360199D01*
X146452875Y-73484903D01*
X146431000Y-73594875D01*
X146431000Y-73594878D01*
X146423616Y-73632000D01*
X146431000Y-73669123D01*
X146431001Y-75258998D01*
X146318843Y-75371156D01*
X146231000Y-75583228D01*
X113157000Y-75583228D01*
X113157000Y-73640421D01*
X115735423Y-71061999D01*
X119208325Y-71061999D01*
X119275001Y-71075262D01*
X119341677Y-71061999D01*
X119341679Y-71061999D01*
X119539153Y-71022719D01*
X119763091Y-70873089D01*
X119800864Y-70816557D01*
X120020340Y-70597082D01*
X120128980Y-70552082D01*
X120332082Y-70348980D01*
X120410798Y-70158944D01*
X124217182Y-73965329D01*
X124238211Y-73996801D01*
X124269683Y-74017830D01*
X124269684Y-74017831D01*
X124318222Y-74050263D01*
X124362914Y-74080125D01*
X124472886Y-74102000D01*
X124472889Y-74102000D01*
X124510011Y-74109384D01*
X124547134Y-74102000D01*
X132181880Y-74102000D01*
X132219002Y-74109384D01*
X132256124Y-74102000D01*
X132256128Y-74102000D01*
X132366100Y-74080125D01*
X132490803Y-73996801D01*
X132511834Y-73965326D01*
X136275161Y-70202000D01*
X143207878Y-70202000D01*
X143245000Y-70209384D01*
X143282122Y-70202000D01*
X143282126Y-70202000D01*
X143392098Y-70180125D01*
X143516801Y-70096801D01*
X143537832Y-70065326D01*
X143826158Y-69777000D01*
X143984772Y-69777000D01*
X144196844Y-69689157D01*
X144359157Y-69526844D01*
X144447000Y-69314772D01*
X144447000Y-69085228D01*
X144359157Y-68873156D01*
X144196844Y-68710843D01*
X143984772Y-68623000D01*
X143755228Y-68623000D01*
X143543156Y-68710843D01*
X143380843Y-68873156D01*
X143293000Y-69085228D01*
X143293000Y-69243842D01*
X143088842Y-69448000D01*
X136156124Y-69448000D01*
X136119002Y-69440616D01*
X136081879Y-69448000D01*
X136081876Y-69448000D01*
X135971904Y-69469875D01*
X135878674Y-69532169D01*
X135878673Y-69532170D01*
X135847201Y-69553199D01*
X135826172Y-69584671D01*
X133013874Y-72396970D01*
X132979157Y-72313156D01*
X132816844Y-72150843D01*
X132604772Y-72063000D01*
X132375228Y-72063000D01*
X132163156Y-72150843D01*
X132000843Y-72313156D01*
X131913000Y-72525228D01*
X131913000Y-72683842D01*
X131763842Y-72833000D01*
X124646159Y-72833000D01*
X120002832Y-68189674D01*
X119981801Y-68158199D01*
X119857098Y-68074875D01*
X119747126Y-68053000D01*
X119747122Y-68053000D01*
X119710000Y-68045616D01*
X119672878Y-68053000D01*
X106030423Y-68053000D01*
X105117096Y-67139674D01*
X105096065Y-67108199D01*
X104971362Y-67024875D01*
X104861390Y-67003000D01*
X104861386Y-67003000D01*
X104833443Y-66997442D01*
X104726844Y-66890843D01*
X104514772Y-66803000D01*
X104285228Y-66803000D01*
X104073156Y-66890843D01*
X103910843Y-67053156D01*
X103823000Y-67265228D01*
X103823000Y-67494772D01*
X103910843Y-67706844D01*
X104073156Y-67869157D01*
X104285228Y-67957000D01*
X104514772Y-67957000D01*
X104726844Y-67869157D01*
X104753553Y-67842448D01*
X105581434Y-68670329D01*
X105602463Y-68701801D01*
X105633935Y-68722830D01*
X105633936Y-68722831D01*
X105692437Y-68761920D01*
X105727166Y-68785125D01*
X105837138Y-68807000D01*
X105837141Y-68807000D01*
X105874263Y-68814384D01*
X105911386Y-68807000D01*
X119553842Y-68807000D01*
X119569842Y-68823000D01*
X115532122Y-68823000D01*
X115495000Y-68815616D01*
X115457877Y-68823000D01*
X115457874Y-68823000D01*
X115357328Y-68843000D01*
X115347902Y-68844875D01*
X115254672Y-68907169D01*
X115254671Y-68907170D01*
X115223199Y-68928199D01*
X115202170Y-68959671D01*
X112688842Y-71473000D01*
X111384001Y-71473000D01*
X111271844Y-71360843D01*
X111059772Y-71273000D01*
X110830228Y-71273000D01*
X110618156Y-71360843D01*
X110455843Y-71523156D01*
X110368000Y-71735228D01*
X110368000Y-71964772D01*
X110455843Y-72176844D01*
X110618156Y-72339157D01*
X110830228Y-72427000D01*
X111059772Y-72427000D01*
X111271844Y-72339157D01*
X111384001Y-72227000D01*
X112655579Y-72227000D01*
X112048441Y-72834138D01*
X111991910Y-72871911D01*
X111842280Y-73095849D01*
X111812092Y-73247615D01*
X111789737Y-73360000D01*
X111803000Y-73426677D01*
X111803001Y-81953319D01*
X111789737Y-82020000D01*
X111828571Y-82215228D01*
X111842281Y-82284152D01*
X111991911Y-82508090D01*
X112048441Y-82545862D01*
X117144140Y-87641563D01*
X117181910Y-87698090D01*
X117405848Y-87847720D01*
X117603322Y-87887000D01*
X117603323Y-87887000D01*
X117669999Y-87900263D01*
X117736676Y-87887000D01*
X126267746Y-87887000D01*
X126376385Y-87932000D01*
X126663615Y-87932000D01*
X126772254Y-87887000D01*
X140703324Y-87887000D01*
X140770000Y-87900263D01*
X140836676Y-87887000D01*
X140836678Y-87887000D01*
X141034152Y-87847720D01*
X141258090Y-87698090D01*
X141295864Y-87641557D01*
X143550422Y-85387000D01*
X143618904Y-85387000D01*
X144953465Y-86721563D01*
X144991235Y-86778090D01*
X145215173Y-86927720D01*
X145412647Y-86967000D01*
X145412648Y-86967000D01*
X145479324Y-86980263D01*
X145546001Y-86967000D01*
X148553000Y-86967000D01*
X148553001Y-91720998D01*
X148520843Y-91753156D01*
X148433000Y-91965228D01*
X148433000Y-92194772D01*
X148520843Y-92406844D01*
X148683156Y-92569157D01*
X148895228Y-92657000D01*
X149124772Y-92657000D01*
X149336844Y-92569157D01*
X149499157Y-92406844D01*
X149587000Y-92194772D01*
X149587000Y-91965228D01*
X149499157Y-91753156D01*
X149336844Y-91590843D01*
X149307000Y-91578481D01*
X149307000Y-86967000D01*
X155373324Y-86967000D01*
X155440000Y-86980263D01*
X155506676Y-86967000D01*
X155506678Y-86967000D01*
X155704152Y-86927720D01*
X155928090Y-86778090D01*
X155965864Y-86721557D01*
X159031562Y-83655860D01*
X159088089Y-83618090D01*
X159237720Y-83394152D01*
X159277000Y-83196678D01*
X159277000Y-83196677D01*
X159290263Y-83130000D01*
X159277000Y-83063324D01*
X159277000Y-79186678D01*
X159290263Y-79120000D01*
X159237720Y-78855847D01*
X159125860Y-78688437D01*
X159088090Y-78631910D01*
X159031562Y-78594139D01*
X158832001Y-78394579D01*
X158832001Y-71210846D01*
X159736462Y-72115308D01*
X159779812Y-72180186D01*
X160036828Y-72351918D01*
X160263472Y-72397000D01*
X160339997Y-72412222D01*
X160345465Y-72411134D01*
X160609285Y-72587413D01*
X160773111Y-72620000D01*
X160609285Y-72652587D01*
X160269574Y-72879574D01*
X160042587Y-73219285D01*
X159962880Y-73620000D01*
X160042587Y-74020715D01*
X160269574Y-74360426D01*
X160353809Y-74416710D01*
X160322721Y-74422894D01*
X159867238Y-74727238D01*
X159562894Y-75182721D01*
X159456023Y-75720000D01*
X159562894Y-76257279D01*
X159867238Y-76712762D01*
X160322721Y-77017106D01*
X160724377Y-77097000D01*
X162295623Y-77097000D01*
X162697279Y-77017106D01*
X163152762Y-76712762D01*
X163457106Y-76257279D01*
X163563977Y-75720000D01*
X163457106Y-75182721D01*
X163152762Y-74727238D01*
X162697279Y-74422894D01*
X162666191Y-74416710D01*
X162750426Y-74360426D01*
X162977413Y-74020715D01*
X163057120Y-73620000D01*
X162977413Y-73219285D01*
X162750426Y-72879574D01*
X162410715Y-72652587D01*
X162246889Y-72620000D01*
X162410715Y-72587413D01*
X162750426Y-72360426D01*
X162977413Y-72020715D01*
X163057120Y-71620000D01*
X162977413Y-71219285D01*
X162750426Y-70879574D01*
X162410715Y-70652587D01*
X162409906Y-70652426D01*
X162760000Y-70652426D01*
X162868080Y-70630928D01*
X162959705Y-70569705D01*
X163020928Y-70478080D01*
X163037055Y-70397000D01*
X163683475Y-70397000D01*
X163760000Y-70412222D01*
X163836525Y-70397000D01*
X163836526Y-70397000D01*
X164063170Y-70351918D01*
X164320186Y-70180186D01*
X164363538Y-70115305D01*
X164633000Y-69845843D01*
X164633000Y-96969263D01*
X164559759Y-97597465D01*
X164351087Y-98172348D01*
X164015763Y-98683802D01*
X163571771Y-99104399D01*
X163042929Y-99411575D01*
X162452929Y-99590269D01*
X161974097Y-99633003D01*
X135053081Y-99633003D01*
X135017279Y-99361062D01*
X134993159Y-99271042D01*
X134993155Y-99271036D01*
X134768382Y-98728385D01*
X134768382Y-98728384D01*
X134742521Y-98683592D01*
X134721785Y-98647675D01*
X134721781Y-98647671D01*
X134364217Y-98181685D01*
X134298318Y-98115786D01*
X133832332Y-97758222D01*
X133832328Y-97758218D01*
X133768719Y-97721494D01*
X133751619Y-97711621D01*
X133751616Y-97711620D01*
X133208967Y-97486848D01*
X133208961Y-97486844D01*
X133118941Y-97462724D01*
X132536598Y-97386057D01*
X132443402Y-97386057D01*
X131861059Y-97462724D01*
X131771039Y-97486844D01*
X131771033Y-97486848D01*
X131228384Y-97711620D01*
X131228381Y-97711621D01*
X131211281Y-97721494D01*
X131147672Y-97758218D01*
X131147668Y-97758222D01*
X130681682Y-98115786D01*
X130615783Y-98181685D01*
X130258219Y-98647671D01*
X130258215Y-98647675D01*
X130237479Y-98683592D01*
X130211618Y-98728384D01*
X130211618Y-98728385D01*
X129986845Y-99271036D01*
X129986841Y-99271042D01*
X129962721Y-99361062D01*
X129926919Y-99633003D01*
X103010740Y-99633003D01*
X102382538Y-99559762D01*
X101807655Y-99351090D01*
X101296201Y-99015766D01*
X100875604Y-98571774D01*
X100568428Y-98042932D01*
X100389734Y-97452932D01*
X100347000Y-96974100D01*
X100347000Y-93538188D01*
X127479508Y-93538188D01*
X127484349Y-94154526D01*
X127688571Y-94736067D01*
X128070155Y-95220103D01*
X128587952Y-95554440D01*
X129186131Y-95703029D01*
X129800190Y-95649846D01*
X130363915Y-95400625D01*
X130816520Y-94982242D01*
X130885052Y-94855228D01*
X140493000Y-94855228D01*
X140493000Y-95084772D01*
X140580843Y-95296844D01*
X140743156Y-95459157D01*
X140955228Y-95547000D01*
X141113842Y-95547000D01*
X141517170Y-95950329D01*
X141538199Y-95981801D01*
X141569671Y-96002830D01*
X141569672Y-96002831D01*
X141575678Y-96006844D01*
X141662902Y-96065125D01*
X141772874Y-96087000D01*
X141772877Y-96087000D01*
X141809999Y-96094384D01*
X141847122Y-96087000D01*
X150860999Y-96087000D01*
X150943156Y-96169157D01*
X151155228Y-96257000D01*
X151384772Y-96257000D01*
X151596844Y-96169157D01*
X151759157Y-96006844D01*
X151826435Y-95844419D01*
X160140542Y-95844419D01*
X160238662Y-96400886D01*
X160521188Y-96890234D01*
X160954042Y-97253442D01*
X161485016Y-97446701D01*
X162050068Y-97446701D01*
X162581042Y-97253442D01*
X163013896Y-96890234D01*
X163296422Y-96400886D01*
X163394542Y-95844419D01*
X163296422Y-95287952D01*
X163013896Y-94798604D01*
X162581042Y-94435396D01*
X162050068Y-94242137D01*
X161485016Y-94242137D01*
X160954042Y-94435396D01*
X160521188Y-94798604D01*
X160238662Y-95287952D01*
X160140542Y-95844419D01*
X151826435Y-95844419D01*
X151847000Y-95794772D01*
X151847000Y-95565228D01*
X151759157Y-95353156D01*
X151596844Y-95190843D01*
X151384772Y-95103000D01*
X151155228Y-95103000D01*
X150943156Y-95190843D01*
X150800999Y-95333000D01*
X141966159Y-95333000D01*
X141647000Y-95013842D01*
X141647000Y-94855228D01*
X141559157Y-94643156D01*
X141396844Y-94480843D01*
X141184772Y-94393000D01*
X140955228Y-94393000D01*
X140743156Y-94480843D01*
X140580843Y-94643156D01*
X140493000Y-94855228D01*
X130885052Y-94855228D01*
X131109201Y-94439808D01*
X131210399Y-93831815D01*
X131210167Y-93802332D01*
X131099432Y-93196004D01*
X130798267Y-92658235D01*
X130339146Y-92247011D01*
X129771576Y-92006677D01*
X129156758Y-91963145D01*
X128560987Y-92121111D01*
X128048504Y-92463541D01*
X127674571Y-92953511D01*
X127479508Y-93538188D01*
X100347000Y-93538188D01*
X100347000Y-90145880D01*
X115475000Y-90145880D01*
X115475000Y-90614120D01*
X115654187Y-91046717D01*
X115985283Y-91377813D01*
X116417880Y-91557000D01*
X116886120Y-91557000D01*
X117059393Y-91485228D01*
X126253000Y-91485228D01*
X126253000Y-91714772D01*
X126340843Y-91926844D01*
X126503156Y-92089157D01*
X126715228Y-92177000D01*
X126944772Y-92177000D01*
X127156844Y-92089157D01*
X127319157Y-91926844D01*
X127407000Y-91714772D01*
X127407000Y-91556158D01*
X128106159Y-90857000D01*
X128300999Y-90857000D01*
X128413156Y-90969157D01*
X128625228Y-91057000D01*
X128854772Y-91057000D01*
X129066844Y-90969157D01*
X129229157Y-90806844D01*
X129317000Y-90594772D01*
X129317000Y-90365228D01*
X129229157Y-90153156D01*
X129066844Y-89990843D01*
X128854772Y-89903000D01*
X128625228Y-89903000D01*
X128413156Y-89990843D01*
X128300999Y-90103000D01*
X127987122Y-90103000D01*
X127949999Y-90095616D01*
X127912877Y-90103000D01*
X127912874Y-90103000D01*
X127802902Y-90124875D01*
X127709672Y-90187169D01*
X127709671Y-90187170D01*
X127678199Y-90208199D01*
X127657170Y-90239671D01*
X126873842Y-91023000D01*
X126715228Y-91023000D01*
X126503156Y-91110843D01*
X126340843Y-91273156D01*
X126253000Y-91485228D01*
X117059393Y-91485228D01*
X117318717Y-91377813D01*
X117649813Y-91046717D01*
X117829000Y-90614120D01*
X117829000Y-90145880D01*
X117649813Y-89713283D01*
X117318717Y-89382187D01*
X116886120Y-89203000D01*
X116417880Y-89203000D01*
X115985283Y-89382187D01*
X115654187Y-89713283D01*
X115475000Y-90145880D01*
X100347000Y-90145880D01*
X100347000Y-81235228D01*
X103493000Y-81235228D01*
X103493000Y-81464772D01*
X103580843Y-81676844D01*
X103743156Y-81839157D01*
X103955228Y-81927000D01*
X104113842Y-81927000D01*
X106926514Y-84739672D01*
X106918000Y-84760228D01*
X106918000Y-84989772D01*
X107005843Y-85201844D01*
X107168156Y-85364157D01*
X107380228Y-85452000D01*
X107609772Y-85452000D01*
X107821844Y-85364157D01*
X107984157Y-85201844D01*
X108072000Y-84989772D01*
X108072000Y-84760228D01*
X107984157Y-84548156D01*
X107821844Y-84385843D01*
X107609772Y-84298000D01*
X107551158Y-84298000D01*
X104647000Y-81393842D01*
X104647000Y-81235228D01*
X104559157Y-81023156D01*
X104396844Y-80860843D01*
X104184772Y-80773000D01*
X103955228Y-80773000D01*
X103743156Y-80860843D01*
X103580843Y-81023156D01*
X103493000Y-81235228D01*
X100347000Y-81235228D01*
X100347000Y-79245228D01*
X101653000Y-79245228D01*
X101653000Y-79474772D01*
X101740843Y-79686844D01*
X101903156Y-79849157D01*
X102115228Y-79937000D01*
X102344772Y-79937000D01*
X102556844Y-79849157D01*
X102719157Y-79686844D01*
X102807000Y-79474772D01*
X102807000Y-79245228D01*
X102719157Y-79033156D01*
X102692448Y-79006447D01*
X111131894Y-70567000D01*
X112530999Y-70567000D01*
X112643156Y-70679157D01*
X112855228Y-70767000D01*
X113084772Y-70767000D01*
X113296844Y-70679157D01*
X113459157Y-70516844D01*
X113547000Y-70304772D01*
X113547000Y-70075228D01*
X113459157Y-69863156D01*
X113296844Y-69700843D01*
X113084772Y-69613000D01*
X112855228Y-69613000D01*
X112643156Y-69700843D01*
X112530999Y-69813000D01*
X111012856Y-69813000D01*
X110975735Y-69805616D01*
X110938614Y-69813000D01*
X110938610Y-69813000D01*
X110828638Y-69834875D01*
X110703935Y-69918199D01*
X110682904Y-69949674D01*
X101989674Y-78642904D01*
X101958199Y-78663935D01*
X101874875Y-78788639D01*
X101853000Y-78898611D01*
X101853000Y-78898614D01*
X101847442Y-78926557D01*
X101740843Y-79033156D01*
X101653000Y-79245228D01*
X100347000Y-79245228D01*
X100347000Y-37210008D01*
X100625606Y-37210008D01*
X100632991Y-37247135D01*
X100632990Y-58152868D01*
X100625606Y-58189990D01*
X100632990Y-58227112D01*
X100632990Y-58227115D01*
X100654865Y-58337087D01*
X100738189Y-58461791D01*
X100769664Y-58482822D01*
X106353000Y-64066158D01*
X106353000Y-64224772D01*
X106440843Y-64436844D01*
X106603156Y-64599157D01*
X106815228Y-64687000D01*
X107044772Y-64687000D01*
X107256844Y-64599157D01*
X107419157Y-64436844D01*
X107507000Y-64224772D01*
X107507000Y-63995228D01*
X107419157Y-63783156D01*
X107256844Y-63620843D01*
X107044772Y-63533000D01*
X106886158Y-63533000D01*
X101386990Y-58033832D01*
X101386990Y-57410148D01*
X106743000Y-62766159D01*
X106743000Y-62924772D01*
X106830843Y-63136844D01*
X106993156Y-63299157D01*
X107205228Y-63387000D01*
X107434772Y-63387000D01*
X107646844Y-63299157D01*
X107809157Y-63136844D01*
X107897000Y-62924772D01*
X107897000Y-62695228D01*
X107809157Y-62483156D01*
X107646844Y-62320843D01*
X107434772Y-62233000D01*
X107276159Y-62233000D01*
X101817000Y-56773842D01*
X101817000Y-48215771D01*
X102273000Y-48215771D01*
X102273000Y-48644229D01*
X102436963Y-49040072D01*
X102739928Y-49343037D01*
X103135771Y-49507000D01*
X103564229Y-49507000D01*
X103960072Y-49343037D01*
X104263037Y-49040072D01*
X104427000Y-48644229D01*
X104427000Y-48215771D01*
X104263037Y-47819928D01*
X103960072Y-47516963D01*
X103564229Y-47353000D01*
X103135771Y-47353000D01*
X102739928Y-47516963D01*
X102436963Y-47819928D01*
X102273000Y-48215771D01*
X101817000Y-48215771D01*
X101817000Y-37756158D01*
X104256159Y-35317000D01*
X109638842Y-35317000D01*
X112248005Y-37926163D01*
X112128000Y-38215880D01*
X112128000Y-38684120D01*
X112307187Y-39116717D01*
X112593470Y-39403000D01*
X111237142Y-39403000D01*
X111200020Y-39395616D01*
X111162897Y-39403000D01*
X111162894Y-39403000D01*
X111052922Y-39424875D01*
X110959692Y-39487169D01*
X110959691Y-39487170D01*
X110928219Y-39508199D01*
X110907190Y-39539671D01*
X105607000Y-44839862D01*
X105607000Y-39567817D01*
X105896717Y-39447813D01*
X106227813Y-39116717D01*
X106407000Y-38684120D01*
X106407000Y-38215880D01*
X106227813Y-37783283D01*
X105994530Y-37550000D01*
X106587574Y-37550000D01*
X106587574Y-39350000D01*
X106609072Y-39458080D01*
X106670295Y-39549705D01*
X106761920Y-39610928D01*
X106870000Y-39632426D01*
X108670000Y-39632426D01*
X108778080Y-39610928D01*
X108869705Y-39549705D01*
X108930928Y-39458080D01*
X108952426Y-39350000D01*
X108952426Y-37550000D01*
X108930928Y-37441920D01*
X108869705Y-37350295D01*
X108778080Y-37289072D01*
X108670000Y-37267574D01*
X106870000Y-37267574D01*
X106761920Y-37289072D01*
X106670295Y-37350295D01*
X106609072Y-37441920D01*
X106587574Y-37550000D01*
X105994530Y-37550000D01*
X105896717Y-37452187D01*
X105464120Y-37273000D01*
X104995880Y-37273000D01*
X104563283Y-37452187D01*
X104232187Y-37783283D01*
X104053000Y-38215880D01*
X104053000Y-38684120D01*
X104232187Y-39116717D01*
X104563283Y-39447813D01*
X104853000Y-39567817D01*
X104853000Y-39759917D01*
X104853001Y-39759922D01*
X104853000Y-45177505D01*
X104835584Y-45265062D01*
X104842969Y-45302189D01*
X104842968Y-58387846D01*
X104835584Y-58424968D01*
X104842968Y-58462090D01*
X104842968Y-58462093D01*
X104864843Y-58572065D01*
X104948167Y-58696769D01*
X104979642Y-58717800D01*
X106618000Y-60356159D01*
X106618000Y-60514772D01*
X106705843Y-60726844D01*
X106868156Y-60889157D01*
X107080228Y-60977000D01*
X107309772Y-60977000D01*
X107521844Y-60889157D01*
X107684157Y-60726844D01*
X107772000Y-60514772D01*
X107772000Y-60285228D01*
X107684157Y-60073156D01*
X107521844Y-59910843D01*
X107309772Y-59823000D01*
X107151159Y-59823000D01*
X105596968Y-58268810D01*
X105596968Y-57950106D01*
X108487188Y-60840326D01*
X108508219Y-60871801D01*
X108632922Y-60955125D01*
X108742894Y-60977000D01*
X108780020Y-60984385D01*
X108817146Y-60977000D01*
X110110999Y-60977000D01*
X110223156Y-61089157D01*
X110435228Y-61177000D01*
X110664772Y-61177000D01*
X110876844Y-61089157D01*
X111039157Y-60926844D01*
X111127000Y-60714772D01*
X111127000Y-60485228D01*
X111039157Y-60273156D01*
X110903000Y-60136999D01*
X111913841Y-60136999D01*
X112003000Y-60226158D01*
X112003000Y-60384772D01*
X112090843Y-60596844D01*
X112253156Y-60759157D01*
X112465228Y-60847000D01*
X112694772Y-60847000D01*
X112906844Y-60759157D01*
X113069157Y-60596844D01*
X113157000Y-60384772D01*
X113157000Y-60155228D01*
X113095602Y-60007000D01*
X113835999Y-60007000D01*
X113993156Y-60164157D01*
X114205228Y-60252000D01*
X114434772Y-60252000D01*
X114646844Y-60164157D01*
X114809157Y-60001844D01*
X114897000Y-59789772D01*
X114897000Y-59560228D01*
X114809157Y-59348156D01*
X114646844Y-59185843D01*
X114434772Y-59098000D01*
X114205228Y-59098000D01*
X113993156Y-59185843D01*
X113925999Y-59253000D01*
X112772155Y-59253000D01*
X112653829Y-59134674D01*
X112632798Y-59103200D01*
X112508095Y-59019876D01*
X112398123Y-58998001D01*
X112398119Y-58998001D01*
X112360997Y-58990617D01*
X112323875Y-58998001D01*
X109101159Y-58998001D01*
X106647000Y-56543842D01*
X106647000Y-55429744D01*
X106785228Y-55487000D01*
X107014772Y-55487000D01*
X107226844Y-55399157D01*
X107295001Y-55331000D01*
X107443158Y-55479157D01*
X107655230Y-55567000D01*
X107884774Y-55567000D01*
X108096846Y-55479157D01*
X108259159Y-55316844D01*
X108347002Y-55104772D01*
X108347002Y-54875228D01*
X108259159Y-54663156D01*
X108147002Y-54550999D01*
X108147002Y-51819265D01*
X160202493Y-51819265D01*
X160300613Y-52375732D01*
X160583139Y-52865080D01*
X161015993Y-53228288D01*
X161546967Y-53421547D01*
X162112019Y-53421547D01*
X162642993Y-53228288D01*
X163075847Y-52865080D01*
X163358373Y-52375732D01*
X163456493Y-51819265D01*
X163358373Y-51262798D01*
X163075847Y-50773450D01*
X162642993Y-50410242D01*
X162112019Y-50216983D01*
X161546967Y-50216983D01*
X161015993Y-50410242D01*
X160583139Y-50773450D01*
X160300613Y-51262798D01*
X160202493Y-51819265D01*
X108147002Y-51819265D01*
X108147002Y-48215771D01*
X109273000Y-48215771D01*
X109273000Y-48644229D01*
X109436963Y-49040072D01*
X109739928Y-49343037D01*
X110135771Y-49507000D01*
X110564229Y-49507000D01*
X110960072Y-49343037D01*
X111263037Y-49040072D01*
X111427000Y-48644229D01*
X111427000Y-48215771D01*
X111263037Y-47819928D01*
X110960072Y-47516963D01*
X110564229Y-47353000D01*
X110135771Y-47353000D01*
X109739928Y-47516963D01*
X109436963Y-47819928D01*
X109273000Y-48215771D01*
X108147002Y-48215771D01*
X108147002Y-47081156D01*
X109662408Y-45565750D01*
X118405000Y-45565750D01*
X118405000Y-46256310D01*
X118501673Y-46489699D01*
X118680302Y-46668327D01*
X118913691Y-46765000D01*
X119204250Y-46765000D01*
X119363000Y-46606250D01*
X119363000Y-45407000D01*
X119617000Y-45407000D01*
X119617000Y-46606250D01*
X119775750Y-46765000D01*
X120066309Y-46765000D01*
X120299698Y-46668327D01*
X120478327Y-46489699D01*
X120575000Y-46256310D01*
X120575000Y-45565750D01*
X120416250Y-45407000D01*
X119617000Y-45407000D01*
X119363000Y-45407000D01*
X118563750Y-45407000D01*
X118405000Y-45565750D01*
X109662408Y-45565750D01*
X110924468Y-44303690D01*
X118405000Y-44303690D01*
X118405000Y-44994250D01*
X118563750Y-45153000D01*
X119363000Y-45153000D01*
X119363000Y-43953750D01*
X119617000Y-43953750D01*
X119617000Y-45153000D01*
X120416250Y-45153000D01*
X120575000Y-44994250D01*
X120575000Y-44303690D01*
X120478327Y-44070301D01*
X120299698Y-43891673D01*
X120066309Y-43795000D01*
X119775750Y-43795000D01*
X119617000Y-43953750D01*
X119363000Y-43953750D01*
X119204250Y-43795000D01*
X118913691Y-43795000D01*
X118680302Y-43891673D01*
X118501673Y-44070301D01*
X118405000Y-44303690D01*
X110924468Y-44303690D01*
X112476159Y-42752000D01*
X122038842Y-42752000D01*
X123471690Y-44184848D01*
X123448080Y-44169072D01*
X123340000Y-44147574D01*
X122440000Y-44147574D01*
X122331920Y-44169072D01*
X122240295Y-44230295D01*
X122179072Y-44321920D01*
X122157574Y-44430000D01*
X122157574Y-46130000D01*
X122179072Y-46238080D01*
X122240295Y-46329705D01*
X122331920Y-46390928D01*
X122440000Y-46412426D01*
X122513000Y-46412426D01*
X122513001Y-49640998D01*
X122420843Y-49733156D01*
X122333000Y-49945228D01*
X122333000Y-50174772D01*
X122420843Y-50386844D01*
X122583156Y-50549157D01*
X122795228Y-50637000D01*
X123024772Y-50637000D01*
X123236844Y-50549157D01*
X123399157Y-50386844D01*
X123487000Y-50174772D01*
X123487000Y-49945228D01*
X123399157Y-49733156D01*
X123267000Y-49600999D01*
X123267000Y-49567135D01*
X124753000Y-49567135D01*
X124793731Y-49771905D01*
X124948887Y-50004112D01*
X125181094Y-50159269D01*
X125455000Y-50213752D01*
X125728905Y-50159269D01*
X125961112Y-50004113D01*
X126116269Y-49771906D01*
X126157000Y-49567136D01*
X126157000Y-49509913D01*
X127177692Y-49509913D01*
X127204905Y-49716796D01*
X127604137Y-49846279D01*
X127683000Y-49840030D01*
X127683000Y-49916642D01*
X127789112Y-50172819D01*
X127985181Y-50368888D01*
X128241358Y-50475000D01*
X128518642Y-50475000D01*
X128774819Y-50368888D01*
X128970888Y-50172819D01*
X129030000Y-50030110D01*
X129089112Y-50172819D01*
X129285181Y-50368888D01*
X129541358Y-50475000D01*
X129818642Y-50475000D01*
X130074819Y-50368888D01*
X130270888Y-50172819D01*
X130377000Y-49916642D01*
X130377000Y-49639358D01*
X130347085Y-49567135D01*
X131903000Y-49567135D01*
X131943731Y-49771905D01*
X132098887Y-50004112D01*
X132331094Y-50159269D01*
X132605000Y-50213752D01*
X132878905Y-50159269D01*
X133111112Y-50004113D01*
X133266269Y-49771906D01*
X133307000Y-49567136D01*
X133307000Y-48428864D01*
X133266269Y-48224094D01*
X133111113Y-47991887D01*
X132878906Y-47836731D01*
X132605000Y-47782248D01*
X132331095Y-47836731D01*
X132098888Y-47991887D01*
X131943732Y-48224094D01*
X131903001Y-48428864D01*
X131903000Y-49567135D01*
X130347085Y-49567135D01*
X130311168Y-49480426D01*
X130750000Y-49480426D01*
X130858080Y-49458928D01*
X130949705Y-49397705D01*
X131010928Y-49306080D01*
X131032426Y-49198000D01*
X131032426Y-48358000D01*
X131010928Y-48249920D01*
X130949705Y-48158295D01*
X130858080Y-48097072D01*
X130750000Y-48075574D01*
X129910000Y-48075574D01*
X129801920Y-48097072D01*
X129710295Y-48158295D01*
X129649072Y-48249920D01*
X129627574Y-48358000D01*
X129627574Y-48399322D01*
X129620888Y-48383181D01*
X129424819Y-48187112D01*
X129168642Y-48081000D01*
X128891358Y-48081000D01*
X128635181Y-48187112D01*
X128580944Y-48241349D01*
X128461913Y-48225692D01*
X127909605Y-48778000D01*
X127923748Y-48792143D01*
X127744143Y-48971748D01*
X127730000Y-48957605D01*
X127177692Y-49509913D01*
X126157000Y-49509913D01*
X126157000Y-48652137D01*
X126661721Y-48652137D01*
X126694873Y-49070531D01*
X126791204Y-49303095D01*
X126998087Y-49330308D01*
X127550395Y-48778000D01*
X126998087Y-48225692D01*
X126791204Y-48252905D01*
X126661721Y-48652137D01*
X126157000Y-48652137D01*
X126157000Y-48428864D01*
X126116269Y-48224094D01*
X125997329Y-48046087D01*
X127177692Y-48046087D01*
X127730000Y-48598395D01*
X128282308Y-48046087D01*
X128255095Y-47839204D01*
X127855863Y-47709721D01*
X127437469Y-47742873D01*
X127204905Y-47839204D01*
X127177692Y-48046087D01*
X125997329Y-48046087D01*
X125961113Y-47991887D01*
X125728906Y-47836731D01*
X125455000Y-47782248D01*
X125181095Y-47836731D01*
X124948888Y-47991887D01*
X124793732Y-48224094D01*
X124753001Y-48428864D01*
X124753000Y-49567135D01*
X123267000Y-49567135D01*
X123267000Y-46412426D01*
X123340000Y-46412426D01*
X123448080Y-46390928D01*
X123539705Y-46329705D01*
X123600928Y-46238080D01*
X123622426Y-46130000D01*
X123622426Y-44430000D01*
X123600928Y-44321920D01*
X123585152Y-44298310D01*
X126227168Y-46940326D01*
X126248199Y-46971801D01*
X126372902Y-47055125D01*
X126482874Y-47077000D01*
X126482877Y-47077000D01*
X126520000Y-47084384D01*
X126557122Y-47077000D01*
X135043842Y-47077000D01*
X135106468Y-47139627D01*
X134963000Y-47485989D01*
X134963000Y-47994011D01*
X135157412Y-48463362D01*
X135516638Y-48822588D01*
X135985989Y-49017000D01*
X136494011Y-49017000D01*
X136963362Y-48822588D01*
X137322588Y-48463362D01*
X137466056Y-48117000D01*
X141513944Y-48117000D01*
X141657412Y-48463362D01*
X142016638Y-48822588D01*
X142485989Y-49017000D01*
X142994011Y-49017000D01*
X143463362Y-48822588D01*
X143822588Y-48463362D01*
X144017000Y-47994011D01*
X144017000Y-47485989D01*
X143822588Y-47016638D01*
X143463362Y-46657412D01*
X142994011Y-46463000D01*
X142485989Y-46463000D01*
X142016638Y-46657412D01*
X141657412Y-47016638D01*
X141513944Y-47363000D01*
X137466056Y-47363000D01*
X137322588Y-47016638D01*
X136963362Y-46657412D01*
X136494011Y-46463000D01*
X135985989Y-46463000D01*
X135639627Y-46606468D01*
X135492831Y-46459673D01*
X135471801Y-46428199D01*
X135347098Y-46344875D01*
X135237126Y-46323000D01*
X135237122Y-46323000D01*
X135200000Y-46315616D01*
X135162878Y-46323000D01*
X126676158Y-46323000D01*
X124745690Y-44392532D01*
X135267073Y-44392532D01*
X135365736Y-44659387D01*
X135975461Y-44885908D01*
X136625460Y-44861856D01*
X137114264Y-44659387D01*
X137212927Y-44392532D01*
X136240000Y-43419605D01*
X135267073Y-44392532D01*
X124745690Y-44392532D01*
X123067419Y-42714261D01*
X129154641Y-42714261D01*
X129252761Y-43270728D01*
X129535287Y-43760076D01*
X129968141Y-44123284D01*
X130499115Y-44316543D01*
X131064167Y-44316543D01*
X131595141Y-44123284D01*
X132027995Y-43760076D01*
X132310521Y-43270728D01*
X132362584Y-42975461D01*
X134594092Y-42975461D01*
X134618144Y-43625460D01*
X134820613Y-44114264D01*
X135087468Y-44212927D01*
X136060395Y-43240000D01*
X136419605Y-43240000D01*
X137392532Y-44212927D01*
X137659387Y-44114264D01*
X137885908Y-43504539D01*
X137861856Y-42854540D01*
X137659387Y-42365736D01*
X137392532Y-42267073D01*
X136419605Y-43240000D01*
X136060395Y-43240000D01*
X135087468Y-42267073D01*
X134820613Y-42365736D01*
X134594092Y-42975461D01*
X132362584Y-42975461D01*
X132408641Y-42714261D01*
X132310521Y-42157794D01*
X132027995Y-41668446D01*
X131595141Y-41305238D01*
X131064167Y-41111979D01*
X130499115Y-41111979D01*
X129968141Y-41305238D01*
X129535287Y-41668446D01*
X129252761Y-42157794D01*
X129154641Y-42714261D01*
X123067419Y-42714261D01*
X122487832Y-42134674D01*
X122466801Y-42103199D01*
X122342098Y-42019875D01*
X122232126Y-41998000D01*
X122232122Y-41998000D01*
X122195000Y-41990616D01*
X122157878Y-41998000D01*
X112357122Y-41998000D01*
X112320000Y-41990616D01*
X112282877Y-41998000D01*
X112282874Y-41998000D01*
X112172902Y-42019875D01*
X112079672Y-42082169D01*
X112079671Y-42082170D01*
X112048199Y-42103199D01*
X112027170Y-42134671D01*
X107529676Y-46632166D01*
X107498201Y-46653197D01*
X107414877Y-46777901D01*
X107393002Y-46887873D01*
X107393002Y-46887876D01*
X107385618Y-46924998D01*
X107393002Y-46962120D01*
X107393003Y-54528606D01*
X107393002Y-54528611D01*
X107393002Y-54550999D01*
X107375001Y-54569000D01*
X107277000Y-54470999D01*
X107277000Y-45856158D01*
X111731159Y-41402000D01*
X125212866Y-41402000D01*
X125249988Y-41409384D01*
X125287110Y-41402000D01*
X125287114Y-41402000D01*
X125397086Y-41380125D01*
X125521789Y-41296801D01*
X125542820Y-41265326D01*
X126950330Y-39857817D01*
X126981801Y-39836789D01*
X127019747Y-39780000D01*
X127065125Y-39712086D01*
X127070380Y-39685666D01*
X127087000Y-39602114D01*
X127087000Y-39602111D01*
X127094384Y-39564988D01*
X127087000Y-39527866D01*
X127087000Y-38059895D01*
X127150000Y-38072426D01*
X129450000Y-38072426D01*
X129558080Y-38050928D01*
X129649705Y-37989705D01*
X129710928Y-37898080D01*
X129732426Y-37790000D01*
X129732426Y-35490000D01*
X129710928Y-35381920D01*
X129694277Y-35357000D01*
X131168504Y-35357000D01*
X130991669Y-35430247D01*
X130590247Y-35831669D01*
X130373000Y-36356152D01*
X130373000Y-36923848D01*
X130590247Y-37448331D01*
X130991669Y-37849753D01*
X131516152Y-38067000D01*
X132083848Y-38067000D01*
X132608331Y-37849753D01*
X133009753Y-37448331D01*
X133227000Y-36923848D01*
X133227000Y-36356152D01*
X133010631Y-35833790D01*
X135863000Y-38686159D01*
X135863000Y-39213944D01*
X135516638Y-39357412D01*
X135157412Y-39716638D01*
X134963000Y-40185989D01*
X134963000Y-40694011D01*
X135157412Y-41163362D01*
X135516638Y-41522588D01*
X135800935Y-41640348D01*
X135365736Y-41820613D01*
X135267073Y-42087468D01*
X136240000Y-43060395D01*
X137212927Y-42087468D01*
X137114264Y-41820613D01*
X136655415Y-41650144D01*
X136963362Y-41522588D01*
X137322588Y-41163362D01*
X137466056Y-40817000D01*
X141513944Y-40817000D01*
X141606468Y-41040373D01*
X140379672Y-42267170D01*
X140348200Y-42288199D01*
X140327171Y-42319671D01*
X140327169Y-42319673D01*
X140264875Y-42412903D01*
X140235616Y-42560000D01*
X140243001Y-42597127D01*
X140243000Y-46030999D01*
X140130843Y-46143156D01*
X140043000Y-46355228D01*
X140043000Y-46584772D01*
X140130843Y-46796844D01*
X140293156Y-46959157D01*
X140505228Y-47047000D01*
X140734772Y-47047000D01*
X140946844Y-46959157D01*
X141109157Y-46796844D01*
X141197000Y-46584772D01*
X141197000Y-46355228D01*
X141109157Y-46143156D01*
X141036001Y-46070000D01*
X153197574Y-46070000D01*
X153197574Y-48070000D01*
X153219072Y-48178080D01*
X153280295Y-48269705D01*
X153371920Y-48330928D01*
X153480000Y-48352426D01*
X156680000Y-48352426D01*
X156788080Y-48330928D01*
X156879705Y-48269705D01*
X156940928Y-48178080D01*
X156962426Y-48070000D01*
X156962426Y-46070000D01*
X156940928Y-45961920D01*
X156879705Y-45870295D01*
X156788080Y-45809072D01*
X156680000Y-45787574D01*
X153480000Y-45787574D01*
X153371920Y-45809072D01*
X153280295Y-45870295D01*
X153219072Y-45961920D01*
X153197574Y-46070000D01*
X141036001Y-46070000D01*
X140997000Y-46030999D01*
X140997000Y-44392532D01*
X141767073Y-44392532D01*
X141865736Y-44659387D01*
X142475461Y-44885908D01*
X143125460Y-44861856D01*
X143614264Y-44659387D01*
X143712927Y-44392532D01*
X142740000Y-43419605D01*
X141767073Y-44392532D01*
X140997000Y-44392532D01*
X140997000Y-42716158D01*
X141304765Y-42408393D01*
X141094092Y-42975461D01*
X141118144Y-43625460D01*
X141320613Y-44114264D01*
X141587468Y-44212927D01*
X142560395Y-43240000D01*
X142919605Y-43240000D01*
X143892532Y-44212927D01*
X144159387Y-44114264D01*
X144385908Y-43504539D01*
X144361856Y-42854540D01*
X144159387Y-42365736D01*
X143892532Y-42267073D01*
X142919605Y-43240000D01*
X142560395Y-43240000D01*
X142546253Y-43225858D01*
X142725858Y-43046253D01*
X142740000Y-43060395D01*
X143712927Y-42087468D01*
X143614264Y-41820613D01*
X143155415Y-41650144D01*
X143463362Y-41522588D01*
X143780489Y-41205461D01*
X145934092Y-41205461D01*
X145958144Y-41855460D01*
X146160613Y-42344264D01*
X146427468Y-42442927D01*
X147400395Y-41470000D01*
X146427468Y-40497073D01*
X146160613Y-40595736D01*
X145934092Y-41205461D01*
X143780489Y-41205461D01*
X143822588Y-41163362D01*
X144017000Y-40694011D01*
X144017000Y-40185989D01*
X143822588Y-39716638D01*
X143463362Y-39357412D01*
X142994011Y-39163000D01*
X142485989Y-39163000D01*
X142016638Y-39357412D01*
X141657412Y-39716638D01*
X141513944Y-40063000D01*
X137466056Y-40063000D01*
X137322588Y-39716638D01*
X136963362Y-39357412D01*
X136617000Y-39213944D01*
X136617000Y-38567122D01*
X136624384Y-38529999D01*
X136617000Y-38492875D01*
X136617000Y-38492874D01*
X136595125Y-38382902D01*
X136511801Y-38258199D01*
X136480330Y-38237171D01*
X135742530Y-37499371D01*
X135975461Y-37585908D01*
X136625460Y-37561856D01*
X137114264Y-37359387D01*
X137212927Y-37092532D01*
X141767073Y-37092532D01*
X141865736Y-37359387D01*
X142475461Y-37585908D01*
X143125460Y-37561856D01*
X143614264Y-37359387D01*
X143712927Y-37092532D01*
X142740000Y-36119605D01*
X141767073Y-37092532D01*
X137212927Y-37092532D01*
X136240000Y-36119605D01*
X136225858Y-36133748D01*
X136046253Y-35954143D01*
X136060395Y-35940000D01*
X136046253Y-35925858D01*
X136225858Y-35746253D01*
X136240000Y-35760395D01*
X136254143Y-35746253D01*
X136433748Y-35925858D01*
X136419605Y-35940000D01*
X137392532Y-36912927D01*
X137659387Y-36814264D01*
X137885908Y-36204539D01*
X137861856Y-35554540D01*
X137659387Y-35065736D01*
X137392534Y-34967074D01*
X137462608Y-34897000D01*
X141517392Y-34897000D01*
X141587466Y-34967074D01*
X141320613Y-35065736D01*
X141094092Y-35675461D01*
X141118144Y-36325460D01*
X141320613Y-36814264D01*
X141587468Y-36912927D01*
X142560395Y-35940000D01*
X142546253Y-35925858D01*
X142725858Y-35746253D01*
X142740000Y-35760395D01*
X142754143Y-35746253D01*
X142933748Y-35925858D01*
X142919605Y-35940000D01*
X143892532Y-36912927D01*
X144159387Y-36814264D01*
X144385908Y-36204539D01*
X144361856Y-35554540D01*
X144159387Y-35065736D01*
X143892534Y-34967074D01*
X143962608Y-34897000D01*
X146013842Y-34897000D01*
X147203000Y-36086159D01*
X147203001Y-37687574D01*
X146580000Y-37687574D01*
X146471920Y-37709072D01*
X146380295Y-37770295D01*
X146319072Y-37861920D01*
X146297574Y-37970000D01*
X146297574Y-39970000D01*
X146319072Y-40078080D01*
X146380295Y-40169705D01*
X146471920Y-40230928D01*
X146580000Y-40252426D01*
X146631121Y-40252426D01*
X146607073Y-40317468D01*
X147580000Y-41290395D01*
X148552927Y-40317468D01*
X148528879Y-40252426D01*
X148580000Y-40252426D01*
X148688080Y-40230928D01*
X148779705Y-40169705D01*
X148840928Y-40078080D01*
X148862426Y-39970000D01*
X148862426Y-37970000D01*
X148840928Y-37861920D01*
X148779705Y-37770295D01*
X148688080Y-37709072D01*
X148580000Y-37687574D01*
X147957000Y-37687574D01*
X147957000Y-35995158D01*
X149768000Y-37806159D01*
X149768001Y-41248840D01*
X149192572Y-41824269D01*
X149225908Y-41734539D01*
X149201856Y-41084540D01*
X148999387Y-40595736D01*
X148732532Y-40497073D01*
X147759605Y-41470000D01*
X147773748Y-41484143D01*
X147594143Y-41663748D01*
X147580000Y-41649605D01*
X146607073Y-42622532D01*
X146705736Y-42889387D01*
X146814322Y-42929728D01*
X146497412Y-43246638D01*
X146303000Y-43715989D01*
X146303000Y-44224011D01*
X146497412Y-44693362D01*
X146856638Y-45052588D01*
X147325989Y-45247000D01*
X147834011Y-45247000D01*
X148303362Y-45052588D01*
X148662588Y-44693362D01*
X148857000Y-44224011D01*
X148857000Y-43715989D01*
X148713532Y-43369627D01*
X150385329Y-41697830D01*
X150416801Y-41676801D01*
X150455995Y-41618144D01*
X150500125Y-41552098D01*
X150516455Y-41470000D01*
X150522000Y-41442126D01*
X150522000Y-41442123D01*
X150529384Y-41405000D01*
X150522000Y-41367878D01*
X150522000Y-37687122D01*
X150529384Y-37649999D01*
X150522000Y-37612875D01*
X150522000Y-37612874D01*
X150500125Y-37502902D01*
X150416801Y-37378199D01*
X150385330Y-37357171D01*
X146965158Y-33937000D01*
X147168832Y-33937000D01*
X157442160Y-44210329D01*
X157463189Y-44241801D01*
X157494661Y-44262830D01*
X157494662Y-44262831D01*
X157555812Y-44303690D01*
X157587892Y-44325125D01*
X157697864Y-44347000D01*
X157697867Y-44347000D01*
X157734989Y-44354384D01*
X157772112Y-44347000D01*
X160853944Y-44347000D01*
X160997412Y-44693362D01*
X161356638Y-45052588D01*
X161825989Y-45247000D01*
X162334011Y-45247000D01*
X162803362Y-45052588D01*
X163162588Y-44693362D01*
X163357000Y-44224011D01*
X163357000Y-43715989D01*
X163162588Y-43246638D01*
X162803362Y-42887412D01*
X162334011Y-42693000D01*
X161825989Y-42693000D01*
X161356638Y-42887412D01*
X160997412Y-43246638D01*
X160853944Y-43593000D01*
X157891149Y-43593000D01*
X154420681Y-40122532D01*
X161107073Y-40122532D01*
X161205736Y-40389387D01*
X161815461Y-40615908D01*
X162465460Y-40591856D01*
X162954264Y-40389387D01*
X163052927Y-40122532D01*
X162080000Y-39149605D01*
X161107073Y-40122532D01*
X154420681Y-40122532D01*
X153003610Y-38705461D01*
X160434092Y-38705461D01*
X160458144Y-39355460D01*
X160660613Y-39844264D01*
X160927468Y-39942927D01*
X161900395Y-38970000D01*
X162259605Y-38970000D01*
X163232532Y-39942927D01*
X163499387Y-39844264D01*
X163725908Y-39234539D01*
X163701856Y-38584540D01*
X163499387Y-38095736D01*
X163232532Y-37997073D01*
X162259605Y-38970000D01*
X161900395Y-38970000D01*
X160927468Y-37997073D01*
X160660613Y-38095736D01*
X160434092Y-38705461D01*
X153003610Y-38705461D01*
X152115617Y-37817468D01*
X161107073Y-37817468D01*
X162080000Y-38790395D01*
X163052927Y-37817468D01*
X162954264Y-37550613D01*
X162344539Y-37324092D01*
X161694540Y-37348144D01*
X161205736Y-37550613D01*
X161107073Y-37817468D01*
X152115617Y-37817468D01*
X149168149Y-34870000D01*
X153197574Y-34870000D01*
X153197574Y-36870000D01*
X153219072Y-36978080D01*
X153280295Y-37069705D01*
X153371920Y-37130928D01*
X153480000Y-37152426D01*
X156680000Y-37152426D01*
X156788080Y-37130928D01*
X156879705Y-37069705D01*
X156940928Y-36978080D01*
X156962426Y-36870000D01*
X156962426Y-34870000D01*
X156940928Y-34761920D01*
X156879705Y-34670295D01*
X156788080Y-34609072D01*
X156680000Y-34587574D01*
X153480000Y-34587574D01*
X153371920Y-34609072D01*
X153280295Y-34670295D01*
X153219072Y-34761920D01*
X153197574Y-34870000D01*
X149168149Y-34870000D01*
X147617822Y-33319674D01*
X147596791Y-33288199D01*
X147472088Y-33204875D01*
X147362116Y-33183000D01*
X147362112Y-33183000D01*
X147324990Y-33175616D01*
X147287868Y-33183000D01*
X126297122Y-33183000D01*
X126259999Y-33175616D01*
X126222877Y-33183000D01*
X126222874Y-33183000D01*
X126112902Y-33204875D01*
X126019672Y-33267169D01*
X126019671Y-33267170D01*
X125988199Y-33288199D01*
X125967170Y-33319671D01*
X125129672Y-34157170D01*
X125098200Y-34178199D01*
X125077171Y-34209671D01*
X125077169Y-34209673D01*
X125014875Y-34302903D01*
X124985616Y-34450000D01*
X124993001Y-34487127D01*
X124993000Y-39073842D01*
X124952426Y-39114416D01*
X124952426Y-37550000D01*
X124930928Y-37441920D01*
X124869705Y-37350295D01*
X124778080Y-37289072D01*
X124670000Y-37267574D01*
X122870000Y-37267574D01*
X122761920Y-37289072D01*
X122670295Y-37350295D01*
X122609072Y-37441920D01*
X122587574Y-37550000D01*
X122587574Y-39350000D01*
X122598116Y-39403000D01*
X121941530Y-39403000D01*
X122227813Y-39116717D01*
X122407000Y-38684120D01*
X122407000Y-38215880D01*
X122227813Y-37783283D01*
X121896717Y-37452187D01*
X121464120Y-37273000D01*
X120995880Y-37273000D01*
X120706163Y-37393004D01*
X120622834Y-37309676D01*
X120622832Y-37309673D01*
X117602832Y-34289674D01*
X117581801Y-34258199D01*
X117457098Y-34174875D01*
X117347126Y-34153000D01*
X117347122Y-34153000D01*
X117310000Y-34145616D01*
X117272878Y-34153000D01*
X103727120Y-34153000D01*
X103689998Y-34145616D01*
X103652875Y-34153000D01*
X103652872Y-34153000D01*
X103542900Y-34174875D01*
X103418197Y-34258199D01*
X103397166Y-34289674D01*
X100769662Y-36917178D01*
X100738190Y-36938207D01*
X100717161Y-36969679D01*
X100717159Y-36969681D01*
X100654865Y-37062911D01*
X100625606Y-37210008D01*
X100347000Y-37210008D01*
X100347000Y-35510743D01*
X100420241Y-34882539D01*
X100628913Y-34307658D01*
X100964237Y-33796204D01*
X101408227Y-33375608D01*
X101937069Y-33068432D01*
X102527070Y-32889737D01*
X103005904Y-32847003D01*
X161969260Y-32847003D01*
X162597464Y-32920244D01*
G36*
X120089673Y-37842832D02*
X120089676Y-37842834D01*
X120173004Y-37926163D01*
X120053000Y-38215880D01*
X120053000Y-38684120D01*
X120232187Y-39116717D01*
X120518470Y-39403000D01*
X117016884Y-39403000D01*
X117027426Y-39350000D01*
X117027426Y-37550000D01*
X117005928Y-37441920D01*
X116944705Y-37350295D01*
X116853080Y-37289072D01*
X116745000Y-37267574D01*
X114945000Y-37267574D01*
X114836920Y-37289072D01*
X114745295Y-37350295D01*
X114684072Y-37441920D01*
X114662574Y-37550000D01*
X114662574Y-39350000D01*
X114673116Y-39403000D01*
X114016530Y-39403000D01*
X114302813Y-39116717D01*
X114482000Y-38684120D01*
X114482000Y-38215880D01*
X114302813Y-37783283D01*
X113971717Y-37452187D01*
X113539120Y-37273000D01*
X113070880Y-37273000D01*
X112781163Y-37393005D01*
X110295158Y-34907000D01*
X117153842Y-34907000D01*
X120089673Y-37842832D01*
X120089673Y-37842832D01*
G37*
X120089673Y-37842832D02*
X120089676Y-37842834D01*
X120173004Y-37926163D01*
X120053000Y-38215880D01*
X120053000Y-38684120D01*
X120232187Y-39116717D01*
X120518470Y-39403000D01*
X117016884Y-39403000D01*
X117027426Y-39350000D01*
X117027426Y-37550000D01*
X117005928Y-37441920D01*
X116944705Y-37350295D01*
X116853080Y-37289072D01*
X116745000Y-37267574D01*
X114945000Y-37267574D01*
X114836920Y-37289072D01*
X114745295Y-37350295D01*
X114684072Y-37441920D01*
X114662574Y-37550000D01*
X114662574Y-39350000D01*
X114673116Y-39403000D01*
X114016530Y-39403000D01*
X114302813Y-39116717D01*
X114482000Y-38684120D01*
X114482000Y-38215880D01*
X114302813Y-37783283D01*
X113971717Y-37452187D01*
X113539120Y-37273000D01*
X113070880Y-37273000D01*
X112781163Y-37393005D01*
X110295158Y-34907000D01*
X117153842Y-34907000D01*
X120089673Y-37842832D01*
G36*
X157478002Y-70165424D02*
X157478002Y-70622390D01*
X157472926Y-70627466D01*
X157374264Y-70360613D01*
X156764539Y-70134092D01*
X156114540Y-70158144D01*
X155625736Y-70360613D01*
X155527073Y-70627468D01*
X156500000Y-71600395D01*
X156514143Y-71586253D01*
X156693748Y-71765858D01*
X156679605Y-71780000D01*
X156693748Y-71794143D01*
X156514143Y-71973748D01*
X156500000Y-71959605D01*
X155527073Y-72932532D01*
X155625736Y-73199387D01*
X156235461Y-73425908D01*
X156885460Y-73401856D01*
X157374264Y-73199387D01*
X157472926Y-72932534D01*
X157478002Y-72937610D01*
X157478001Y-78608324D01*
X157464738Y-78675001D01*
X157478001Y-78741677D01*
X157478001Y-78741678D01*
X157517281Y-78939152D01*
X157666911Y-79163090D01*
X157723441Y-79200862D01*
X157923001Y-79400423D01*
X157923000Y-82263322D01*
X157923000Y-82849578D01*
X155159579Y-85613000D01*
X149828062Y-85613000D01*
X149882082Y-85558980D01*
X149992000Y-85293615D01*
X149992000Y-85244000D01*
X153897815Y-81338186D01*
X153945994Y-81305994D01*
X154034266Y-81173885D01*
X154073522Y-81115135D01*
X154118304Y-80890000D01*
X154107000Y-80833171D01*
X154107000Y-77264062D01*
X154142082Y-77228980D01*
X154252000Y-76963615D01*
X154252000Y-76676385D01*
X154142082Y-76411020D01*
X154107000Y-76375938D01*
X154107000Y-71515461D01*
X154854092Y-71515461D01*
X154878144Y-72165460D01*
X155080613Y-72654264D01*
X155347468Y-72752927D01*
X156320395Y-71780000D01*
X155347468Y-70807073D01*
X155080613Y-70905736D01*
X154854092Y-71515461D01*
X154107000Y-71515461D01*
X154107000Y-66794421D01*
X157478002Y-70165424D01*
X157478002Y-70165424D01*
G37*
X157478002Y-70165424D02*
X157478002Y-70622390D01*
X157472926Y-70627466D01*
X157374264Y-70360613D01*
X156764539Y-70134092D01*
X156114540Y-70158144D01*
X155625736Y-70360613D01*
X155527073Y-70627468D01*
X156500000Y-71600395D01*
X156514143Y-71586253D01*
X156693748Y-71765858D01*
X156679605Y-71780000D01*
X156693748Y-71794143D01*
X156514143Y-71973748D01*
X156500000Y-71959605D01*
X155527073Y-72932532D01*
X155625736Y-73199387D01*
X156235461Y-73425908D01*
X156885460Y-73401856D01*
X157374264Y-73199387D01*
X157472926Y-72932534D01*
X157478002Y-72937610D01*
X157478001Y-78608324D01*
X157464738Y-78675001D01*
X157478001Y-78741677D01*
X157478001Y-78741678D01*
X157517281Y-78939152D01*
X157666911Y-79163090D01*
X157723441Y-79200862D01*
X157923001Y-79400423D01*
X157923000Y-82263322D01*
X157923000Y-82849578D01*
X155159579Y-85613000D01*
X149828062Y-85613000D01*
X149882082Y-85558980D01*
X149992000Y-85293615D01*
X149992000Y-85244000D01*
X153897815Y-81338186D01*
X153945994Y-81305994D01*
X154034266Y-81173885D01*
X154073522Y-81115135D01*
X154118304Y-80890000D01*
X154107000Y-80833171D01*
X154107000Y-77264062D01*
X154142082Y-77228980D01*
X154252000Y-76963615D01*
X154252000Y-76676385D01*
X154142082Y-76411020D01*
X154107000Y-76375938D01*
X154107000Y-71515461D01*
X154854092Y-71515461D01*
X154878144Y-72165460D01*
X155080613Y-72654264D01*
X155347468Y-72752927D01*
X156320395Y-71780000D01*
X155347468Y-70807073D01*
X155080613Y-70905736D01*
X154854092Y-71515461D01*
X154107000Y-71515461D01*
X154107000Y-66794421D01*
X157478002Y-70165424D01*
G36*
X152953001Y-72360226D02*
X152953000Y-72360228D01*
X152953000Y-72418172D01*
X152953001Y-76375937D01*
X152917918Y-76411020D01*
X152808000Y-76676385D01*
X152808000Y-76963615D01*
X152917918Y-77228980D01*
X152953000Y-77264062D01*
X152953001Y-78085226D01*
X152953000Y-78085228D01*
X152953000Y-78143172D01*
X152953001Y-80650998D01*
X149176000Y-84428000D01*
X149126385Y-84428000D01*
X148861020Y-84537918D01*
X148657918Y-84741020D01*
X148548000Y-85006385D01*
X148548000Y-85293615D01*
X148657918Y-85558980D01*
X148711938Y-85613000D01*
X145759748Y-85613000D01*
X145225980Y-85079233D01*
X145263897Y-85053897D01*
X145290508Y-85014071D01*
X148367579Y-81937000D01*
X148384772Y-81937000D01*
X148596844Y-81849157D01*
X148723000Y-81723001D01*
X148723000Y-82790999D01*
X147486000Y-84028000D01*
X147436385Y-84028000D01*
X147171020Y-84137918D01*
X146967918Y-84341020D01*
X146858000Y-84606385D01*
X146858000Y-84893615D01*
X146967918Y-85158980D01*
X147171020Y-85362082D01*
X147436385Y-85472000D01*
X147723615Y-85472000D01*
X147988980Y-85362082D01*
X148192082Y-85158980D01*
X148302000Y-84893615D01*
X148302000Y-84844000D01*
X149667815Y-83478186D01*
X149715994Y-83445994D01*
X149843522Y-83255134D01*
X149877000Y-83086829D01*
X149877000Y-83086828D01*
X149888304Y-83030001D01*
X149877000Y-82973173D01*
X149877000Y-77304062D01*
X149912082Y-77268980D01*
X150022000Y-77003615D01*
X150022000Y-76716385D01*
X149912082Y-76451020D01*
X149877000Y-76415938D01*
X149877000Y-75356456D01*
X150128980Y-75252082D01*
X150332082Y-75048980D01*
X150442000Y-74783615D01*
X150442000Y-74496385D01*
X150332082Y-74231020D01*
X150323869Y-74222807D01*
X150718184Y-73828492D01*
X150718186Y-73828489D01*
X152953000Y-71593675D01*
X152953001Y-72360226D01*
X152953001Y-72360226D01*
G37*
X152953001Y-72360226D02*
X152953000Y-72360228D01*
X152953000Y-72418172D01*
X152953001Y-76375937D01*
X152917918Y-76411020D01*
X152808000Y-76676385D01*
X152808000Y-76963615D01*
X152917918Y-77228980D01*
X152953000Y-77264062D01*
X152953001Y-78085226D01*
X152953000Y-78085228D01*
X152953000Y-78143172D01*
X152953001Y-80650998D01*
X149176000Y-84428000D01*
X149126385Y-84428000D01*
X148861020Y-84537918D01*
X148657918Y-84741020D01*
X148548000Y-85006385D01*
X148548000Y-85293615D01*
X148657918Y-85558980D01*
X148711938Y-85613000D01*
X145759748Y-85613000D01*
X145225980Y-85079233D01*
X145263897Y-85053897D01*
X145290508Y-85014071D01*
X148367579Y-81937000D01*
X148384772Y-81937000D01*
X148596844Y-81849157D01*
X148723000Y-81723001D01*
X148723000Y-82790999D01*
X147486000Y-84028000D01*
X147436385Y-84028000D01*
X147171020Y-84137918D01*
X146967918Y-84341020D01*
X146858000Y-84606385D01*
X146858000Y-84893615D01*
X146967918Y-85158980D01*
X147171020Y-85362082D01*
X147436385Y-85472000D01*
X147723615Y-85472000D01*
X147988980Y-85362082D01*
X148192082Y-85158980D01*
X148302000Y-84893615D01*
X148302000Y-84844000D01*
X149667815Y-83478186D01*
X149715994Y-83445994D01*
X149843522Y-83255134D01*
X149877000Y-83086829D01*
X149877000Y-83086828D01*
X149888304Y-83030001D01*
X149877000Y-82973173D01*
X149877000Y-77304062D01*
X149912082Y-77268980D01*
X150022000Y-77003615D01*
X150022000Y-76716385D01*
X149912082Y-76451020D01*
X149877000Y-76415938D01*
X149877000Y-75356456D01*
X150128980Y-75252082D01*
X150332082Y-75048980D01*
X150442000Y-74783615D01*
X150442000Y-74496385D01*
X150332082Y-74231020D01*
X150323869Y-74222807D01*
X150718184Y-73828492D01*
X150718186Y-73828489D01*
X152953000Y-71593675D01*
X152953001Y-72360226D01*
G36*
X153713093Y-60323181D02*
X153713093Y-60323182D01*
X153884825Y-60580198D01*
X153949703Y-60623548D01*
X155773002Y-62446848D01*
X155773001Y-65609476D01*
X155757779Y-65686001D01*
X155773001Y-65762526D01*
X155818083Y-65989170D01*
X155989815Y-66246187D01*
X156054696Y-66289539D01*
X158428012Y-68662856D01*
X158428012Y-69200590D01*
X155172000Y-65944579D01*
X155172000Y-63891676D01*
X155185263Y-63824999D01*
X155172000Y-63758322D01*
X155132720Y-63560848D01*
X154983090Y-63336910D01*
X154926560Y-63299138D01*
X153172000Y-61544579D01*
X153172000Y-60505421D01*
X153653555Y-60023867D01*
X153713093Y-60323181D01*
X153713093Y-60323181D01*
G37*
X153713093Y-60323181D02*
X153713093Y-60323182D01*
X153884825Y-60580198D01*
X153949703Y-60623548D01*
X155773002Y-62446848D01*
X155773001Y-65609476D01*
X155757779Y-65686001D01*
X155773001Y-65762526D01*
X155818083Y-65989170D01*
X155989815Y-66246187D01*
X156054696Y-66289539D01*
X158428012Y-68662856D01*
X158428012Y-69200590D01*
X155172000Y-65944579D01*
X155172000Y-63891676D01*
X155185263Y-63824999D01*
X155172000Y-63758322D01*
X155132720Y-63560848D01*
X154983090Y-63336910D01*
X154926560Y-63299138D01*
X153172000Y-61544579D01*
X153172000Y-60505421D01*
X153653555Y-60023867D01*
X153713093Y-60323181D01*
G36*
X163393000Y-64896844D02*
X163393000Y-66886780D01*
X163152762Y-66527238D01*
X162697279Y-66222894D01*
X162295623Y-66143000D01*
X160724377Y-66143000D01*
X160322721Y-66222894D01*
X159867238Y-66527238D01*
X159562894Y-66982721D01*
X159460473Y-67497629D01*
X157327001Y-65364158D01*
X157327001Y-62201528D01*
X157342223Y-62125003D01*
X157305378Y-61939772D01*
X157281919Y-61821833D01*
X157110187Y-61564817D01*
X157045309Y-61521467D01*
X155886267Y-60362426D01*
X157500000Y-60362426D01*
X157608080Y-60340928D01*
X157699705Y-60279705D01*
X157760928Y-60188080D01*
X157782426Y-60080000D01*
X157782426Y-59752000D01*
X158248157Y-59752000D01*
X163393000Y-64896844D01*
X163393000Y-64896844D01*
G37*
X163393000Y-64896844D02*
X163393000Y-66886780D01*
X163152762Y-66527238D01*
X162697279Y-66222894D01*
X162295623Y-66143000D01*
X160724377Y-66143000D01*
X160322721Y-66222894D01*
X159867238Y-66527238D01*
X159562894Y-66982721D01*
X159460473Y-67497629D01*
X157327001Y-65364158D01*
X157327001Y-62201528D01*
X157342223Y-62125003D01*
X157305378Y-61939772D01*
X157281919Y-61821833D01*
X157110187Y-61564817D01*
X157045309Y-61521467D01*
X155886267Y-60362426D01*
X157500000Y-60362426D01*
X157608080Y-60340928D01*
X157699705Y-60279705D01*
X157760928Y-60188080D01*
X157782426Y-60080000D01*
X157782426Y-59752000D01*
X158248157Y-59752000D01*
X163393000Y-64896844D01*
G04 #@! TD*
M02*
