G04 #@! TF.GenerationSoftware,KiCad,Pcbnew,(5.0.0)*
G04 #@! TF.CreationDate,2018-10-03T16:43:44-04:00*
G04 #@! TF.ProjectId,gb_walkie,67625F77616C6B69652E6B696361645F,0.1a*
G04 #@! TF.SameCoordinates,Original*
G04 #@! TF.FileFunction,Soldermask,Bot*
G04 #@! TF.FilePolarity,Negative*
%FSLAX46Y46*%
G04 Gerber Fmt 4.6, Leading zero omitted, Abs format (unit mm)*
G04 Created by KiCad (PCBNEW (5.0.0)) date 10/03/18 16:43:44*
%MOMM*%
%LPD*%
G01*
G04 APERTURE LIST*
%ADD10R,2.000000X2.000000*%
%ADD11C,2.000000*%
%ADD12C,2.500000*%
%ADD13C,1.600000*%
%ADD14R,1.800000X1.800000*%
%ADD15C,1.800000*%
%ADD16R,0.840000X0.840000*%
%ADD17C,0.840000*%
%ADD18O,0.850000X1.850000*%
%ADD19R,2.300000X2.300000*%
%ADD20C,2.300000*%
%ADD21R,3.200000X2.000000*%
%ADD22R,2.500000X1.500000*%
%ADD23O,2.500000X1.500000*%
%ADD24O,3.500000X2.200000*%
%ADD25R,0.900000X1.700000*%
G04 APERTURE END LIST*
D10*
G04 #@! TO.C,BT1*
X156500000Y-59080000D03*
D11*
X156500000Y-71780000D03*
D12*
X129330000Y-54460000D03*
X129330000Y-93830000D03*
G04 #@! TD*
D11*
G04 #@! TO.C,SW2*
X136240000Y-47740000D03*
X136240000Y-43240000D03*
X142740000Y-47740000D03*
X142740000Y-43240000D03*
G04 #@! TD*
G04 #@! TO.C,SW3*
X136240000Y-40440000D03*
X136240000Y-35940000D03*
X142740000Y-40440000D03*
X142740000Y-35940000D03*
G04 #@! TD*
D13*
G04 #@! TO.C,J2*
X103350000Y-48430000D03*
X110350000Y-48430000D03*
G04 #@! TD*
D14*
G04 #@! TO.C,D1*
X115845000Y-38450000D03*
D15*
X113305000Y-38450000D03*
G04 #@! TD*
G04 #@! TO.C,D2*
X121230000Y-38450000D03*
D14*
X123770000Y-38450000D03*
G04 #@! TD*
G04 #@! TO.C,D3*
X107770000Y-38450000D03*
D15*
X105230000Y-38450000D03*
G04 #@! TD*
D16*
G04 #@! TO.C,J1*
X130330000Y-48778000D03*
D17*
X129680000Y-49778000D03*
X129030000Y-48778000D03*
X128380000Y-49778000D03*
X127730000Y-48778000D03*
D18*
X132605000Y-48998000D03*
X125455000Y-48998000D03*
G04 #@! TD*
D19*
G04 #@! TO.C,LS1*
X128300000Y-36640000D03*
D20*
X131800000Y-36640000D03*
G04 #@! TD*
D11*
G04 #@! TO.C,SW1*
X162080000Y-43970000D03*
X162080000Y-38970000D03*
D21*
X155080000Y-47070000D03*
X155080000Y-35870000D03*
D11*
X147580000Y-43970000D03*
X147580000Y-41470000D03*
D10*
X147580000Y-38970000D03*
G04 #@! TD*
D22*
G04 #@! TO.C,SW5*
X161510000Y-69620000D03*
D23*
X161510000Y-71620000D03*
X161510000Y-73620000D03*
D24*
X161510000Y-67520000D03*
X161510000Y-75720000D03*
G04 #@! TD*
D15*
G04 #@! TO.C,U4*
X116652000Y-90380000D03*
G04 #@! TD*
D25*
G04 #@! TO.C,RESET1*
X119490000Y-45280000D03*
X122890000Y-45280000D03*
G04 #@! TD*
M02*
