M48
;DRILL file {KiCad (5.0.0)} date 10/03/18 16:43:49
;FORMAT={-:-/ absolute / inch / decimal}
FMAT,2
INCH,TZ
T1C0.0138
T2C0.0157
T3C0.0173
T4C0.0197
T5C0.0354
T6C0.0394
T7C0.0402
T8C0.0433
T9C0.0472
T10C0.0591
T11C0.0630
T12C0.0709
T13C0.0984
%
G90
G05
M72
T2
X4.0248Y-3.1244
X4.0854Y-1.4496
X4.0972Y-3.2028
X4.1102Y-2.6528
X4.2087Y-2.1618
X4.2098Y-2.524
X4.2203Y-2.378
X4.2252Y-2.4728
X4.2321Y-3.3415
X4.2429Y-2.165
X4.3319Y-1.4236
X4.3524Y-2.3858
X4.3543Y-3.7949
X4.3679Y-2.8287
X4.4323Y-2.3728
X4.4476Y-2.7634
X4.5008Y-2.3494
X4.6287Y-1.4126
X4.648Y-2.5631
X4.7071Y-3.163
X4.7681Y-3.7969
X4.839Y-1.9709
X4.8717Y-3.1972
X4.9933Y-3.6063
X5.0685Y-3.5622
X5.1602Y-3.0482
X5.2161Y-2.8598
X5.2715Y-2.6102
X5.364Y-2.8711
X5.3719Y-3.0866
X5.3856Y-3.2352
X5.4043Y-3.0602
X5.4506Y-3.0837
X5.4732Y-3.4961
X5.5215Y-2.9203
X5.5333Y-2.9892
X5.5362Y-1.8295
X5.5362Y-2.8002
X5.5539Y-3.739
X5.5705Y-2.9902
X5.5728Y-3.0343
X5.5772Y-2.8945
X5.6642Y-2.7244
X5.6652Y-3.1152
X5.6661Y-3.1535
X5.7232Y-3.0736
X5.7798Y-2.9802
X5.7799Y-3.0457
X5.7833Y-3.6417
X5.8181Y-2.8606
X5.8374Y-3.2031
X5.8433Y-2.7126
X5.8463Y-2.187
X5.8606Y-2.8673
X5.8665Y-3.6252
X5.9142Y-3.0827
X5.9555Y-3.7669
X5.9634Y-2.7726
X6.0037Y-2.4341
X6.0077Y-3.1565
X6.0106Y-3.1073
X6.0445Y-2.8533
X6.0445Y-3.0787
X6.0904Y-2.6959
X6.0904Y-2.7244
X6.126Y-2.5681
X6.2006Y-3.2224
X6.2409Y-2.5063
X6.2417Y-2.5996
X6.2441Y-3.2413
X6.2675Y-3.5197
X6.3579Y-2.2185
T3
X5.0287Y-1.9204
X5.0543Y-1.9598
X5.0799Y-1.9204
X5.1055Y-1.9598
X5.1311Y-1.9204
T4
X4.113Y-3.065
X4.1386Y-2.8642
X4.5799Y-2.1457
X4.7134Y-2.7535
X4.7852Y-2.4537
X4.9713Y-2.4537
X4.9811Y-3.4335
X5.3837Y-2.6171
X5.6406Y-3.335
X5.648Y-2.4717
X5.8102Y-3.3366
X5.8768Y-3.3524
X5.878Y-3.026
X5.8945Y-2.9386
X5.8996Y-2.4067
X6.Y-2.2689
X6.0093Y-2.6791
X6.0445Y-3.0244
T5
X4.1429Y-1.5138
X4.2429Y-1.5138
X4.4608Y-1.5138
X4.5608Y-1.5138
X4.7728Y-1.5138
X4.8728Y-1.5138
X6.3587Y-2.7409
X6.3587Y-2.8197
X6.3587Y-2.8984
T6
X5.8102Y-1.5343
X5.8102Y-1.6327
X5.8102Y-1.7311
X6.3811Y-1.5343
X6.3811Y-1.7311
T7
X6.1614Y-2.326
X6.1614Y-2.826
T8
X5.3638Y-1.7024
X5.3638Y-1.8795
X5.6197Y-1.7024
X5.6197Y-1.8795
X5.3638Y-1.415
X5.3638Y-1.5921
X5.6197Y-1.415
X5.6197Y-1.5921
T9
X5.0512Y-1.4425
X5.189Y-1.4425
T10
X6.3587Y-2.6583
X6.3587Y-2.9811
T11
X4.0689Y-1.9067
X4.3445Y-1.9067
T12
X4.5926Y-3.5583
T13
X5.0917Y-2.1441
X5.0917Y-3.6941
T1
X4.9392Y-1.9487G85X4.9392Y-1.9094
G05
X5.2207Y-1.9487G85X5.2207Y-1.9094
G05
T10
X6.0799Y-1.4122G85X6.1311Y-1.4122
G05
X6.0799Y-1.8531G85X6.1311Y-1.8531
G05
T0
M30
