G04 #@! TF.GenerationSoftware,KiCad,Pcbnew,(5.0.0)*
G04 #@! TF.CreationDate,2018-10-03T16:43:44-04:00*
G04 #@! TF.ProjectId,gb_walkie,67625F77616C6B69652E6B696361645F,0.1a*
G04 #@! TF.SameCoordinates,Original*
G04 #@! TF.FileFunction,Legend,Top*
G04 #@! TF.FilePolarity,Positive*
%FSLAX46Y46*%
G04 Gerber Fmt 4.6, Leading zero omitted, Abs format (unit mm)*
G04 Created by KiCad (PCBNEW (5.0.0)) date 10/03/18 16:43:44*
%MOMM*%
%LPD*%
G01*
G04 APERTURE LIST*
%ADD10C,0.100000*%
%ADD11C,0.300000*%
%ADD12C,0.500000*%
%ADD13C,0.149860*%
%ADD14C,0.150000*%
%ADD15C,0.120000*%
%ADD16C,0.099060*%
G04 APERTURE END LIST*
D10*
X150925913Y-72340000D02*
G75*
G03X150925913Y-72340000I-205913J0D01*
G01*
D11*
X184018571Y-71759893D02*
X184018571Y-72045607D01*
X184090000Y-72188464D01*
X184161428Y-72259893D01*
X184375714Y-72402750D01*
X184661428Y-72474178D01*
X185232857Y-72474178D01*
X185375714Y-72402750D01*
X185447142Y-72331321D01*
X185518571Y-72188464D01*
X185518571Y-71902750D01*
X185447142Y-71759893D01*
X185375714Y-71688464D01*
X185232857Y-71617035D01*
X184875714Y-71617035D01*
X184732857Y-71688464D01*
X184661428Y-71759893D01*
X184590000Y-71902750D01*
X184590000Y-72188464D01*
X184661428Y-72331321D01*
X184732857Y-72402750D01*
X184875714Y-72474178D01*
X184018571Y-71117035D02*
X184018571Y-70117035D01*
X185518571Y-70759893D01*
X185375714Y-69545607D02*
X185447142Y-69474178D01*
X185518571Y-69545607D01*
X185447142Y-69617035D01*
X185375714Y-69545607D01*
X185518571Y-69545607D01*
X184518571Y-68188464D02*
X185518571Y-68188464D01*
X183947142Y-68545607D02*
X185018571Y-68902750D01*
X185018571Y-67974178D01*
X184518571Y-66759893D02*
X185518571Y-66759893D01*
X183947142Y-67117035D02*
X185018571Y-67474178D01*
X185018571Y-66545607D01*
X184018571Y-65688464D02*
X184018571Y-65545607D01*
X184090000Y-65402750D01*
X184161428Y-65331321D01*
X184304285Y-65259893D01*
X184590000Y-65188464D01*
X184947142Y-65188464D01*
X185232857Y-65259893D01*
X185375714Y-65331321D01*
X185447142Y-65402750D01*
X185518571Y-65545607D01*
X185518571Y-65688464D01*
X185447142Y-65831321D01*
X185375714Y-65902750D01*
X185232857Y-65974178D01*
X184947142Y-66045607D01*
X184590000Y-66045607D01*
X184304285Y-65974178D01*
X184161428Y-65902750D01*
X184090000Y-65831321D01*
X184018571Y-65688464D01*
X185518571Y-63402750D02*
X184518571Y-63402750D01*
X184661428Y-63402750D02*
X184590000Y-63331321D01*
X184518571Y-63188464D01*
X184518571Y-62974178D01*
X184590000Y-62831321D01*
X184732857Y-62759893D01*
X185518571Y-62759893D01*
X184732857Y-62759893D02*
X184590000Y-62688464D01*
X184518571Y-62545607D01*
X184518571Y-62331321D01*
X184590000Y-62188464D01*
X184732857Y-62117035D01*
X185518571Y-62117035D01*
X185518571Y-61402750D02*
X184518571Y-61402750D01*
X184661428Y-61402750D02*
X184590000Y-61331321D01*
X184518571Y-61188464D01*
X184518571Y-60974178D01*
X184590000Y-60831321D01*
X184732857Y-60759893D01*
X185518571Y-60759893D01*
X184732857Y-60759893D02*
X184590000Y-60688464D01*
X184518571Y-60545607D01*
X184518571Y-60331321D01*
X184590000Y-60188464D01*
X184732857Y-60117035D01*
X185518571Y-60117035D01*
X182740000Y-99980000D02*
X182740000Y-32539786D01*
X161280000Y-99980000D02*
X183326421Y-99980000D01*
X161280000Y-32539786D02*
X183326421Y-32539786D01*
X182740000Y-32539786D02*
X183326421Y-33666290D01*
X182740000Y-32539786D02*
X182153579Y-33666290D01*
X182740000Y-99980000D02*
X183326421Y-98853496D01*
X182740000Y-99980000D02*
X182153579Y-98853496D01*
X127065000Y-111738571D02*
X126779285Y-111738571D01*
X126636428Y-111810000D01*
X126565000Y-111881428D01*
X126422142Y-112095714D01*
X126350714Y-112381428D01*
X126350714Y-112952857D01*
X126422142Y-113095714D01*
X126493571Y-113167142D01*
X126636428Y-113238571D01*
X126922142Y-113238571D01*
X127065000Y-113167142D01*
X127136428Y-113095714D01*
X127207857Y-112952857D01*
X127207857Y-112595714D01*
X127136428Y-112452857D01*
X127065000Y-112381428D01*
X126922142Y-112310000D01*
X126636428Y-112310000D01*
X126493571Y-112381428D01*
X126422142Y-112452857D01*
X126350714Y-112595714D01*
X128493571Y-112238571D02*
X128493571Y-113238571D01*
X128136428Y-111667142D02*
X127779285Y-112738571D01*
X128707857Y-112738571D01*
X129279285Y-113095714D02*
X129350714Y-113167142D01*
X129279285Y-113238571D01*
X129207857Y-113167142D01*
X129279285Y-113095714D01*
X129279285Y-113238571D01*
X130065000Y-113238571D02*
X130350714Y-113238571D01*
X130493571Y-113167142D01*
X130565000Y-113095714D01*
X130707857Y-112881428D01*
X130779285Y-112595714D01*
X130779285Y-112024285D01*
X130707857Y-111881428D01*
X130636428Y-111810000D01*
X130493571Y-111738571D01*
X130207857Y-111738571D01*
X130065000Y-111810000D01*
X129993571Y-111881428D01*
X129922142Y-112024285D01*
X129922142Y-112381428D01*
X129993571Y-112524285D01*
X130065000Y-112595714D01*
X130207857Y-112667142D01*
X130493571Y-112667142D01*
X130636428Y-112595714D01*
X130707857Y-112524285D01*
X130779285Y-112381428D01*
X131279285Y-111738571D02*
X132279285Y-111738571D01*
X131636428Y-113238571D01*
X133136428Y-111738571D02*
X133279285Y-111738571D01*
X133422142Y-111810000D01*
X133493571Y-111881428D01*
X133565000Y-112024285D01*
X133636428Y-112310000D01*
X133636428Y-112667142D01*
X133565000Y-112952857D01*
X133493571Y-113095714D01*
X133422142Y-113167142D01*
X133279285Y-113238571D01*
X133136428Y-113238571D01*
X132993571Y-113167142D01*
X132922142Y-113095714D01*
X132850714Y-112952857D01*
X132779285Y-112667142D01*
X132779285Y-112310000D01*
X132850714Y-112024285D01*
X132922142Y-111881428D01*
X132993571Y-111810000D01*
X133136428Y-111738571D01*
X135422142Y-113238571D02*
X135422142Y-112238571D01*
X135422142Y-112381428D02*
X135493571Y-112310000D01*
X135636428Y-112238571D01*
X135850714Y-112238571D01*
X135993571Y-112310000D01*
X136065000Y-112452857D01*
X136065000Y-113238571D01*
X136065000Y-112452857D02*
X136136428Y-112310000D01*
X136279285Y-112238571D01*
X136493571Y-112238571D01*
X136636428Y-112310000D01*
X136707857Y-112452857D01*
X136707857Y-113238571D01*
X137422142Y-113238571D02*
X137422142Y-112238571D01*
X137422142Y-112381428D02*
X137493571Y-112310000D01*
X137636428Y-112238571D01*
X137850714Y-112238571D01*
X137993571Y-112310000D01*
X138065000Y-112452857D01*
X138065000Y-113238571D01*
X138065000Y-112452857D02*
X138136428Y-112310000D01*
X138279285Y-112238571D01*
X138493571Y-112238571D01*
X138636428Y-112310000D01*
X138707857Y-112452857D01*
X138707857Y-113238571D01*
X100080000Y-110460000D02*
X165050000Y-110460000D01*
X100080000Y-92770000D02*
X100080000Y-111046421D01*
X165050000Y-92770000D02*
X165050000Y-111046421D01*
X165050000Y-110460000D02*
X163923496Y-111046421D01*
X165050000Y-110460000D02*
X163923496Y-109873579D01*
X100080000Y-110460000D02*
X101206504Y-111046421D01*
X100080000Y-110460000D02*
X101206504Y-109873579D01*
D12*
G04 #@! TO.C,U1*
X124765107Y-57304000D02*
G75*
G03X124765107Y-57304000I-707107J0D01*
G01*
D10*
X102058000Y-57304000D02*
X124058000Y-57304000D01*
X102058000Y-75304000D02*
X102058000Y-57304000D01*
X124058000Y-75304000D02*
X102058000Y-75304000D01*
X124058000Y-57304000D02*
X124058000Y-75304000D01*
D13*
G04 #@! TO.C,Y1*
X139769540Y-74488880D02*
X136970460Y-74488880D01*
X136970460Y-74488880D02*
X136970460Y-72091120D01*
X136970460Y-72091120D02*
X139769540Y-72091120D01*
X139769540Y-72091120D02*
X139769540Y-74488880D01*
X139370760Y-74090100D02*
X139370760Y-72489900D01*
X139370760Y-72489900D02*
X137369240Y-72489900D01*
X137369240Y-72489900D02*
X137369240Y-74090100D01*
X137369240Y-74090100D02*
X139370760Y-74090100D01*
D14*
G04 #@! TO.C,SW2*
X139792076Y-45490000D02*
G75*
G03X139792076Y-45490000I-302076J0D01*
G01*
D15*
X135990000Y-44740000D02*
X135990000Y-46240000D01*
X137240000Y-48740000D02*
X141740000Y-48740000D01*
X142990000Y-46240000D02*
X142990000Y-44740000D01*
X141740000Y-42240000D02*
X137240000Y-42240000D01*
D14*
G04 #@! TO.C,SW3*
X139792076Y-38190000D02*
G75*
G03X139792076Y-38190000I-302076J0D01*
G01*
D15*
X135990000Y-37440000D02*
X135990000Y-38940000D01*
X137240000Y-41440000D02*
X141740000Y-41440000D01*
X142990000Y-38940000D02*
X142990000Y-37440000D01*
X141740000Y-34940000D02*
X137240000Y-34940000D01*
G04 #@! TO.C,J2*
X101150000Y-51530000D02*
X99850000Y-51530000D01*
X110150000Y-51530000D02*
X103350000Y-51530000D01*
X114350000Y-45430000D02*
X114350000Y-51430000D01*
X105250000Y-45330000D02*
X114350000Y-45330000D01*
X99850000Y-45330000D02*
X100450000Y-45330000D01*
X99850000Y-51030000D02*
X97850000Y-51030000D01*
X97850000Y-51030000D02*
X97850000Y-45830000D01*
X97850000Y-45830000D02*
X99850000Y-45830000D01*
X99850000Y-45830000D02*
X99850000Y-45330000D01*
X99850000Y-51530000D02*
X99850000Y-51030000D01*
G04 #@! TO.C,C1*
X147343422Y-65340000D02*
X147860578Y-65340000D01*
X147343422Y-66760000D02*
X147860578Y-66760000D01*
G04 #@! TO.C,C2*
X154766000Y-75697422D02*
X154766000Y-76214578D01*
X156186000Y-75697422D02*
X156186000Y-76214578D01*
G04 #@! TO.C,C3*
X138603578Y-70140000D02*
X138086422Y-70140000D01*
X138603578Y-71560000D02*
X138086422Y-71560000D01*
G04 #@! TO.C,C4*
X138618578Y-76460000D02*
X138101422Y-76460000D01*
X138618578Y-75040000D02*
X138101422Y-75040000D01*
G04 #@! TO.C,C5*
X140380000Y-63466422D02*
X140380000Y-63983578D01*
X138960000Y-63466422D02*
X138960000Y-63983578D01*
G04 #@! TO.C,C6*
X142430000Y-63466422D02*
X142430000Y-63983578D01*
X141010000Y-63466422D02*
X141010000Y-63983578D01*
G04 #@! TO.C,C7*
X135376000Y-59480000D02*
X133676000Y-59480000D01*
X129856000Y-59480000D02*
X131556000Y-59480000D01*
X129856000Y-63935563D02*
X129856000Y-59480000D01*
X135376000Y-63935563D02*
X135376000Y-59480000D01*
X134311563Y-65000000D02*
X133676000Y-65000000D01*
X130920437Y-65000000D02*
X131556000Y-65000000D01*
X130920437Y-65000000D02*
X129856000Y-63935563D01*
X134311563Y-65000000D02*
X135376000Y-63935563D01*
X130931000Y-65865000D02*
X130931000Y-65240000D01*
X130618500Y-65552500D02*
X131243500Y-65552500D01*
G04 #@! TO.C,C8*
X134592500Y-57022500D02*
X135217500Y-57022500D01*
X134905000Y-57335000D02*
X134905000Y-56710000D01*
X138285563Y-56470000D02*
X139350000Y-55405563D01*
X134894437Y-56470000D02*
X133830000Y-55405563D01*
X134894437Y-56470000D02*
X135530000Y-56470000D01*
X138285563Y-56470000D02*
X137650000Y-56470000D01*
X139350000Y-55405563D02*
X139350000Y-50950000D01*
X133830000Y-55405563D02*
X133830000Y-50950000D01*
X133830000Y-50950000D02*
X135530000Y-50950000D01*
X139350000Y-50950000D02*
X137650000Y-50950000D01*
G04 #@! TO.C,C9*
X144248000Y-55568578D02*
X144248000Y-55051422D01*
X142828000Y-55568578D02*
X142828000Y-55051422D01*
G04 #@! TO.C,C10*
X146844578Y-57974000D02*
X146327422Y-57974000D01*
X146844578Y-59394000D02*
X146327422Y-59394000D01*
G04 #@! TO.C,C11*
X153900000Y-52837422D02*
X153900000Y-53354578D01*
X152480000Y-52837422D02*
X152480000Y-53354578D01*
G04 #@! TO.C,C12*
X154386078Y-56600000D02*
X153868922Y-56600000D01*
X154386078Y-55180000D02*
X153868922Y-55180000D01*
G04 #@! TO.C,C13*
X150400578Y-57974000D02*
X149883422Y-57974000D01*
X150400578Y-59394000D02*
X149883422Y-59394000D01*
G04 #@! TO.C,C14*
X139676000Y-90683422D02*
X139676000Y-91200578D01*
X138256000Y-90683422D02*
X138256000Y-91200578D01*
G04 #@! TO.C,C15*
X125531422Y-83950000D02*
X126048578Y-83950000D01*
X125531422Y-82530000D02*
X126048578Y-82530000D01*
G04 #@! TO.C,C16*
X125521422Y-81980000D02*
X126038578Y-81980000D01*
X125521422Y-80560000D02*
X126038578Y-80560000D01*
G04 #@! TO.C,C17*
X148403578Y-83535000D02*
X147886422Y-83535000D01*
X148403578Y-82115000D02*
X147886422Y-82115000D01*
G04 #@! TO.C,D1*
X111585000Y-38449538D02*
G75*
G03X117135000Y-39994830I2990000J-462D01*
G01*
X111585000Y-38450462D02*
G75*
G02X117135000Y-36905170I2990000J462D01*
G01*
X117075000Y-38450000D02*
G75*
G03X117075000Y-38450000I-2500000J0D01*
G01*
X117135000Y-39995000D02*
X117135000Y-36905000D01*
G04 #@! TO.C,D2*
X125060000Y-39995000D02*
X125060000Y-36905000D01*
X125000000Y-38450000D02*
G75*
G03X125000000Y-38450000I-2500000J0D01*
G01*
X119510000Y-38450462D02*
G75*
G02X125060000Y-36905170I2990000J462D01*
G01*
X119510000Y-38449538D02*
G75*
G03X125060000Y-39994830I2990000J-462D01*
G01*
G04 #@! TO.C,D3*
X103510000Y-38449538D02*
G75*
G03X109060000Y-39994830I2990000J-462D01*
G01*
X103510000Y-38450462D02*
G75*
G02X109060000Y-36905170I2990000J462D01*
G01*
X109000000Y-38450000D02*
G75*
G03X109000000Y-38450000I-2500000J0D01*
G01*
X109060000Y-39995000D02*
X109060000Y-36905000D01*
G04 #@! TO.C,J3*
X144145000Y-99160000D02*
X143645000Y-99260000D01*
X145445000Y-98860000D02*
X144145000Y-99160000D01*
X146945000Y-98660000D02*
X145445000Y-98860000D01*
X148245000Y-98560000D02*
X146945000Y-98660000D01*
X150045000Y-98560000D02*
X148245000Y-98560000D01*
X151345000Y-98660000D02*
X150045000Y-98560000D01*
X152145000Y-98760000D02*
X151345000Y-98660000D01*
X153845000Y-99060000D02*
X152145000Y-98760000D01*
X154645000Y-99260000D02*
X153845000Y-99060000D01*
X154145000Y-99860000D02*
X144145000Y-99860000D01*
X154645000Y-98360000D02*
X154645000Y-99360000D01*
X143645000Y-98360000D02*
X143645000Y-99360000D01*
X156055000Y-98360000D02*
X142235000Y-98360000D01*
X142235000Y-84440000D02*
X156055000Y-84440000D01*
X142235000Y-87140000D02*
X142235000Y-84440000D01*
X142235000Y-98360000D02*
X142235000Y-97960000D01*
X142235000Y-95440000D02*
X142235000Y-89660000D01*
X156055000Y-87140000D02*
X156055000Y-84440000D01*
X156055000Y-95440000D02*
X156055000Y-89660000D01*
X156055000Y-98360000D02*
X156055000Y-97960000D01*
X143645000Y-99360000D02*
G75*
G03X144145000Y-99860000I500000J0D01*
G01*
X154145000Y-99860000D02*
G75*
G03X154645000Y-99360000I0J500000D01*
G01*
G04 #@! TO.C,JP5*
X161890000Y-83790000D02*
G75*
G02X161190000Y-84490000I-700000J0D01*
G01*
X160590000Y-84490000D02*
G75*
G02X159890000Y-83790000I0J700000D01*
G01*
X159890000Y-82390000D02*
G75*
G02X160590000Y-81690000I700000J0D01*
G01*
X161190000Y-81690000D02*
G75*
G02X161890000Y-82390000I0J-700000D01*
G01*
X160590000Y-81690000D02*
X161190000Y-81690000D01*
X159890000Y-83790000D02*
X159890000Y-82390000D01*
X161190000Y-84490000D02*
X160590000Y-84490000D01*
X161890000Y-82390000D02*
X161890000Y-83790000D01*
G04 #@! TO.C,JP6*
X133142000Y-75748000D02*
G75*
G02X132442000Y-76448000I-700000J0D01*
G01*
X132442000Y-74448000D02*
G75*
G02X133142000Y-75148000I0J-700000D01*
G01*
X129042000Y-75148000D02*
G75*
G02X129742000Y-74448000I700000J0D01*
G01*
X129742000Y-76448000D02*
G75*
G02X129042000Y-75748000I0J700000D01*
G01*
X132492000Y-76448000D02*
X129692000Y-76448000D01*
X129042000Y-75748000D02*
X129042000Y-75148000D01*
X129692000Y-74448000D02*
X132492000Y-74448000D01*
X133142000Y-75148000D02*
X133142000Y-75748000D01*
X132292000Y-74248000D02*
X132592000Y-73948000D01*
X132592000Y-73948000D02*
X131992000Y-73948000D01*
X132292000Y-74248000D02*
X131992000Y-73948000D01*
G04 #@! TO.C,JP7*
X105168000Y-90372000D02*
G75*
G02X104468000Y-91072000I-700000J0D01*
G01*
X103868000Y-91072000D02*
G75*
G02X103168000Y-90372000I0J700000D01*
G01*
X103168000Y-88972000D02*
G75*
G02X103868000Y-88272000I700000J0D01*
G01*
X104468000Y-88272000D02*
G75*
G02X105168000Y-88972000I0J-700000D01*
G01*
X103868000Y-88272000D02*
X104468000Y-88272000D01*
X103168000Y-90372000D02*
X103168000Y-88972000D01*
X104468000Y-91072000D02*
X103868000Y-91072000D01*
X105168000Y-88972000D02*
X105168000Y-90372000D01*
G04 #@! TO.C,JP8*
X162220000Y-62420000D02*
X161920000Y-62720000D01*
X161920000Y-62120000D02*
X161920000Y-62720000D01*
X162220000Y-62420000D02*
X161920000Y-62120000D01*
X163120000Y-61570000D02*
X163720000Y-61570000D01*
X162420000Y-65020000D02*
X162420000Y-62220000D01*
X163720000Y-65670000D02*
X163120000Y-65670000D01*
X164420000Y-62220000D02*
X164420000Y-65020000D01*
X164420000Y-64970000D02*
G75*
G02X163720000Y-65670000I-700000J0D01*
G01*
X163120000Y-65670000D02*
G75*
G02X162420000Y-64970000I0J700000D01*
G01*
X162420000Y-62270000D02*
G75*
G02X163120000Y-61570000I700000J0D01*
G01*
X163720000Y-61570000D02*
G75*
G02X164420000Y-62270000I0J-700000D01*
G01*
G04 #@! TO.C,L1*
X125561422Y-85910000D02*
X126078578Y-85910000D01*
X125561422Y-84490000D02*
X126078578Y-84490000D01*
G04 #@! TO.C,L2*
X144558578Y-83524000D02*
X144041422Y-83524000D01*
X144558578Y-82104000D02*
X144041422Y-82104000D01*
G04 #@! TO.C,L3*
X153985000Y-71796078D02*
X153985000Y-71278922D01*
X155405000Y-71796078D02*
X155405000Y-71278922D01*
G04 #@! TO.C,R1*
X102930000Y-37991422D02*
X102930000Y-38508578D01*
X101510000Y-37991422D02*
X101510000Y-38508578D01*
G04 #@! TO.C,R2*
X150137422Y-68792000D02*
X150654578Y-68792000D01*
X150137422Y-67372000D02*
X150654578Y-67372000D01*
G04 #@! TO.C,R3*
X136355000Y-75608578D02*
X136355000Y-75091422D01*
X134935000Y-75608578D02*
X134935000Y-75091422D01*
G04 #@! TO.C,R4*
X140430000Y-66941422D02*
X140430000Y-67458578D01*
X139010000Y-66941422D02*
X139010000Y-67458578D01*
G04 #@! TO.C,R5*
X133890578Y-68284000D02*
X133373422Y-68284000D01*
X133890578Y-66864000D02*
X133373422Y-66864000D01*
G04 #@! TO.C,R6*
X140985000Y-66941422D02*
X140985000Y-67458578D01*
X142405000Y-66941422D02*
X142405000Y-67458578D01*
G04 #@! TO.C,R7*
X138080000Y-61058578D02*
X138080000Y-60541422D01*
X136660000Y-61058578D02*
X136660000Y-60541422D01*
G04 #@! TO.C,R8*
X155480578Y-83778000D02*
X154963422Y-83778000D01*
X155480578Y-82358000D02*
X154963422Y-82358000D01*
G04 #@! TO.C,R9*
X128302578Y-77278000D02*
X127785422Y-77278000D01*
X128302578Y-78698000D02*
X127785422Y-78698000D01*
G04 #@! TO.C,R10*
X155480578Y-81746000D02*
X154963422Y-81746000D01*
X155480578Y-80326000D02*
X154963422Y-80326000D01*
G04 #@! TO.C,R11*
X128038578Y-89850000D02*
X127521422Y-89850000D01*
X128038578Y-88430000D02*
X127521422Y-88430000D01*
G04 #@! TO.C,R12*
X142828000Y-52163078D02*
X142828000Y-51645922D01*
X144248000Y-52163078D02*
X144248000Y-51645922D01*
G04 #@! TO.C,R14*
X109810000Y-38141422D02*
X109810000Y-38658578D01*
X111230000Y-38141422D02*
X111230000Y-38658578D01*
G04 #@! TO.C,R16*
X117760000Y-38066422D02*
X117760000Y-38583578D01*
X119180000Y-38066422D02*
X119180000Y-38583578D01*
G04 #@! TO.C,R17*
X139720000Y-94828578D02*
X139720000Y-94311422D01*
X138300000Y-94828578D02*
X138300000Y-94311422D01*
G04 #@! TO.C,SW1*
X154580000Y-41470000D02*
X155580000Y-41470000D01*
X155080000Y-40970000D02*
X155080000Y-41970000D01*
X161180000Y-44970000D02*
X161180000Y-47370000D01*
X161180000Y-40170000D02*
X161180000Y-42770000D01*
X161180000Y-35570000D02*
X161180000Y-37970000D01*
X147880000Y-37370000D02*
X147580000Y-37670000D01*
X147280000Y-37370000D02*
X147880000Y-37370000D01*
X147580000Y-37670000D02*
X147280000Y-37370000D01*
X148980000Y-35570000D02*
X148980000Y-47370000D01*
X153080000Y-35570000D02*
X148980000Y-35570000D01*
X153080000Y-47370000D02*
X148980000Y-47370000D01*
X161180000Y-47370000D02*
X157080000Y-47370000D01*
X157080000Y-35570000D02*
X161180000Y-35570000D01*
X158080000Y-41470000D02*
G75*
G03X158080000Y-41470000I-3000000J0D01*
G01*
G04 #@! TO.C,U2*
X151162000Y-79008000D02*
X150742000Y-79008000D01*
X144042000Y-79008000D02*
X144462000Y-79008000D01*
X144042000Y-71888000D02*
X144462000Y-71888000D01*
X151162000Y-71888000D02*
X151162000Y-72308000D01*
X144042000Y-79008000D02*
X144042000Y-78588000D01*
X151162000Y-79008000D02*
X151162000Y-78588000D01*
X150742000Y-71888000D02*
X150742000Y-70508000D01*
X151162000Y-71888000D02*
X150742000Y-71888000D01*
X144042000Y-71888000D02*
X144042000Y-72308000D01*
D14*
G04 #@! TO.C,U3*
X146289000Y-52299000D02*
X146289000Y-52349000D01*
X150439000Y-52299000D02*
X150439000Y-52444000D01*
X150439000Y-57449000D02*
X150439000Y-57304000D01*
X146289000Y-57449000D02*
X146289000Y-57304000D01*
X146289000Y-52299000D02*
X150439000Y-52299000D01*
X146289000Y-57449000D02*
X150439000Y-57449000D01*
X146289000Y-52349000D02*
X144889000Y-52349000D01*
D15*
G04 #@! TO.C,U5*
X160134000Y-64650000D02*
X160134000Y-62850000D01*
X156914000Y-62850000D02*
X156914000Y-65300000D01*
G04 #@! TO.C,SW6*
X139180000Y-87718000D02*
X132360000Y-87718000D01*
X139180000Y-78418000D02*
X132360000Y-78418000D01*
X139180000Y-87718000D02*
X139180000Y-86408000D01*
X139180000Y-84808000D02*
X139180000Y-83868000D01*
X139180000Y-82268000D02*
X139180000Y-81328000D01*
X139180000Y-79728000D02*
X139180000Y-78418000D01*
X132360000Y-79728000D02*
X132360000Y-78418000D01*
X132360000Y-82268000D02*
X132360000Y-81328000D01*
X132360000Y-87718000D02*
X132360000Y-86408000D01*
X132360000Y-84808000D02*
X132360000Y-83868000D01*
X139420000Y-87958000D02*
X138037000Y-87958000D01*
X139420000Y-87958000D02*
X139420000Y-86575000D01*
X137580000Y-86243000D02*
X137580000Y-84973000D01*
X137580000Y-84973000D02*
X133960000Y-84973000D01*
X133960000Y-84973000D02*
X133960000Y-86243000D01*
X133960000Y-86243000D02*
X137580000Y-86243000D01*
X137580000Y-86123000D02*
X136373333Y-86123000D01*
X137580000Y-86003000D02*
X136373333Y-86003000D01*
X137580000Y-85883000D02*
X136373333Y-85883000D01*
X137580000Y-85763000D02*
X136373333Y-85763000D01*
X137580000Y-85643000D02*
X136373333Y-85643000D01*
X137580000Y-85523000D02*
X136373333Y-85523000D01*
X137580000Y-85403000D02*
X136373333Y-85403000D01*
X137580000Y-85283000D02*
X136373333Y-85283000D01*
X137580000Y-85163000D02*
X136373333Y-85163000D01*
X137580000Y-85043000D02*
X136373333Y-85043000D01*
X136373333Y-86243000D02*
X136373333Y-84973000D01*
X137580000Y-83703000D02*
X137580000Y-82433000D01*
X137580000Y-82433000D02*
X133960000Y-82433000D01*
X133960000Y-82433000D02*
X133960000Y-83703000D01*
X133960000Y-83703000D02*
X137580000Y-83703000D01*
X137580000Y-83583000D02*
X136373333Y-83583000D01*
X137580000Y-83463000D02*
X136373333Y-83463000D01*
X137580000Y-83343000D02*
X136373333Y-83343000D01*
X137580000Y-83223000D02*
X136373333Y-83223000D01*
X137580000Y-83103000D02*
X136373333Y-83103000D01*
X137580000Y-82983000D02*
X136373333Y-82983000D01*
X137580000Y-82863000D02*
X136373333Y-82863000D01*
X137580000Y-82743000D02*
X136373333Y-82743000D01*
X137580000Y-82623000D02*
X136373333Y-82623000D01*
X137580000Y-82503000D02*
X136373333Y-82503000D01*
X136373333Y-83703000D02*
X136373333Y-82433000D01*
X137580000Y-81163000D02*
X137580000Y-79893000D01*
X137580000Y-79893000D02*
X133960000Y-79893000D01*
X133960000Y-79893000D02*
X133960000Y-81163000D01*
X133960000Y-81163000D02*
X137580000Y-81163000D01*
X137580000Y-81043000D02*
X136373333Y-81043000D01*
X137580000Y-80923000D02*
X136373333Y-80923000D01*
X137580000Y-80803000D02*
X136373333Y-80803000D01*
X137580000Y-80683000D02*
X136373333Y-80683000D01*
X137580000Y-80563000D02*
X136373333Y-80563000D01*
X137580000Y-80443000D02*
X136373333Y-80443000D01*
X137580000Y-80323000D02*
X136373333Y-80323000D01*
X137580000Y-80203000D02*
X136373333Y-80203000D01*
X137580000Y-80083000D02*
X136373333Y-80083000D01*
X137580000Y-79963000D02*
X136373333Y-79963000D01*
X136373333Y-81163000D02*
X136373333Y-79893000D01*
G04 #@! TO.C,C18*
X160758578Y-58900000D02*
X160241422Y-58900000D01*
X160758578Y-57480000D02*
X160241422Y-57480000D01*
G04 #@! TO.C,C19*
X160778578Y-59580000D02*
X160261422Y-59580000D01*
X160778578Y-61000000D02*
X160261422Y-61000000D01*
G04 #@! TO.C,C20*
X156281422Y-65930000D02*
X156798578Y-65930000D01*
X156281422Y-67350000D02*
X156798578Y-67350000D01*
D14*
G04 #@! TO.C,U4*
X123352000Y-84180000D02*
G75*
G03X123352000Y-84180000I-500000J0D01*
G01*
X107852000Y-82180000D02*
X123852000Y-82180000D01*
X107852000Y-98180000D02*
X107852000Y-82180000D01*
X123852000Y-98180000D02*
X107852000Y-98180000D01*
X123852000Y-82180000D02*
X123852000Y-98180000D01*
D15*
G04 #@! TO.C,R13*
X131818578Y-71830000D02*
X131301422Y-71830000D01*
X131818578Y-70410000D02*
X131301422Y-70410000D01*
G04 #@! TO.C,RV1*
X139180000Y-56990000D02*
X139180000Y-56660000D01*
X139180000Y-61400000D02*
X139180000Y-61069000D01*
X139180000Y-59289000D02*
X139180000Y-58770000D01*
X143920000Y-61400000D02*
X143920000Y-60270000D01*
X143920000Y-57790000D02*
X143920000Y-56660000D01*
X139180000Y-61400000D02*
X143920000Y-61400000D01*
X139180000Y-56660000D02*
X143920000Y-56660000D01*
G04 #@! TO.C,L4*
X153811422Y-49680000D02*
X154328578Y-49680000D01*
X153811422Y-51100000D02*
X154328578Y-51100000D01*
G04 #@! TO.C,L5*
X148701422Y-51280000D02*
X149218578Y-51280000D01*
X148701422Y-49860000D02*
X149218578Y-49860000D01*
G04 #@! TO.C,R15*
X158328578Y-55350000D02*
X157811422Y-55350000D01*
X158328578Y-56770000D02*
X157811422Y-56770000D01*
G04 #@! TO.C,R18*
X158328578Y-54790000D02*
X157811422Y-54790000D01*
X158328578Y-53370000D02*
X157811422Y-53370000D01*
G04 #@! TO.C,R19*
X139890000Y-55148578D02*
X139890000Y-54631422D01*
X141310000Y-55148578D02*
X141310000Y-54631422D01*
G04 #@! TO.C,R20*
X139880000Y-51231422D02*
X139880000Y-51748578D01*
X141300000Y-51231422D02*
X141300000Y-51748578D01*
G04 #@! TO.C,JP4*
X148310000Y-62810000D02*
G75*
G02X149010000Y-63510000I0J-700000D01*
G01*
X149010000Y-64110000D02*
G75*
G02X148310000Y-64810000I-700000J0D01*
G01*
X146910000Y-64810000D02*
G75*
G02X146210000Y-64110000I0J700000D01*
G01*
X146210000Y-63510000D02*
G75*
G02X146910000Y-62810000I700000J0D01*
G01*
X146210000Y-64110000D02*
X146210000Y-63510000D01*
X148310000Y-64810000D02*
X146910000Y-64810000D01*
X149010000Y-63510000D02*
X149010000Y-64110000D01*
X146910000Y-62810000D02*
X148310000Y-62810000D01*
G04 #@! TO.C,Y1*
D16*
X136188933Y-73150146D02*
X136188933Y-73387213D01*
X136022986Y-72889373D02*
X136188933Y-73150146D01*
X136354880Y-72889373D01*
X136781600Y-73387213D02*
X136497120Y-73387213D01*
X136639360Y-73387213D02*
X136639360Y-72889373D01*
X136591946Y-72960493D01*
X136544533Y-73007906D01*
X136497120Y-73031613D01*
X133118680Y-72725213D02*
X132834200Y-72725213D01*
X132976440Y-72725213D02*
X132976440Y-72227373D01*
X132929026Y-72298493D01*
X132881613Y-72345906D01*
X132834200Y-72369613D01*
X133308333Y-72274786D02*
X133332040Y-72251080D01*
X133379453Y-72227373D01*
X133497986Y-72227373D01*
X133545400Y-72251080D01*
X133569106Y-72274786D01*
X133592813Y-72322200D01*
X133592813Y-72369613D01*
X133569106Y-72440733D01*
X133284626Y-72725213D01*
X133592813Y-72725213D01*
X133806173Y-72677800D02*
X133829880Y-72701506D01*
X133806173Y-72725213D01*
X133782466Y-72701506D01*
X133806173Y-72677800D01*
X133806173Y-72725213D01*
X134019533Y-72274786D02*
X134043240Y-72251080D01*
X134090653Y-72227373D01*
X134209186Y-72227373D01*
X134256600Y-72251080D01*
X134280306Y-72274786D01*
X134304013Y-72322200D01*
X134304013Y-72369613D01*
X134280306Y-72440733D01*
X133995826Y-72725213D01*
X134304013Y-72725213D01*
X134588493Y-72440733D02*
X134541080Y-72417026D01*
X134517373Y-72393320D01*
X134493666Y-72345906D01*
X134493666Y-72322200D01*
X134517373Y-72274786D01*
X134541080Y-72251080D01*
X134588493Y-72227373D01*
X134683320Y-72227373D01*
X134730733Y-72251080D01*
X134754440Y-72274786D01*
X134778146Y-72322200D01*
X134778146Y-72345906D01*
X134754440Y-72393320D01*
X134730733Y-72417026D01*
X134683320Y-72440733D01*
X134588493Y-72440733D01*
X134541080Y-72464440D01*
X134517373Y-72488146D01*
X134493666Y-72535560D01*
X134493666Y-72630386D01*
X134517373Y-72677800D01*
X134541080Y-72701506D01*
X134588493Y-72725213D01*
X134683320Y-72725213D01*
X134730733Y-72701506D01*
X134754440Y-72677800D01*
X134778146Y-72630386D01*
X134778146Y-72535560D01*
X134754440Y-72488146D01*
X134730733Y-72464440D01*
X134683320Y-72440733D01*
X135062626Y-72440733D02*
X135015213Y-72417026D01*
X134991506Y-72393320D01*
X134967800Y-72345906D01*
X134967800Y-72322200D01*
X134991506Y-72274786D01*
X135015213Y-72251080D01*
X135062626Y-72227373D01*
X135157453Y-72227373D01*
X135204866Y-72251080D01*
X135228573Y-72274786D01*
X135252280Y-72322200D01*
X135252280Y-72345906D01*
X135228573Y-72393320D01*
X135204866Y-72417026D01*
X135157453Y-72440733D01*
X135062626Y-72440733D01*
X135015213Y-72464440D01*
X134991506Y-72488146D01*
X134967800Y-72535560D01*
X134967800Y-72630386D01*
X134991506Y-72677800D01*
X135015213Y-72701506D01*
X135062626Y-72725213D01*
X135157453Y-72725213D01*
X135204866Y-72701506D01*
X135228573Y-72677800D01*
X135252280Y-72630386D01*
X135252280Y-72535560D01*
X135228573Y-72488146D01*
X135204866Y-72464440D01*
X135157453Y-72440733D01*
X135465640Y-72725213D02*
X135465640Y-72227373D01*
X135631586Y-72582973D01*
X135797533Y-72227373D01*
X135797533Y-72725213D01*
X136034600Y-72725213D02*
X136034600Y-72227373D01*
X136034600Y-72464440D02*
X136319080Y-72464440D01*
X136319080Y-72725213D02*
X136319080Y-72227373D01*
X136508733Y-72393320D02*
X136769506Y-72393320D01*
X136508733Y-72725213D01*
X136769506Y-72725213D01*
G04 #@! TO.C,SW2*
D14*
X138276666Y-48164761D02*
X138419523Y-48212380D01*
X138657619Y-48212380D01*
X138752857Y-48164761D01*
X138800476Y-48117142D01*
X138848095Y-48021904D01*
X138848095Y-47926666D01*
X138800476Y-47831428D01*
X138752857Y-47783809D01*
X138657619Y-47736190D01*
X138467142Y-47688571D01*
X138371904Y-47640952D01*
X138324285Y-47593333D01*
X138276666Y-47498095D01*
X138276666Y-47402857D01*
X138324285Y-47307619D01*
X138371904Y-47260000D01*
X138467142Y-47212380D01*
X138705238Y-47212380D01*
X138848095Y-47260000D01*
X139181428Y-47212380D02*
X139419523Y-48212380D01*
X139610000Y-47498095D01*
X139800476Y-48212380D01*
X140038571Y-47212380D01*
X140371904Y-47307619D02*
X140419523Y-47260000D01*
X140514761Y-47212380D01*
X140752857Y-47212380D01*
X140848095Y-47260000D01*
X140895714Y-47307619D01*
X140943333Y-47402857D01*
X140943333Y-47498095D01*
X140895714Y-47640952D01*
X140324285Y-48212380D01*
X140943333Y-48212380D01*
G04 #@! TO.C,SW3*
X138086666Y-40684761D02*
X138229523Y-40732380D01*
X138467619Y-40732380D01*
X138562857Y-40684761D01*
X138610476Y-40637142D01*
X138658095Y-40541904D01*
X138658095Y-40446666D01*
X138610476Y-40351428D01*
X138562857Y-40303809D01*
X138467619Y-40256190D01*
X138277142Y-40208571D01*
X138181904Y-40160952D01*
X138134285Y-40113333D01*
X138086666Y-40018095D01*
X138086666Y-39922857D01*
X138134285Y-39827619D01*
X138181904Y-39780000D01*
X138277142Y-39732380D01*
X138515238Y-39732380D01*
X138658095Y-39780000D01*
X138991428Y-39732380D02*
X139229523Y-40732380D01*
X139420000Y-40018095D01*
X139610476Y-40732380D01*
X139848571Y-39732380D01*
X140134285Y-39732380D02*
X140753333Y-39732380D01*
X140420000Y-40113333D01*
X140562857Y-40113333D01*
X140658095Y-40160952D01*
X140705714Y-40208571D01*
X140753333Y-40303809D01*
X140753333Y-40541904D01*
X140705714Y-40637142D01*
X140658095Y-40684761D01*
X140562857Y-40732380D01*
X140277142Y-40732380D01*
X140181904Y-40684761D01*
X140134285Y-40637142D01*
G04 #@! TO.C,J2*
X98616666Y-46282380D02*
X98616666Y-46996666D01*
X98569047Y-47139523D01*
X98473809Y-47234761D01*
X98330952Y-47282380D01*
X98235714Y-47282380D01*
X99045238Y-46377619D02*
X99092857Y-46330000D01*
X99188095Y-46282380D01*
X99426190Y-46282380D01*
X99521428Y-46330000D01*
X99569047Y-46377619D01*
X99616666Y-46472857D01*
X99616666Y-46568095D01*
X99569047Y-46710952D01*
X98997619Y-47282380D01*
X99616666Y-47282380D01*
G04 #@! TO.C,C1*
X144641333Y-66407142D02*
X144593714Y-66454761D01*
X144450857Y-66502380D01*
X144355619Y-66502380D01*
X144212761Y-66454761D01*
X144117523Y-66359523D01*
X144069904Y-66264285D01*
X144022285Y-66073809D01*
X144022285Y-65930952D01*
X144069904Y-65740476D01*
X144117523Y-65645238D01*
X144212761Y-65550000D01*
X144355619Y-65502380D01*
X144450857Y-65502380D01*
X144593714Y-65550000D01*
X144641333Y-65597619D01*
X145593714Y-66502380D02*
X145022285Y-66502380D01*
X145308000Y-66502380D02*
X145308000Y-65502380D01*
X145212761Y-65645238D01*
X145117523Y-65740476D01*
X145022285Y-65788095D01*
G04 #@! TO.C,C2*
X155833142Y-73582666D02*
X155880761Y-73630285D01*
X155928380Y-73773142D01*
X155928380Y-73868380D01*
X155880761Y-74011238D01*
X155785523Y-74106476D01*
X155690285Y-74154095D01*
X155499809Y-74201714D01*
X155356952Y-74201714D01*
X155166476Y-74154095D01*
X155071238Y-74106476D01*
X154976000Y-74011238D01*
X154928380Y-73868380D01*
X154928380Y-73773142D01*
X154976000Y-73630285D01*
X155023619Y-73582666D01*
X155023619Y-73201714D02*
X154976000Y-73154095D01*
X154928380Y-73058857D01*
X154928380Y-72820761D01*
X154976000Y-72725523D01*
X155023619Y-72677904D01*
X155118857Y-72630285D01*
X155214095Y-72630285D01*
X155356952Y-72677904D01*
X155928380Y-73249333D01*
X155928380Y-72630285D01*
G04 #@! TO.C,C4*
X138180333Y-77797142D02*
X138132714Y-77844761D01*
X137989857Y-77892380D01*
X137894619Y-77892380D01*
X137751761Y-77844761D01*
X137656523Y-77749523D01*
X137608904Y-77654285D01*
X137561285Y-77463809D01*
X137561285Y-77320952D01*
X137608904Y-77130476D01*
X137656523Y-77035238D01*
X137751761Y-76940000D01*
X137894619Y-76892380D01*
X137989857Y-76892380D01*
X138132714Y-76940000D01*
X138180333Y-76987619D01*
X139037476Y-77225714D02*
X139037476Y-77892380D01*
X138799380Y-76844761D02*
X138561285Y-77559047D01*
X139180333Y-77559047D01*
G04 #@! TO.C,C5*
X138337142Y-64026666D02*
X138384761Y-64074285D01*
X138432380Y-64217142D01*
X138432380Y-64312380D01*
X138384761Y-64455238D01*
X138289523Y-64550476D01*
X138194285Y-64598095D01*
X138003809Y-64645714D01*
X137860952Y-64645714D01*
X137670476Y-64598095D01*
X137575238Y-64550476D01*
X137480000Y-64455238D01*
X137432380Y-64312380D01*
X137432380Y-64217142D01*
X137480000Y-64074285D01*
X137527619Y-64026666D01*
X137432380Y-63121904D02*
X137432380Y-63598095D01*
X137908571Y-63645714D01*
X137860952Y-63598095D01*
X137813333Y-63502857D01*
X137813333Y-63264761D01*
X137860952Y-63169523D01*
X137908571Y-63121904D01*
X138003809Y-63074285D01*
X138241904Y-63074285D01*
X138337142Y-63121904D01*
X138384761Y-63169523D01*
X138432380Y-63264761D01*
X138432380Y-63502857D01*
X138384761Y-63598095D01*
X138337142Y-63645714D01*
G04 #@! TO.C,C6*
X143817142Y-64486666D02*
X143864761Y-64534285D01*
X143912380Y-64677142D01*
X143912380Y-64772380D01*
X143864761Y-64915238D01*
X143769523Y-65010476D01*
X143674285Y-65058095D01*
X143483809Y-65105714D01*
X143340952Y-65105714D01*
X143150476Y-65058095D01*
X143055238Y-65010476D01*
X142960000Y-64915238D01*
X142912380Y-64772380D01*
X142912380Y-64677142D01*
X142960000Y-64534285D01*
X143007619Y-64486666D01*
X142912380Y-63629523D02*
X142912380Y-63820000D01*
X142960000Y-63915238D01*
X143007619Y-63962857D01*
X143150476Y-64058095D01*
X143340952Y-64105714D01*
X143721904Y-64105714D01*
X143817142Y-64058095D01*
X143864761Y-64010476D01*
X143912380Y-63915238D01*
X143912380Y-63724761D01*
X143864761Y-63629523D01*
X143817142Y-63581904D01*
X143721904Y-63534285D01*
X143483809Y-63534285D01*
X143388571Y-63581904D01*
X143340952Y-63629523D01*
X143293333Y-63724761D01*
X143293333Y-63915238D01*
X143340952Y-64010476D01*
X143388571Y-64058095D01*
X143483809Y-64105714D01*
G04 #@! TO.C,C7*
X129273142Y-62406666D02*
X129320761Y-62454285D01*
X129368380Y-62597142D01*
X129368380Y-62692380D01*
X129320761Y-62835238D01*
X129225523Y-62930476D01*
X129130285Y-62978095D01*
X128939809Y-63025714D01*
X128796952Y-63025714D01*
X128606476Y-62978095D01*
X128511238Y-62930476D01*
X128416000Y-62835238D01*
X128368380Y-62692380D01*
X128368380Y-62597142D01*
X128416000Y-62454285D01*
X128463619Y-62406666D01*
X128368380Y-62073333D02*
X128368380Y-61406666D01*
X129368380Y-61835238D01*
G04 #@! TO.C,C8*
X133247142Y-53876666D02*
X133294761Y-53924285D01*
X133342380Y-54067142D01*
X133342380Y-54162380D01*
X133294761Y-54305238D01*
X133199523Y-54400476D01*
X133104285Y-54448095D01*
X132913809Y-54495714D01*
X132770952Y-54495714D01*
X132580476Y-54448095D01*
X132485238Y-54400476D01*
X132390000Y-54305238D01*
X132342380Y-54162380D01*
X132342380Y-54067142D01*
X132390000Y-53924285D01*
X132437619Y-53876666D01*
X132770952Y-53305238D02*
X132723333Y-53400476D01*
X132675714Y-53448095D01*
X132580476Y-53495714D01*
X132532857Y-53495714D01*
X132437619Y-53448095D01*
X132390000Y-53400476D01*
X132342380Y-53305238D01*
X132342380Y-53114761D01*
X132390000Y-53019523D01*
X132437619Y-52971904D01*
X132532857Y-52924285D01*
X132580476Y-52924285D01*
X132675714Y-52971904D01*
X132723333Y-53019523D01*
X132770952Y-53114761D01*
X132770952Y-53305238D01*
X132818571Y-53400476D01*
X132866190Y-53448095D01*
X132961428Y-53495714D01*
X133151904Y-53495714D01*
X133247142Y-53448095D01*
X133294761Y-53400476D01*
X133342380Y-53305238D01*
X133342380Y-53114761D01*
X133294761Y-53019523D01*
X133247142Y-52971904D01*
X133151904Y-52924285D01*
X132961428Y-52924285D01*
X132866190Y-52971904D01*
X132818571Y-53019523D01*
X132770952Y-53114761D01*
G04 #@! TO.C,C9*
X142487142Y-55836666D02*
X142534761Y-55884285D01*
X142582380Y-56027142D01*
X142582380Y-56122380D01*
X142534761Y-56265238D01*
X142439523Y-56360476D01*
X142344285Y-56408095D01*
X142153809Y-56455714D01*
X142010952Y-56455714D01*
X141820476Y-56408095D01*
X141725238Y-56360476D01*
X141630000Y-56265238D01*
X141582380Y-56122380D01*
X141582380Y-56027142D01*
X141630000Y-55884285D01*
X141677619Y-55836666D01*
X142582380Y-55360476D02*
X142582380Y-55170000D01*
X142534761Y-55074761D01*
X142487142Y-55027142D01*
X142344285Y-54931904D01*
X142153809Y-54884285D01*
X141772857Y-54884285D01*
X141677619Y-54931904D01*
X141630000Y-54979523D01*
X141582380Y-55074761D01*
X141582380Y-55265238D01*
X141630000Y-55360476D01*
X141677619Y-55408095D01*
X141772857Y-55455714D01*
X142010952Y-55455714D01*
X142106190Y-55408095D01*
X142153809Y-55360476D01*
X142201428Y-55265238D01*
X142201428Y-55074761D01*
X142153809Y-54979523D01*
X142106190Y-54931904D01*
X142010952Y-54884285D01*
G04 #@! TO.C,C10*
X145943142Y-60691142D02*
X145895523Y-60738761D01*
X145752666Y-60786380D01*
X145657428Y-60786380D01*
X145514571Y-60738761D01*
X145419333Y-60643523D01*
X145371714Y-60548285D01*
X145324095Y-60357809D01*
X145324095Y-60214952D01*
X145371714Y-60024476D01*
X145419333Y-59929238D01*
X145514571Y-59834000D01*
X145657428Y-59786380D01*
X145752666Y-59786380D01*
X145895523Y-59834000D01*
X145943142Y-59881619D01*
X146895523Y-60786380D02*
X146324095Y-60786380D01*
X146609809Y-60786380D02*
X146609809Y-59786380D01*
X146514571Y-59929238D01*
X146419333Y-60024476D01*
X146324095Y-60072095D01*
X147514571Y-59786380D02*
X147609809Y-59786380D01*
X147705047Y-59834000D01*
X147752666Y-59881619D01*
X147800285Y-59976857D01*
X147847904Y-60167333D01*
X147847904Y-60405428D01*
X147800285Y-60595904D01*
X147752666Y-60691142D01*
X147705047Y-60738761D01*
X147609809Y-60786380D01*
X147514571Y-60786380D01*
X147419333Y-60738761D01*
X147371714Y-60691142D01*
X147324095Y-60595904D01*
X147276476Y-60405428D01*
X147276476Y-60167333D01*
X147324095Y-59976857D01*
X147371714Y-59881619D01*
X147419333Y-59834000D01*
X147514571Y-59786380D01*
G04 #@! TO.C,C11*
X155057142Y-52507142D02*
X155009523Y-52554761D01*
X154866666Y-52602380D01*
X154771428Y-52602380D01*
X154628571Y-52554761D01*
X154533333Y-52459523D01*
X154485714Y-52364285D01*
X154438095Y-52173809D01*
X154438095Y-52030952D01*
X154485714Y-51840476D01*
X154533333Y-51745238D01*
X154628571Y-51650000D01*
X154771428Y-51602380D01*
X154866666Y-51602380D01*
X155009523Y-51650000D01*
X155057142Y-51697619D01*
X156009523Y-52602380D02*
X155438095Y-52602380D01*
X155723809Y-52602380D02*
X155723809Y-51602380D01*
X155628571Y-51745238D01*
X155533333Y-51840476D01*
X155438095Y-51888095D01*
X156961904Y-52602380D02*
X156390476Y-52602380D01*
X156676190Y-52602380D02*
X156676190Y-51602380D01*
X156580952Y-51745238D01*
X156485714Y-51840476D01*
X156390476Y-51888095D01*
G04 #@! TO.C,C12*
X153457142Y-57867142D02*
X153409523Y-57914761D01*
X153266666Y-57962380D01*
X153171428Y-57962380D01*
X153028571Y-57914761D01*
X152933333Y-57819523D01*
X152885714Y-57724285D01*
X152838095Y-57533809D01*
X152838095Y-57390952D01*
X152885714Y-57200476D01*
X152933333Y-57105238D01*
X153028571Y-57010000D01*
X153171428Y-56962380D01*
X153266666Y-56962380D01*
X153409523Y-57010000D01*
X153457142Y-57057619D01*
X154409523Y-57962380D02*
X153838095Y-57962380D01*
X154123809Y-57962380D02*
X154123809Y-56962380D01*
X154028571Y-57105238D01*
X153933333Y-57200476D01*
X153838095Y-57248095D01*
X154790476Y-57057619D02*
X154838095Y-57010000D01*
X154933333Y-56962380D01*
X155171428Y-56962380D01*
X155266666Y-57010000D01*
X155314285Y-57057619D01*
X155361904Y-57152857D01*
X155361904Y-57248095D01*
X155314285Y-57390952D01*
X154742857Y-57962380D01*
X155361904Y-57962380D01*
G04 #@! TO.C,C13*
X149499142Y-60819142D02*
X149451523Y-60866761D01*
X149308666Y-60914380D01*
X149213428Y-60914380D01*
X149070571Y-60866761D01*
X148975333Y-60771523D01*
X148927714Y-60676285D01*
X148880095Y-60485809D01*
X148880095Y-60342952D01*
X148927714Y-60152476D01*
X148975333Y-60057238D01*
X149070571Y-59962000D01*
X149213428Y-59914380D01*
X149308666Y-59914380D01*
X149451523Y-59962000D01*
X149499142Y-60009619D01*
X150451523Y-60914380D02*
X149880095Y-60914380D01*
X150165809Y-60914380D02*
X150165809Y-59914380D01*
X150070571Y-60057238D01*
X149975333Y-60152476D01*
X149880095Y-60200095D01*
X150784857Y-59914380D02*
X151403904Y-59914380D01*
X151070571Y-60295333D01*
X151213428Y-60295333D01*
X151308666Y-60342952D01*
X151356285Y-60390571D01*
X151403904Y-60485809D01*
X151403904Y-60723904D01*
X151356285Y-60819142D01*
X151308666Y-60866761D01*
X151213428Y-60914380D01*
X150927714Y-60914380D01*
X150832476Y-60866761D01*
X150784857Y-60819142D01*
G04 #@! TO.C,C14*
X137545142Y-91584857D02*
X137592761Y-91632476D01*
X137640380Y-91775333D01*
X137640380Y-91870571D01*
X137592761Y-92013428D01*
X137497523Y-92108666D01*
X137402285Y-92156285D01*
X137211809Y-92203904D01*
X137068952Y-92203904D01*
X136878476Y-92156285D01*
X136783238Y-92108666D01*
X136688000Y-92013428D01*
X136640380Y-91870571D01*
X136640380Y-91775333D01*
X136688000Y-91632476D01*
X136735619Y-91584857D01*
X137640380Y-90632476D02*
X137640380Y-91203904D01*
X137640380Y-90918190D02*
X136640380Y-90918190D01*
X136783238Y-91013428D01*
X136878476Y-91108666D01*
X136926095Y-91203904D01*
X136973714Y-89775333D02*
X137640380Y-89775333D01*
X136592761Y-90013428D02*
X137307047Y-90251523D01*
X137307047Y-89632476D01*
G04 #@! TO.C,C15*
X128237142Y-83687142D02*
X128189523Y-83734761D01*
X128046666Y-83782380D01*
X127951428Y-83782380D01*
X127808571Y-83734761D01*
X127713333Y-83639523D01*
X127665714Y-83544285D01*
X127618095Y-83353809D01*
X127618095Y-83210952D01*
X127665714Y-83020476D01*
X127713333Y-82925238D01*
X127808571Y-82830000D01*
X127951428Y-82782380D01*
X128046666Y-82782380D01*
X128189523Y-82830000D01*
X128237142Y-82877619D01*
X129189523Y-83782380D02*
X128618095Y-83782380D01*
X128903809Y-83782380D02*
X128903809Y-82782380D01*
X128808571Y-82925238D01*
X128713333Y-83020476D01*
X128618095Y-83068095D01*
X130094285Y-82782380D02*
X129618095Y-82782380D01*
X129570476Y-83258571D01*
X129618095Y-83210952D01*
X129713333Y-83163333D01*
X129951428Y-83163333D01*
X130046666Y-83210952D01*
X130094285Y-83258571D01*
X130141904Y-83353809D01*
X130141904Y-83591904D01*
X130094285Y-83687142D01*
X130046666Y-83734761D01*
X129951428Y-83782380D01*
X129713333Y-83782380D01*
X129618095Y-83734761D01*
X129570476Y-83687142D01*
G04 #@! TO.C,C16*
X128277142Y-81587142D02*
X128229523Y-81634761D01*
X128086666Y-81682380D01*
X127991428Y-81682380D01*
X127848571Y-81634761D01*
X127753333Y-81539523D01*
X127705714Y-81444285D01*
X127658095Y-81253809D01*
X127658095Y-81110952D01*
X127705714Y-80920476D01*
X127753333Y-80825238D01*
X127848571Y-80730000D01*
X127991428Y-80682380D01*
X128086666Y-80682380D01*
X128229523Y-80730000D01*
X128277142Y-80777619D01*
X129229523Y-81682380D02*
X128658095Y-81682380D01*
X128943809Y-81682380D02*
X128943809Y-80682380D01*
X128848571Y-80825238D01*
X128753333Y-80920476D01*
X128658095Y-80968095D01*
X130086666Y-80682380D02*
X129896190Y-80682380D01*
X129800952Y-80730000D01*
X129753333Y-80777619D01*
X129658095Y-80920476D01*
X129610476Y-81110952D01*
X129610476Y-81491904D01*
X129658095Y-81587142D01*
X129705714Y-81634761D01*
X129800952Y-81682380D01*
X129991428Y-81682380D01*
X130086666Y-81634761D01*
X130134285Y-81587142D01*
X130181904Y-81491904D01*
X130181904Y-81253809D01*
X130134285Y-81158571D01*
X130086666Y-81110952D01*
X129991428Y-81063333D01*
X129800952Y-81063333D01*
X129705714Y-81110952D01*
X129658095Y-81158571D01*
X129610476Y-81253809D01*
G04 #@! TO.C,C17*
X150677142Y-83332142D02*
X150629523Y-83379761D01*
X150486666Y-83427380D01*
X150391428Y-83427380D01*
X150248571Y-83379761D01*
X150153333Y-83284523D01*
X150105714Y-83189285D01*
X150058095Y-82998809D01*
X150058095Y-82855952D01*
X150105714Y-82665476D01*
X150153333Y-82570238D01*
X150248571Y-82475000D01*
X150391428Y-82427380D01*
X150486666Y-82427380D01*
X150629523Y-82475000D01*
X150677142Y-82522619D01*
X151629523Y-83427380D02*
X151058095Y-83427380D01*
X151343809Y-83427380D02*
X151343809Y-82427380D01*
X151248571Y-82570238D01*
X151153333Y-82665476D01*
X151058095Y-82713095D01*
X151962857Y-82427380D02*
X152629523Y-82427380D01*
X152200952Y-83427380D01*
G04 #@! TO.C,D1*
X113811904Y-37292380D02*
X113811904Y-36292380D01*
X114050000Y-36292380D01*
X114192857Y-36340000D01*
X114288095Y-36435238D01*
X114335714Y-36530476D01*
X114383333Y-36720952D01*
X114383333Y-36863809D01*
X114335714Y-37054285D01*
X114288095Y-37149523D01*
X114192857Y-37244761D01*
X114050000Y-37292380D01*
X113811904Y-37292380D01*
X115335714Y-37292380D02*
X114764285Y-37292380D01*
X115050000Y-37292380D02*
X115050000Y-36292380D01*
X114954761Y-36435238D01*
X114859523Y-36530476D01*
X114764285Y-36578095D01*
G04 #@! TO.C,D2*
X121801904Y-37212380D02*
X121801904Y-36212380D01*
X122040000Y-36212380D01*
X122182857Y-36260000D01*
X122278095Y-36355238D01*
X122325714Y-36450476D01*
X122373333Y-36640952D01*
X122373333Y-36783809D01*
X122325714Y-36974285D01*
X122278095Y-37069523D01*
X122182857Y-37164761D01*
X122040000Y-37212380D01*
X121801904Y-37212380D01*
X122754285Y-36307619D02*
X122801904Y-36260000D01*
X122897142Y-36212380D01*
X123135238Y-36212380D01*
X123230476Y-36260000D01*
X123278095Y-36307619D01*
X123325714Y-36402857D01*
X123325714Y-36498095D01*
X123278095Y-36640952D01*
X122706666Y-37212380D01*
X123325714Y-37212380D01*
G04 #@! TO.C,D3*
X105771904Y-37332380D02*
X105771904Y-36332380D01*
X106010000Y-36332380D01*
X106152857Y-36380000D01*
X106248095Y-36475238D01*
X106295714Y-36570476D01*
X106343333Y-36760952D01*
X106343333Y-36903809D01*
X106295714Y-37094285D01*
X106248095Y-37189523D01*
X106152857Y-37284761D01*
X106010000Y-37332380D01*
X105771904Y-37332380D01*
X106676666Y-36332380D02*
X107295714Y-36332380D01*
X106962380Y-36713333D01*
X107105238Y-36713333D01*
X107200476Y-36760952D01*
X107248095Y-36808571D01*
X107295714Y-36903809D01*
X107295714Y-37141904D01*
X107248095Y-37237142D01*
X107200476Y-37284761D01*
X107105238Y-37332380D01*
X106819523Y-37332380D01*
X106724285Y-37284761D01*
X106676666Y-37237142D01*
G04 #@! TO.C,J3*
X148811666Y-99992380D02*
X148811666Y-100706666D01*
X148764047Y-100849523D01*
X148668809Y-100944761D01*
X148525952Y-100992380D01*
X148430714Y-100992380D01*
X149192619Y-99992380D02*
X149811666Y-99992380D01*
X149478333Y-100373333D01*
X149621190Y-100373333D01*
X149716428Y-100420952D01*
X149764047Y-100468571D01*
X149811666Y-100563809D01*
X149811666Y-100801904D01*
X149764047Y-100897142D01*
X149716428Y-100944761D01*
X149621190Y-100992380D01*
X149335476Y-100992380D01*
X149240238Y-100944761D01*
X149192619Y-100897142D01*
G04 #@! TO.C,JP5*
X160342380Y-81129333D02*
X161056666Y-81129333D01*
X161199523Y-81176952D01*
X161294761Y-81272190D01*
X161342380Y-81415047D01*
X161342380Y-81510285D01*
X161342380Y-80653142D02*
X160342380Y-80653142D01*
X160342380Y-80272190D01*
X160390000Y-80176952D01*
X160437619Y-80129333D01*
X160532857Y-80081714D01*
X160675714Y-80081714D01*
X160770952Y-80129333D01*
X160818571Y-80176952D01*
X160866190Y-80272190D01*
X160866190Y-80653142D01*
X160342380Y-79176952D02*
X160342380Y-79653142D01*
X160818571Y-79700761D01*
X160770952Y-79653142D01*
X160723333Y-79557904D01*
X160723333Y-79319809D01*
X160770952Y-79224571D01*
X160818571Y-79176952D01*
X160913809Y-79129333D01*
X161151904Y-79129333D01*
X161247142Y-79176952D01*
X161294761Y-79224571D01*
X161342380Y-79319809D01*
X161342380Y-79557904D01*
X161294761Y-79653142D01*
X161247142Y-79700761D01*
G04 #@! TO.C,JP6*
X130258666Y-76700380D02*
X130258666Y-77414666D01*
X130211047Y-77557523D01*
X130115809Y-77652761D01*
X129972952Y-77700380D01*
X129877714Y-77700380D01*
X130734857Y-77700380D02*
X130734857Y-76700380D01*
X131115809Y-76700380D01*
X131211047Y-76748000D01*
X131258666Y-76795619D01*
X131306285Y-76890857D01*
X131306285Y-77033714D01*
X131258666Y-77128952D01*
X131211047Y-77176571D01*
X131115809Y-77224190D01*
X130734857Y-77224190D01*
X132163428Y-76700380D02*
X131972952Y-76700380D01*
X131877714Y-76748000D01*
X131830095Y-76795619D01*
X131734857Y-76938476D01*
X131687238Y-77128952D01*
X131687238Y-77509904D01*
X131734857Y-77605142D01*
X131782476Y-77652761D01*
X131877714Y-77700380D01*
X132068190Y-77700380D01*
X132163428Y-77652761D01*
X132211047Y-77605142D01*
X132258666Y-77509904D01*
X132258666Y-77271809D01*
X132211047Y-77176571D01*
X132163428Y-77128952D01*
X132068190Y-77081333D01*
X131877714Y-77081333D01*
X131782476Y-77128952D01*
X131734857Y-77176571D01*
X131687238Y-77271809D01*
G04 #@! TO.C,JP7*
X101917381Y-90505333D02*
X102631667Y-90505333D01*
X102774524Y-90552952D01*
X102869762Y-90648190D01*
X102917381Y-90791047D01*
X102917381Y-90886285D01*
X102917381Y-90029142D02*
X101917381Y-90029142D01*
X101917381Y-89648190D01*
X101965001Y-89552952D01*
X102012620Y-89505333D01*
X102107858Y-89457714D01*
X102250715Y-89457714D01*
X102345953Y-89505333D01*
X102393572Y-89552952D01*
X102441191Y-89648190D01*
X102441191Y-90029142D01*
X101917381Y-89124380D02*
X101917381Y-88457714D01*
X102917381Y-88886285D01*
G04 #@! TO.C,JP8*
X163662380Y-68103333D02*
X164376666Y-68103333D01*
X164519523Y-68150952D01*
X164614761Y-68246190D01*
X164662380Y-68389047D01*
X164662380Y-68484285D01*
X164662380Y-67627142D02*
X163662380Y-67627142D01*
X163662380Y-67246190D01*
X163710000Y-67150952D01*
X163757619Y-67103333D01*
X163852857Y-67055714D01*
X163995714Y-67055714D01*
X164090952Y-67103333D01*
X164138571Y-67150952D01*
X164186190Y-67246190D01*
X164186190Y-67627142D01*
X164090952Y-66484285D02*
X164043333Y-66579523D01*
X163995714Y-66627142D01*
X163900476Y-66674761D01*
X163852857Y-66674761D01*
X163757619Y-66627142D01*
X163710000Y-66579523D01*
X163662380Y-66484285D01*
X163662380Y-66293809D01*
X163710000Y-66198571D01*
X163757619Y-66150952D01*
X163852857Y-66103333D01*
X163900476Y-66103333D01*
X163995714Y-66150952D01*
X164043333Y-66198571D01*
X164090952Y-66293809D01*
X164090952Y-66484285D01*
X164138571Y-66579523D01*
X164186190Y-66627142D01*
X164281428Y-66674761D01*
X164471904Y-66674761D01*
X164567142Y-66627142D01*
X164614761Y-66579523D01*
X164662380Y-66484285D01*
X164662380Y-66293809D01*
X164614761Y-66198571D01*
X164567142Y-66150952D01*
X164471904Y-66103333D01*
X164281428Y-66103333D01*
X164186190Y-66150952D01*
X164138571Y-66198571D01*
X164090952Y-66293809D01*
G04 #@! TO.C,L1*
X128423333Y-85612380D02*
X127947142Y-85612380D01*
X127947142Y-84612380D01*
X129280476Y-85612380D02*
X128709047Y-85612380D01*
X128994761Y-85612380D02*
X128994761Y-84612380D01*
X128899523Y-84755238D01*
X128804285Y-84850476D01*
X128709047Y-84898095D01*
G04 #@! TO.C,L2*
X141503333Y-83302380D02*
X141027142Y-83302380D01*
X141027142Y-82302380D01*
X141789047Y-82397619D02*
X141836666Y-82350000D01*
X141931904Y-82302380D01*
X142170000Y-82302380D01*
X142265238Y-82350000D01*
X142312857Y-82397619D01*
X142360476Y-82492857D01*
X142360476Y-82588095D01*
X142312857Y-82730952D01*
X141741428Y-83302380D01*
X142360476Y-83302380D01*
G04 #@! TO.C,L3*
X153497380Y-71704166D02*
X153497380Y-72180357D01*
X152497380Y-72180357D01*
X152497380Y-71466071D02*
X152497380Y-70847023D01*
X152878333Y-71180357D01*
X152878333Y-71037500D01*
X152925952Y-70942261D01*
X152973571Y-70894642D01*
X153068809Y-70847023D01*
X153306904Y-70847023D01*
X153402142Y-70894642D01*
X153449761Y-70942261D01*
X153497380Y-71037500D01*
X153497380Y-71323214D01*
X153449761Y-71418452D01*
X153402142Y-71466071D01*
G04 #@! TO.C,R1*
X102672380Y-35866666D02*
X102196190Y-36200000D01*
X102672380Y-36438095D02*
X101672380Y-36438095D01*
X101672380Y-36057142D01*
X101720000Y-35961904D01*
X101767619Y-35914285D01*
X101862857Y-35866666D01*
X102005714Y-35866666D01*
X102100952Y-35914285D01*
X102148571Y-35961904D01*
X102196190Y-36057142D01*
X102196190Y-36438095D01*
X102672380Y-34914285D02*
X102672380Y-35485714D01*
X102672380Y-35200000D02*
X101672380Y-35200000D01*
X101815238Y-35295238D01*
X101910476Y-35390476D01*
X101958095Y-35485714D01*
G04 #@! TO.C,R2*
X150229333Y-66884380D02*
X149896000Y-66408190D01*
X149657904Y-66884380D02*
X149657904Y-65884380D01*
X150038857Y-65884380D01*
X150134095Y-65932000D01*
X150181714Y-65979619D01*
X150229333Y-66074857D01*
X150229333Y-66217714D01*
X150181714Y-66312952D01*
X150134095Y-66360571D01*
X150038857Y-66408190D01*
X149657904Y-66408190D01*
X150610285Y-65979619D02*
X150657904Y-65932000D01*
X150753142Y-65884380D01*
X150991238Y-65884380D01*
X151086476Y-65932000D01*
X151134095Y-65979619D01*
X151181714Y-66074857D01*
X151181714Y-66170095D01*
X151134095Y-66312952D01*
X150562666Y-66884380D01*
X151181714Y-66884380D01*
G04 #@! TO.C,R3*
X134447380Y-75516666D02*
X133971190Y-75850000D01*
X134447380Y-76088095D02*
X133447380Y-76088095D01*
X133447380Y-75707142D01*
X133495000Y-75611904D01*
X133542619Y-75564285D01*
X133637857Y-75516666D01*
X133780714Y-75516666D01*
X133875952Y-75564285D01*
X133923571Y-75611904D01*
X133971190Y-75707142D01*
X133971190Y-76088095D01*
X133447380Y-75183333D02*
X133447380Y-74564285D01*
X133828333Y-74897619D01*
X133828333Y-74754761D01*
X133875952Y-74659523D01*
X133923571Y-74611904D01*
X134018809Y-74564285D01*
X134256904Y-74564285D01*
X134352142Y-74611904D01*
X134399761Y-74659523D01*
X134447380Y-74754761D01*
X134447380Y-75040476D01*
X134399761Y-75135714D01*
X134352142Y-75183333D01*
G04 #@! TO.C,R4*
X138622380Y-67441666D02*
X138146190Y-67775000D01*
X138622380Y-68013095D02*
X137622380Y-68013095D01*
X137622380Y-67632142D01*
X137670000Y-67536904D01*
X137717619Y-67489285D01*
X137812857Y-67441666D01*
X137955714Y-67441666D01*
X138050952Y-67489285D01*
X138098571Y-67536904D01*
X138146190Y-67632142D01*
X138146190Y-68013095D01*
X137955714Y-66584523D02*
X138622380Y-66584523D01*
X137574761Y-66822619D02*
X138289047Y-67060714D01*
X138289047Y-66441666D01*
G04 #@! TO.C,R5*
X133465333Y-69676380D02*
X133132000Y-69200190D01*
X132893904Y-69676380D02*
X132893904Y-68676380D01*
X133274857Y-68676380D01*
X133370095Y-68724000D01*
X133417714Y-68771619D01*
X133465333Y-68866857D01*
X133465333Y-69009714D01*
X133417714Y-69104952D01*
X133370095Y-69152571D01*
X133274857Y-69200190D01*
X132893904Y-69200190D01*
X134370095Y-68676380D02*
X133893904Y-68676380D01*
X133846285Y-69152571D01*
X133893904Y-69104952D01*
X133989142Y-69057333D01*
X134227238Y-69057333D01*
X134322476Y-69104952D01*
X134370095Y-69152571D01*
X134417714Y-69247809D01*
X134417714Y-69485904D01*
X134370095Y-69581142D01*
X134322476Y-69628761D01*
X134227238Y-69676380D01*
X133989142Y-69676380D01*
X133893904Y-69628761D01*
X133846285Y-69581142D01*
G04 #@! TO.C,R6*
X143872380Y-67366666D02*
X143396190Y-67700000D01*
X143872380Y-67938095D02*
X142872380Y-67938095D01*
X142872380Y-67557142D01*
X142920000Y-67461904D01*
X142967619Y-67414285D01*
X143062857Y-67366666D01*
X143205714Y-67366666D01*
X143300952Y-67414285D01*
X143348571Y-67461904D01*
X143396190Y-67557142D01*
X143396190Y-67938095D01*
X142872380Y-66509523D02*
X142872380Y-66700000D01*
X142920000Y-66795238D01*
X142967619Y-66842857D01*
X143110476Y-66938095D01*
X143300952Y-66985714D01*
X143681904Y-66985714D01*
X143777142Y-66938095D01*
X143824761Y-66890476D01*
X143872380Y-66795238D01*
X143872380Y-66604761D01*
X143824761Y-66509523D01*
X143777142Y-66461904D01*
X143681904Y-66414285D01*
X143443809Y-66414285D01*
X143348571Y-66461904D01*
X143300952Y-66509523D01*
X143253333Y-66604761D01*
X143253333Y-66795238D01*
X143300952Y-66890476D01*
X143348571Y-66938095D01*
X143443809Y-66985714D01*
G04 #@! TO.C,R7*
X136752380Y-63666666D02*
X136276190Y-64000000D01*
X136752380Y-64238095D02*
X135752380Y-64238095D01*
X135752380Y-63857142D01*
X135800000Y-63761904D01*
X135847619Y-63714285D01*
X135942857Y-63666666D01*
X136085714Y-63666666D01*
X136180952Y-63714285D01*
X136228571Y-63761904D01*
X136276190Y-63857142D01*
X136276190Y-64238095D01*
X135752380Y-63333333D02*
X135752380Y-62666666D01*
X136752380Y-63095238D01*
G04 #@! TO.C,R8*
X157595333Y-83520380D02*
X157262000Y-83044190D01*
X157023904Y-83520380D02*
X157023904Y-82520380D01*
X157404857Y-82520380D01*
X157500095Y-82568000D01*
X157547714Y-82615619D01*
X157595333Y-82710857D01*
X157595333Y-82853714D01*
X157547714Y-82948952D01*
X157500095Y-82996571D01*
X157404857Y-83044190D01*
X157023904Y-83044190D01*
X158166761Y-82948952D02*
X158071523Y-82901333D01*
X158023904Y-82853714D01*
X157976285Y-82758476D01*
X157976285Y-82710857D01*
X158023904Y-82615619D01*
X158071523Y-82568000D01*
X158166761Y-82520380D01*
X158357238Y-82520380D01*
X158452476Y-82568000D01*
X158500095Y-82615619D01*
X158547714Y-82710857D01*
X158547714Y-82758476D01*
X158500095Y-82853714D01*
X158452476Y-82901333D01*
X158357238Y-82948952D01*
X158166761Y-82948952D01*
X158071523Y-82996571D01*
X158023904Y-83044190D01*
X157976285Y-83139428D01*
X157976285Y-83329904D01*
X158023904Y-83425142D01*
X158071523Y-83472761D01*
X158166761Y-83520380D01*
X158357238Y-83520380D01*
X158452476Y-83472761D01*
X158500095Y-83425142D01*
X158547714Y-83329904D01*
X158547714Y-83139428D01*
X158500095Y-83044190D01*
X158452476Y-82996571D01*
X158357238Y-82948952D01*
G04 #@! TO.C,R9*
X127877333Y-80090380D02*
X127544000Y-79614190D01*
X127305904Y-80090380D02*
X127305904Y-79090380D01*
X127686857Y-79090380D01*
X127782095Y-79138000D01*
X127829714Y-79185619D01*
X127877333Y-79280857D01*
X127877333Y-79423714D01*
X127829714Y-79518952D01*
X127782095Y-79566571D01*
X127686857Y-79614190D01*
X127305904Y-79614190D01*
X128353523Y-80090380D02*
X128544000Y-80090380D01*
X128639238Y-80042761D01*
X128686857Y-79995142D01*
X128782095Y-79852285D01*
X128829714Y-79661809D01*
X128829714Y-79280857D01*
X128782095Y-79185619D01*
X128734476Y-79138000D01*
X128639238Y-79090380D01*
X128448761Y-79090380D01*
X128353523Y-79138000D01*
X128305904Y-79185619D01*
X128258285Y-79280857D01*
X128258285Y-79518952D01*
X128305904Y-79614190D01*
X128353523Y-79661809D01*
X128448761Y-79709428D01*
X128639238Y-79709428D01*
X128734476Y-79661809D01*
X128782095Y-79614190D01*
X128829714Y-79518952D01*
G04 #@! TO.C,R10*
X157627142Y-81488380D02*
X157293809Y-81012190D01*
X157055714Y-81488380D02*
X157055714Y-80488380D01*
X157436666Y-80488380D01*
X157531904Y-80536000D01*
X157579523Y-80583619D01*
X157627142Y-80678857D01*
X157627142Y-80821714D01*
X157579523Y-80916952D01*
X157531904Y-80964571D01*
X157436666Y-81012190D01*
X157055714Y-81012190D01*
X158579523Y-81488380D02*
X158008095Y-81488380D01*
X158293809Y-81488380D02*
X158293809Y-80488380D01*
X158198571Y-80631238D01*
X158103333Y-80726476D01*
X158008095Y-80774095D01*
X159198571Y-80488380D02*
X159293809Y-80488380D01*
X159389047Y-80536000D01*
X159436666Y-80583619D01*
X159484285Y-80678857D01*
X159531904Y-80869333D01*
X159531904Y-81107428D01*
X159484285Y-81297904D01*
X159436666Y-81393142D01*
X159389047Y-81440761D01*
X159293809Y-81488380D01*
X159198571Y-81488380D01*
X159103333Y-81440761D01*
X159055714Y-81393142D01*
X159008095Y-81297904D01*
X158960476Y-81107428D01*
X158960476Y-80869333D01*
X159008095Y-80678857D01*
X159055714Y-80583619D01*
X159103333Y-80536000D01*
X159198571Y-80488380D01*
G04 #@! TO.C,R11*
X130185142Y-89592380D02*
X129851809Y-89116190D01*
X129613714Y-89592380D02*
X129613714Y-88592380D01*
X129994666Y-88592380D01*
X130089904Y-88640000D01*
X130137523Y-88687619D01*
X130185142Y-88782857D01*
X130185142Y-88925714D01*
X130137523Y-89020952D01*
X130089904Y-89068571D01*
X129994666Y-89116190D01*
X129613714Y-89116190D01*
X131137523Y-89592380D02*
X130566095Y-89592380D01*
X130851809Y-89592380D02*
X130851809Y-88592380D01*
X130756571Y-88735238D01*
X130661333Y-88830476D01*
X130566095Y-88878095D01*
X132089904Y-89592380D02*
X131518476Y-89592380D01*
X131804190Y-89592380D02*
X131804190Y-88592380D01*
X131708952Y-88735238D01*
X131613714Y-88830476D01*
X131518476Y-88878095D01*
G04 #@! TO.C,R12*
X143777142Y-50072380D02*
X143443809Y-49596190D01*
X143205714Y-50072380D02*
X143205714Y-49072380D01*
X143586666Y-49072380D01*
X143681904Y-49120000D01*
X143729523Y-49167619D01*
X143777142Y-49262857D01*
X143777142Y-49405714D01*
X143729523Y-49500952D01*
X143681904Y-49548571D01*
X143586666Y-49596190D01*
X143205714Y-49596190D01*
X144729523Y-50072380D02*
X144158095Y-50072380D01*
X144443809Y-50072380D02*
X144443809Y-49072380D01*
X144348571Y-49215238D01*
X144253333Y-49310476D01*
X144158095Y-49358095D01*
X145110476Y-49167619D02*
X145158095Y-49120000D01*
X145253333Y-49072380D01*
X145491428Y-49072380D01*
X145586666Y-49120000D01*
X145634285Y-49167619D01*
X145681904Y-49262857D01*
X145681904Y-49358095D01*
X145634285Y-49500952D01*
X145062857Y-50072380D01*
X145681904Y-50072380D01*
G04 #@! TO.C,R14*
X110972380Y-35994857D02*
X110496190Y-36328190D01*
X110972380Y-36566285D02*
X109972380Y-36566285D01*
X109972380Y-36185333D01*
X110020000Y-36090095D01*
X110067619Y-36042476D01*
X110162857Y-35994857D01*
X110305714Y-35994857D01*
X110400952Y-36042476D01*
X110448571Y-36090095D01*
X110496190Y-36185333D01*
X110496190Y-36566285D01*
X110972380Y-35042476D02*
X110972380Y-35613904D01*
X110972380Y-35328190D02*
X109972380Y-35328190D01*
X110115238Y-35423428D01*
X110210476Y-35518666D01*
X110258095Y-35613904D01*
X110305714Y-34185333D02*
X110972380Y-34185333D01*
X109924761Y-34423428D02*
X110639047Y-34661523D01*
X110639047Y-34042476D01*
G04 #@! TO.C,R16*
X118972380Y-35692857D02*
X118496190Y-36026190D01*
X118972380Y-36264285D02*
X117972380Y-36264285D01*
X117972380Y-35883333D01*
X118020000Y-35788095D01*
X118067619Y-35740476D01*
X118162857Y-35692857D01*
X118305714Y-35692857D01*
X118400952Y-35740476D01*
X118448571Y-35788095D01*
X118496190Y-35883333D01*
X118496190Y-36264285D01*
X118972380Y-34740476D02*
X118972380Y-35311904D01*
X118972380Y-35026190D02*
X117972380Y-35026190D01*
X118115238Y-35121428D01*
X118210476Y-35216666D01*
X118258095Y-35311904D01*
X117972380Y-33883333D02*
X117972380Y-34073809D01*
X118020000Y-34169047D01*
X118067619Y-34216666D01*
X118210476Y-34311904D01*
X118400952Y-34359523D01*
X118781904Y-34359523D01*
X118877142Y-34311904D01*
X118924761Y-34264285D01*
X118972380Y-34169047D01*
X118972380Y-33978571D01*
X118924761Y-33883333D01*
X118877142Y-33835714D01*
X118781904Y-33788095D01*
X118543809Y-33788095D01*
X118448571Y-33835714D01*
X118400952Y-33883333D01*
X118353333Y-33978571D01*
X118353333Y-34169047D01*
X118400952Y-34264285D01*
X118448571Y-34311904D01*
X118543809Y-34359523D01*
G04 #@! TO.C,R17*
X139462380Y-98260857D02*
X138986190Y-98594190D01*
X139462380Y-98832285D02*
X138462380Y-98832285D01*
X138462380Y-98451333D01*
X138510000Y-98356095D01*
X138557619Y-98308476D01*
X138652857Y-98260857D01*
X138795714Y-98260857D01*
X138890952Y-98308476D01*
X138938571Y-98356095D01*
X138986190Y-98451333D01*
X138986190Y-98832285D01*
X139462380Y-97308476D02*
X139462380Y-97879904D01*
X139462380Y-97594190D02*
X138462380Y-97594190D01*
X138605238Y-97689428D01*
X138700476Y-97784666D01*
X138748095Y-97879904D01*
X138462380Y-96975142D02*
X138462380Y-96308476D01*
X139462380Y-96737047D01*
G04 #@! TO.C,SW1*
X149046666Y-34674761D02*
X149189523Y-34722380D01*
X149427619Y-34722380D01*
X149522857Y-34674761D01*
X149570476Y-34627142D01*
X149618095Y-34531904D01*
X149618095Y-34436666D01*
X149570476Y-34341428D01*
X149522857Y-34293809D01*
X149427619Y-34246190D01*
X149237142Y-34198571D01*
X149141904Y-34150952D01*
X149094285Y-34103333D01*
X149046666Y-34008095D01*
X149046666Y-33912857D01*
X149094285Y-33817619D01*
X149141904Y-33770000D01*
X149237142Y-33722380D01*
X149475238Y-33722380D01*
X149618095Y-33770000D01*
X149951428Y-33722380D02*
X150189523Y-34722380D01*
X150380000Y-34008095D01*
X150570476Y-34722380D01*
X150808571Y-33722380D01*
X151713333Y-34722380D02*
X151141904Y-34722380D01*
X151427619Y-34722380D02*
X151427619Y-33722380D01*
X151332380Y-33865238D01*
X151237142Y-33960476D01*
X151141904Y-34008095D01*
G04 #@! TO.C,U2*
X153054380Y-76209904D02*
X153863904Y-76209904D01*
X153959142Y-76162285D01*
X154006761Y-76114666D01*
X154054380Y-76019428D01*
X154054380Y-75828952D01*
X154006761Y-75733714D01*
X153959142Y-75686095D01*
X153863904Y-75638476D01*
X153054380Y-75638476D01*
X153149619Y-75209904D02*
X153102000Y-75162285D01*
X153054380Y-75067047D01*
X153054380Y-74828952D01*
X153102000Y-74733714D01*
X153149619Y-74686095D01*
X153244857Y-74638476D01*
X153340095Y-74638476D01*
X153482952Y-74686095D01*
X154054380Y-75257523D01*
X154054380Y-74638476D01*
G04 #@! TO.C,U3*
X148578380Y-54111904D02*
X149387904Y-54111904D01*
X149483142Y-54064285D01*
X149530761Y-54016666D01*
X149578380Y-53921428D01*
X149578380Y-53730952D01*
X149530761Y-53635714D01*
X149483142Y-53588095D01*
X149387904Y-53540476D01*
X148578380Y-53540476D01*
X148578380Y-53159523D02*
X148578380Y-52540476D01*
X148959333Y-52873809D01*
X148959333Y-52730952D01*
X149006952Y-52635714D01*
X149054571Y-52588095D01*
X149149809Y-52540476D01*
X149387904Y-52540476D01*
X149483142Y-52588095D01*
X149530761Y-52635714D01*
X149578380Y-52730952D01*
X149578380Y-53016666D01*
X149530761Y-53111904D01*
X149483142Y-53159523D01*
G04 #@! TO.C,U5*
X158452095Y-60231380D02*
X158452095Y-61040904D01*
X158499714Y-61136142D01*
X158547333Y-61183761D01*
X158642571Y-61231380D01*
X158833047Y-61231380D01*
X158928285Y-61183761D01*
X158975904Y-61136142D01*
X159023523Y-61040904D01*
X159023523Y-60231380D01*
X159975904Y-60231380D02*
X159499714Y-60231380D01*
X159452095Y-60707571D01*
X159499714Y-60659952D01*
X159594952Y-60612333D01*
X159833047Y-60612333D01*
X159928285Y-60659952D01*
X159975904Y-60707571D01*
X160023523Y-60802809D01*
X160023523Y-61040904D01*
X159975904Y-61136142D01*
X159928285Y-61183761D01*
X159833047Y-61231380D01*
X159594952Y-61231380D01*
X159499714Y-61183761D01*
X159452095Y-61136142D01*
G04 #@! TO.C,SW6*
X134436666Y-89122761D02*
X134579523Y-89170380D01*
X134817619Y-89170380D01*
X134912857Y-89122761D01*
X134960476Y-89075142D01*
X135008095Y-88979904D01*
X135008095Y-88884666D01*
X134960476Y-88789428D01*
X134912857Y-88741809D01*
X134817619Y-88694190D01*
X134627142Y-88646571D01*
X134531904Y-88598952D01*
X134484285Y-88551333D01*
X134436666Y-88456095D01*
X134436666Y-88360857D01*
X134484285Y-88265619D01*
X134531904Y-88218000D01*
X134627142Y-88170380D01*
X134865238Y-88170380D01*
X135008095Y-88218000D01*
X135341428Y-88170380D02*
X135579523Y-89170380D01*
X135770000Y-88456095D01*
X135960476Y-89170380D01*
X136198571Y-88170380D01*
X137008095Y-88170380D02*
X136817619Y-88170380D01*
X136722380Y-88218000D01*
X136674761Y-88265619D01*
X136579523Y-88408476D01*
X136531904Y-88598952D01*
X136531904Y-88979904D01*
X136579523Y-89075142D01*
X136627142Y-89122761D01*
X136722380Y-89170380D01*
X136912857Y-89170380D01*
X137008095Y-89122761D01*
X137055714Y-89075142D01*
X137103333Y-88979904D01*
X137103333Y-88741809D01*
X137055714Y-88646571D01*
X137008095Y-88598952D01*
X136912857Y-88551333D01*
X136722380Y-88551333D01*
X136627142Y-88598952D01*
X136579523Y-88646571D01*
X136531904Y-88741809D01*
G04 #@! TO.C,C18*
X162905142Y-58547142D02*
X162857523Y-58594761D01*
X162714666Y-58642380D01*
X162619428Y-58642380D01*
X162476571Y-58594761D01*
X162381333Y-58499523D01*
X162333714Y-58404285D01*
X162286095Y-58213809D01*
X162286095Y-58070952D01*
X162333714Y-57880476D01*
X162381333Y-57785238D01*
X162476571Y-57690000D01*
X162619428Y-57642380D01*
X162714666Y-57642380D01*
X162857523Y-57690000D01*
X162905142Y-57737619D01*
X163857523Y-58642380D02*
X163286095Y-58642380D01*
X163571809Y-58642380D02*
X163571809Y-57642380D01*
X163476571Y-57785238D01*
X163381333Y-57880476D01*
X163286095Y-57928095D01*
X164428952Y-58070952D02*
X164333714Y-58023333D01*
X164286095Y-57975714D01*
X164238476Y-57880476D01*
X164238476Y-57832857D01*
X164286095Y-57737619D01*
X164333714Y-57690000D01*
X164428952Y-57642380D01*
X164619428Y-57642380D01*
X164714666Y-57690000D01*
X164762285Y-57737619D01*
X164809904Y-57832857D01*
X164809904Y-57880476D01*
X164762285Y-57975714D01*
X164714666Y-58023333D01*
X164619428Y-58070952D01*
X164428952Y-58070952D01*
X164333714Y-58118571D01*
X164286095Y-58166190D01*
X164238476Y-58261428D01*
X164238476Y-58451904D01*
X164286095Y-58547142D01*
X164333714Y-58594761D01*
X164428952Y-58642380D01*
X164619428Y-58642380D01*
X164714666Y-58594761D01*
X164762285Y-58547142D01*
X164809904Y-58451904D01*
X164809904Y-58261428D01*
X164762285Y-58166190D01*
X164714666Y-58118571D01*
X164619428Y-58070952D01*
G04 #@! TO.C,C19*
X162925142Y-60647142D02*
X162877523Y-60694761D01*
X162734666Y-60742380D01*
X162639428Y-60742380D01*
X162496571Y-60694761D01*
X162401333Y-60599523D01*
X162353714Y-60504285D01*
X162306095Y-60313809D01*
X162306095Y-60170952D01*
X162353714Y-59980476D01*
X162401333Y-59885238D01*
X162496571Y-59790000D01*
X162639428Y-59742380D01*
X162734666Y-59742380D01*
X162877523Y-59790000D01*
X162925142Y-59837619D01*
X163877523Y-60742380D02*
X163306095Y-60742380D01*
X163591809Y-60742380D02*
X163591809Y-59742380D01*
X163496571Y-59885238D01*
X163401333Y-59980476D01*
X163306095Y-60028095D01*
X164353714Y-60742380D02*
X164544190Y-60742380D01*
X164639428Y-60694761D01*
X164687047Y-60647142D01*
X164782285Y-60504285D01*
X164829904Y-60313809D01*
X164829904Y-59932857D01*
X164782285Y-59837619D01*
X164734666Y-59790000D01*
X164639428Y-59742380D01*
X164448952Y-59742380D01*
X164353714Y-59790000D01*
X164306095Y-59837619D01*
X164258476Y-59932857D01*
X164258476Y-60170952D01*
X164306095Y-60266190D01*
X164353714Y-60313809D01*
X164448952Y-60361428D01*
X164639428Y-60361428D01*
X164734666Y-60313809D01*
X164782285Y-60266190D01*
X164829904Y-60170952D01*
G04 #@! TO.C,C20*
X152737142Y-66987142D02*
X152689523Y-67034761D01*
X152546666Y-67082380D01*
X152451428Y-67082380D01*
X152308571Y-67034761D01*
X152213333Y-66939523D01*
X152165714Y-66844285D01*
X152118095Y-66653809D01*
X152118095Y-66510952D01*
X152165714Y-66320476D01*
X152213333Y-66225238D01*
X152308571Y-66130000D01*
X152451428Y-66082380D01*
X152546666Y-66082380D01*
X152689523Y-66130000D01*
X152737142Y-66177619D01*
X153118095Y-66177619D02*
X153165714Y-66130000D01*
X153260952Y-66082380D01*
X153499047Y-66082380D01*
X153594285Y-66130000D01*
X153641904Y-66177619D01*
X153689523Y-66272857D01*
X153689523Y-66368095D01*
X153641904Y-66510952D01*
X153070476Y-67082380D01*
X153689523Y-67082380D01*
X154308571Y-66082380D02*
X154403809Y-66082380D01*
X154499047Y-66130000D01*
X154546666Y-66177619D01*
X154594285Y-66272857D01*
X154641904Y-66463333D01*
X154641904Y-66701428D01*
X154594285Y-66891904D01*
X154546666Y-66987142D01*
X154499047Y-67034761D01*
X154403809Y-67082380D01*
X154308571Y-67082380D01*
X154213333Y-67034761D01*
X154165714Y-66987142D01*
X154118095Y-66891904D01*
X154070476Y-66701428D01*
X154070476Y-66463333D01*
X154118095Y-66272857D01*
X154165714Y-66177619D01*
X154213333Y-66130000D01*
X154308571Y-66082380D01*
G04 #@! TO.C,U4*
X108588095Y-95412380D02*
X108588095Y-96221904D01*
X108635714Y-96317142D01*
X108683333Y-96364761D01*
X108778571Y-96412380D01*
X108969047Y-96412380D01*
X109064285Y-96364761D01*
X109111904Y-96317142D01*
X109159523Y-96221904D01*
X109159523Y-95412380D01*
X110064285Y-95745714D02*
X110064285Y-96412380D01*
X109826190Y-95364761D02*
X109588095Y-96079047D01*
X110207142Y-96079047D01*
G04 #@! TO.C,R13*
X133965142Y-71572380D02*
X133631809Y-71096190D01*
X133393714Y-71572380D02*
X133393714Y-70572380D01*
X133774666Y-70572380D01*
X133869904Y-70620000D01*
X133917523Y-70667619D01*
X133965142Y-70762857D01*
X133965142Y-70905714D01*
X133917523Y-71000952D01*
X133869904Y-71048571D01*
X133774666Y-71096190D01*
X133393714Y-71096190D01*
X134917523Y-71572380D02*
X134346095Y-71572380D01*
X134631809Y-71572380D02*
X134631809Y-70572380D01*
X134536571Y-70715238D01*
X134441333Y-70810476D01*
X134346095Y-70858095D01*
X135250857Y-70572380D02*
X135869904Y-70572380D01*
X135536571Y-70953333D01*
X135679428Y-70953333D01*
X135774666Y-71000952D01*
X135822285Y-71048571D01*
X135869904Y-71143809D01*
X135869904Y-71381904D01*
X135822285Y-71477142D01*
X135774666Y-71524761D01*
X135679428Y-71572380D01*
X135393714Y-71572380D01*
X135298476Y-71524761D01*
X135250857Y-71477142D01*
G04 #@! TO.C,RV1*
X142042380Y-59365238D02*
X141566190Y-59698571D01*
X142042380Y-59936666D02*
X141042380Y-59936666D01*
X141042380Y-59555714D01*
X141090000Y-59460476D01*
X141137619Y-59412857D01*
X141232857Y-59365238D01*
X141375714Y-59365238D01*
X141470952Y-59412857D01*
X141518571Y-59460476D01*
X141566190Y-59555714D01*
X141566190Y-59936666D01*
X141042380Y-59079523D02*
X142042380Y-58746190D01*
X141042380Y-58412857D01*
X142042380Y-57555714D02*
X142042380Y-58127142D01*
X142042380Y-57841428D02*
X141042380Y-57841428D01*
X141185238Y-57936666D01*
X141280476Y-58031904D01*
X141328095Y-58127142D01*
G04 #@! TO.C,L4*
X156613333Y-50582380D02*
X156137142Y-50582380D01*
X156137142Y-49582380D01*
X157375238Y-49915714D02*
X157375238Y-50582380D01*
X157137142Y-49534761D02*
X156899047Y-50249047D01*
X157518095Y-50249047D01*
G04 #@! TO.C,L5*
X148793333Y-49372380D02*
X148317142Y-49372380D01*
X148317142Y-48372380D01*
X149602857Y-48372380D02*
X149126666Y-48372380D01*
X149079047Y-48848571D01*
X149126666Y-48800952D01*
X149221904Y-48753333D01*
X149460000Y-48753333D01*
X149555238Y-48800952D01*
X149602857Y-48848571D01*
X149650476Y-48943809D01*
X149650476Y-49181904D01*
X149602857Y-49277142D01*
X149555238Y-49324761D01*
X149460000Y-49372380D01*
X149221904Y-49372380D01*
X149126666Y-49324761D01*
X149079047Y-49277142D01*
G04 #@! TO.C,R15*
X160447142Y-56652380D02*
X160113809Y-56176190D01*
X159875714Y-56652380D02*
X159875714Y-55652380D01*
X160256666Y-55652380D01*
X160351904Y-55700000D01*
X160399523Y-55747619D01*
X160447142Y-55842857D01*
X160447142Y-55985714D01*
X160399523Y-56080952D01*
X160351904Y-56128571D01*
X160256666Y-56176190D01*
X159875714Y-56176190D01*
X161399523Y-56652380D02*
X160828095Y-56652380D01*
X161113809Y-56652380D02*
X161113809Y-55652380D01*
X161018571Y-55795238D01*
X160923333Y-55890476D01*
X160828095Y-55938095D01*
X162304285Y-55652380D02*
X161828095Y-55652380D01*
X161780476Y-56128571D01*
X161828095Y-56080952D01*
X161923333Y-56033333D01*
X162161428Y-56033333D01*
X162256666Y-56080952D01*
X162304285Y-56128571D01*
X162351904Y-56223809D01*
X162351904Y-56461904D01*
X162304285Y-56557142D01*
X162256666Y-56604761D01*
X162161428Y-56652380D01*
X161923333Y-56652380D01*
X161828095Y-56604761D01*
X161780476Y-56557142D01*
G04 #@! TO.C,R18*
X160437142Y-54702380D02*
X160103809Y-54226190D01*
X159865714Y-54702380D02*
X159865714Y-53702380D01*
X160246666Y-53702380D01*
X160341904Y-53750000D01*
X160389523Y-53797619D01*
X160437142Y-53892857D01*
X160437142Y-54035714D01*
X160389523Y-54130952D01*
X160341904Y-54178571D01*
X160246666Y-54226190D01*
X159865714Y-54226190D01*
X161389523Y-54702380D02*
X160818095Y-54702380D01*
X161103809Y-54702380D02*
X161103809Y-53702380D01*
X161008571Y-53845238D01*
X160913333Y-53940476D01*
X160818095Y-53988095D01*
X161960952Y-54130952D02*
X161865714Y-54083333D01*
X161818095Y-54035714D01*
X161770476Y-53940476D01*
X161770476Y-53892857D01*
X161818095Y-53797619D01*
X161865714Y-53750000D01*
X161960952Y-53702380D01*
X162151428Y-53702380D01*
X162246666Y-53750000D01*
X162294285Y-53797619D01*
X162341904Y-53892857D01*
X162341904Y-53940476D01*
X162294285Y-54035714D01*
X162246666Y-54083333D01*
X162151428Y-54130952D01*
X161960952Y-54130952D01*
X161865714Y-54178571D01*
X161818095Y-54226190D01*
X161770476Y-54321428D01*
X161770476Y-54511904D01*
X161818095Y-54607142D01*
X161865714Y-54654761D01*
X161960952Y-54702380D01*
X162151428Y-54702380D01*
X162246666Y-54654761D01*
X162294285Y-54607142D01*
X162341904Y-54511904D01*
X162341904Y-54321428D01*
X162294285Y-54226190D01*
X162246666Y-54178571D01*
X162151428Y-54130952D01*
G04 #@! TO.C,R19*
X142552380Y-53912857D02*
X142076190Y-54246190D01*
X142552380Y-54484285D02*
X141552380Y-54484285D01*
X141552380Y-54103333D01*
X141600000Y-54008095D01*
X141647619Y-53960476D01*
X141742857Y-53912857D01*
X141885714Y-53912857D01*
X141980952Y-53960476D01*
X142028571Y-54008095D01*
X142076190Y-54103333D01*
X142076190Y-54484285D01*
X142552380Y-52960476D02*
X142552380Y-53531904D01*
X142552380Y-53246190D02*
X141552380Y-53246190D01*
X141695238Y-53341428D01*
X141790476Y-53436666D01*
X141838095Y-53531904D01*
X142552380Y-52484285D02*
X142552380Y-52293809D01*
X142504761Y-52198571D01*
X142457142Y-52150952D01*
X142314285Y-52055714D01*
X142123809Y-52008095D01*
X141742857Y-52008095D01*
X141647619Y-52055714D01*
X141600000Y-52103333D01*
X141552380Y-52198571D01*
X141552380Y-52389047D01*
X141600000Y-52484285D01*
X141647619Y-52531904D01*
X141742857Y-52579523D01*
X141980952Y-52579523D01*
X142076190Y-52531904D01*
X142123809Y-52484285D01*
X142171428Y-52389047D01*
X142171428Y-52198571D01*
X142123809Y-52103333D01*
X142076190Y-52055714D01*
X141980952Y-52008095D01*
G04 #@! TO.C,R20*
X139927142Y-49682380D02*
X139593809Y-49206190D01*
X139355714Y-49682380D02*
X139355714Y-48682380D01*
X139736666Y-48682380D01*
X139831904Y-48730000D01*
X139879523Y-48777619D01*
X139927142Y-48872857D01*
X139927142Y-49015714D01*
X139879523Y-49110952D01*
X139831904Y-49158571D01*
X139736666Y-49206190D01*
X139355714Y-49206190D01*
X140308095Y-48777619D02*
X140355714Y-48730000D01*
X140450952Y-48682380D01*
X140689047Y-48682380D01*
X140784285Y-48730000D01*
X140831904Y-48777619D01*
X140879523Y-48872857D01*
X140879523Y-48968095D01*
X140831904Y-49110952D01*
X140260476Y-49682380D01*
X140879523Y-49682380D01*
X141498571Y-48682380D02*
X141593809Y-48682380D01*
X141689047Y-48730000D01*
X141736666Y-48777619D01*
X141784285Y-48872857D01*
X141831904Y-49063333D01*
X141831904Y-49301428D01*
X141784285Y-49491904D01*
X141736666Y-49587142D01*
X141689047Y-49634761D01*
X141593809Y-49682380D01*
X141498571Y-49682380D01*
X141403333Y-49634761D01*
X141355714Y-49587142D01*
X141308095Y-49491904D01*
X141260476Y-49301428D01*
X141260476Y-49063333D01*
X141308095Y-48872857D01*
X141355714Y-48777619D01*
X141403333Y-48730000D01*
X141498571Y-48682380D01*
G04 #@! TO.C,JP4*
X146776666Y-61462380D02*
X146776666Y-62176666D01*
X146729047Y-62319523D01*
X146633809Y-62414761D01*
X146490952Y-62462380D01*
X146395714Y-62462380D01*
X147252857Y-62462380D02*
X147252857Y-61462380D01*
X147633809Y-61462380D01*
X147729047Y-61510000D01*
X147776666Y-61557619D01*
X147824285Y-61652857D01*
X147824285Y-61795714D01*
X147776666Y-61890952D01*
X147729047Y-61938571D01*
X147633809Y-61986190D01*
X147252857Y-61986190D01*
X148681428Y-61795714D02*
X148681428Y-62462380D01*
X148443333Y-61414761D02*
X148205238Y-62129047D01*
X148824285Y-62129047D01*
G04 #@! TD*
M02*
