solid CATIA STL
  facet normal  0.000000e+000  0.000000e+000  1.000000e+000
    outer loop
      vertex  2.808954e+001 -4.265436e+001  3.300000e+001
      vertex  2.988954e+001 -4.265436e+001  3.300000e+001
      vertex  2.808954e+001 -3.965436e+001  3.300000e+001
    endloop
  endfacet
  facet normal  -0.000000e+000  0.000000e+000  1.000000e+000
    outer loop
      vertex  2.808954e+001 -3.965436e+001  3.300000e+001
      vertex  2.988954e+001 -4.265436e+001  3.300000e+001
      vertex  2.988954e+001 -3.965436e+001  3.300000e+001
    endloop
  endfacet
  facet normal  0.000000e+000  1.000000e+000  0.000000e+000
    outer loop
      vertex  3.088954e+001 -3.865436e+001  2.700000e+001
      vertex  2.708954e+001 -3.865436e+001  2.700000e+001
      vertex  3.088954e+001 -3.865436e+001  3.200000e+001
    endloop
  endfacet
  facet normal  0.000000e+000  1.000000e+000  0.000000e+000
    outer loop
      vertex  3.088954e+001 -3.865436e+001  3.200000e+001
      vertex  2.708954e+001 -3.865436e+001  2.700000e+001
      vertex  2.708954e+001 -3.865436e+001  3.200000e+001
    endloop
  endfacet
  facet normal -1.000000e+000  0.000000e+000  0.000000e+000
    outer loop
      vertex  2.708954e+001 -3.865436e+001  2.700000e+001
      vertex  2.708954e+001 -4.365436e+001  2.700000e+001
      vertex  2.708954e+001 -3.865436e+001  3.200000e+001
    endloop
  endfacet
  facet normal -1.000000e+000  -0.000000e+000  0.000000e+000
    outer loop
      vertex  2.708954e+001 -3.865436e+001  3.200000e+001
      vertex  2.708954e+001 -4.365436e+001  2.700000e+001
      vertex  2.708954e+001 -4.365436e+001  3.200000e+001
    endloop
  endfacet
  facet normal  1.000000e+000  0.000000e+000  0.000000e+000
    outer loop
      vertex  3.088954e+001 -4.365436e+001  2.700000e+001
      vertex  3.088954e+001 -3.865436e+001  2.700000e+001
      vertex  3.088954e+001 -4.365436e+001  3.200000e+001
    endloop
  endfacet
  facet normal  1.000000e+000  -0.000000e+000  0.000000e+000
    outer loop
      vertex  3.088954e+001 -4.365436e+001  3.200000e+001
      vertex  3.088954e+001 -3.865436e+001  2.700000e+001
      vertex  3.088954e+001 -3.865436e+001  3.200000e+001
    endloop
  endfacet
  facet normal  0.000000e+000 -1.000000e+000  0.000000e+000
    outer loop
      vertex  2.708954e+001 -4.365436e+001  2.700000e+001
      vertex  3.088954e+001 -4.365436e+001  2.700000e+001
      vertex  2.708954e+001 -4.365436e+001  3.200000e+001
    endloop
  endfacet
  facet normal  0.000000e+000 -1.000000e+000  0.000000e+000
    outer loop
      vertex  2.708954e+001 -4.365436e+001  3.200000e+001
      vertex  3.088954e+001 -4.365436e+001  2.700000e+001
      vertex  3.088954e+001 -4.365436e+001  3.200000e+001
    endloop
  endfacet
  facet normal  9.992819e-001  0.000000e+000  3.788973e-002
    outer loop
      vertex  3.088954e+001 -4.365436e+001  3.200000e+001
      vertex  3.088954e+001 -3.865436e+001  3.200000e+001
      vertex  3.088667e+001 -4.365149e+001  3.207571e+001
    endloop
  endfacet
  facet normal  9.992819e-001  -0.000000e+000  3.788973e-002
    outer loop
      vertex  3.088667e+001 -4.365149e+001  3.207571e+001
      vertex  3.088954e+001 -3.865436e+001  3.200000e+001
      vertex  3.088667e+001 -3.865723e+001  3.207571e+001
    endloop
  endfacet
  facet normal  9.935730e-001  0.000000e+000  1.131938e-001
    outer loop
      vertex  3.088667e+001 -4.365149e+001  3.207571e+001
      vertex  3.088667e+001 -3.865723e+001  3.207571e+001
      vertex  3.087815e+001 -4.364296e+001  3.215054e+001
    endloop
  endfacet
  facet normal  9.935730e-001  -0.000000e+000  1.131938e-001
    outer loop
      vertex  3.087815e+001 -4.364296e+001  3.215054e+001
      vertex  3.088667e+001 -3.865723e+001  3.207571e+001
      vertex  3.087815e+001 -3.866575e+001  3.215054e+001
    endloop
  endfacet
  facet normal  9.820321e-001  0.000000e+000  1.887141e-001
    outer loop
      vertex  3.087815e+001 -4.364296e+001  3.215054e+001
      vertex  3.087815e+001 -3.866575e+001  3.215054e+001
      vertex  3.086353e+001 -4.362834e+001  3.222661e+001
    endloop
  endfacet
  facet normal  9.820321e-001  -0.000000e+000  1.887140e-001
    outer loop
      vertex  3.086353e+001 -4.362834e+001  3.222661e+001
      vertex  3.087815e+001 -3.866575e+001  3.215054e+001
      vertex  3.086353e+001 -3.868037e+001  3.222661e+001
    endloop
  endfacet
  facet normal  9.646384e-001  0.000000e+000  2.635767e-001
    outer loop
      vertex  3.086353e+001 -4.362834e+001  3.222661e+001
      vertex  3.086353e+001 -3.868037e+001  3.222661e+001
      vertex  3.084343e+001 -4.360825e+001  3.230015e+001
    endloop
  endfacet
  facet normal  9.646384e-001  -0.000000e+000  2.635767e-001
    outer loop
      vertex  3.084343e+001 -4.360825e+001  3.230015e+001
      vertex  3.086353e+001 -3.868037e+001  3.222661e+001
      vertex  3.084343e+001 -3.870047e+001  3.230015e+001
    endloop
  endfacet
  facet normal  9.296190e-001  0.000000e+000  3.685223e-001
    outer loop
      vertex  3.084343e+001 -4.360825e+001  3.230015e+001
      vertex  3.084343e+001 -3.870047e+001  3.230015e+001
      vertex  3.079000e+001 -4.355481e+001  3.243495e+001
    endloop
  endfacet
  facet normal  9.296189e-001  -0.000000e+000  3.685223e-001
    outer loop
      vertex  3.079000e+001 -4.355481e+001  3.243495e+001
      vertex  3.084343e+001 -3.870047e+001  3.230015e+001
      vertex  3.079000e+001 -3.875390e+001  3.243495e+001
    endloop
  endfacet
  facet normal  8.795972e-001  0.000000e+000  4.757193e-001
    outer loop
      vertex  3.079000e+001 -4.355481e+001  3.243495e+001
      vertex  3.079000e+001 -3.875390e+001  3.243495e+001
      vertex  3.074645e+001 -4.351126e+001  3.251547e+001
    endloop
  endfacet
  facet normal  8.795972e-001  -0.000000e+000  4.757192e-001
    outer loop
      vertex  3.074645e+001 -4.351126e+001  3.251547e+001
      vertex  3.079000e+001 -3.875390e+001  3.243495e+001
      vertex  3.074645e+001 -3.879745e+001  3.251547e+001
    endloop
  endfacet
  facet normal  8.331444e-001  0.000000e+000  5.530555e-001
    outer loop
      vertex  3.074645e+001 -4.351126e+001  3.251547e+001
      vertex  3.074645e+001 -3.879745e+001  3.251547e+001
      vertex  3.069728e+001 -4.346209e+001  3.258954e+001
    endloop
  endfacet
  facet normal  8.331444e-001  -0.000000e+000  5.530555e-001
    outer loop
      vertex  3.069728e+001 -4.346209e+001  3.258954e+001
      vertex  3.074645e+001 -3.879745e+001  3.251547e+001
      vertex  3.069728e+001 -3.884662e+001  3.258954e+001
    endloop
  endfacet
  facet normal  7.545484e-001  0.000000e+000  6.562444e-001
    outer loop
      vertex  3.069728e+001 -4.346209e+001  3.258954e+001
      vertex  3.069728e+001 -3.884662e+001  3.258954e+001
      vertex  3.058539e+001 -4.335020e+001  3.271819e+001
    endloop
  endfacet
  facet normal  7.545484e-001  -0.000000e+000  6.562443e-001
    outer loop
      vertex  3.058539e+001 -4.335020e+001  3.271819e+001
      vertex  3.069728e+001 -3.884662e+001  3.258954e+001
      vertex  3.058539e+001 -3.895851e+001  3.271819e+001
    endloop
  endfacet
  facet normal  6.353747e-001  0.000000e+000  7.722040e-001
    outer loop
      vertex  3.058539e+001 -4.335020e+001  3.271819e+001
      vertex  3.058539e+001 -3.895851e+001  3.271819e+001
      vertex  3.046025e+001 -4.322506e+001  3.282116e+001
    endloop
  endfacet
  facet normal  6.353747e-001  -0.000000e+000  7.722040e-001
    outer loop
      vertex  3.046025e+001 -4.322506e+001  3.282116e+001
      vertex  3.058539e+001 -3.895851e+001  3.271819e+001
      vertex  3.046025e+001 -3.908365e+001  3.282116e+001
    endloop
  endfacet
  facet normal  5.217438e-001  0.000000e+000  8.531022e-001
    outer loop
      vertex  3.046025e+001 -4.322506e+001  3.282116e+001
      vertex  3.046025e+001 -3.908365e+001  3.282116e+001
      vertex  3.036057e+001 -4.312539e+001  3.288212e+001
    endloop
  endfacet
  facet normal  5.217438e-001  -0.000000e+000  8.531023e-001
    outer loop
      vertex  3.036057e+001 -4.312539e+001  3.288212e+001
      vertex  3.046025e+001 -3.908365e+001  3.282116e+001
      vertex  3.036057e+001 -3.918332e+001  3.288212e+001
    endloop
  endfacet
  facet normal  4.202479e-001  0.000000e+000  9.074093e-001
    outer loop
      vertex  3.036057e+001 -4.312539e+001  3.288212e+001
      vertex  3.036057e+001 -3.918332e+001  3.288212e+001
      vertex  3.025765e+001 -4.302247e+001  3.292978e+001
    endloop
  endfacet
  facet normal  4.202479e-001  -0.000000e+000  9.074093e-001
    outer loop
      vertex  3.025765e+001 -4.302247e+001  3.292978e+001
      vertex  3.036057e+001 -3.918332e+001  3.288212e+001
      vertex  3.025765e+001 -3.928624e+001  3.292978e+001
    endloop
  endfacet
  facet normal  2.640195e-001  0.000000e+000  9.645173e-001
    outer loop
      vertex  3.025765e+001 -4.302247e+001  3.292978e+001
      vertex  3.025765e+001 -3.928624e+001  3.292978e+001
      vertex  3.004630e+001 -3.949760e+001  3.298764e+001
    endloop
  endfacet
  facet normal  7.862572e-002  -0.000000e+000  9.969042e-001
    outer loop
      vertex  2.988954e+001 -3.965436e+001  3.300000e+001
      vertex  2.988954e+001 -4.265436e+001  3.300000e+001
      vertex  3.004630e+001 -3.949760e+001  3.298764e+001
    endloop
  endfacet
  facet normal  7.862572e-002  0.000000e+000  9.969042e-001
    outer loop
      vertex  3.004630e+001 -3.949760e+001  3.298764e+001
      vertex  2.988954e+001 -4.265436e+001  3.300000e+001
      vertex  3.004630e+001 -4.281112e+001  3.298764e+001
    endloop
  endfacet
  facet normal  2.640195e-001  -0.000000e+000  9.645174e-001
    outer loop
      vertex  3.004630e+001 -3.949760e+001  3.298764e+001
      vertex  3.004630e+001 -4.281112e+001  3.298764e+001
      vertex  3.025765e+001 -4.302247e+001  3.292978e+001
    endloop
  endfacet
  facet normal  0.000000e+000 -9.992810e-001  3.791488e-002
    outer loop
      vertex  2.708954e+001 -4.365436e+001  3.200000e+001
      vertex  3.088954e+001 -4.365436e+001  3.200000e+001
      vertex  2.709241e+001 -4.365149e+001  3.207571e+001
    endloop
  endfacet
  facet normal  0.000000e+000 -9.992810e-001  3.791488e-002
    outer loop
      vertex  2.709241e+001 -4.365149e+001  3.207571e+001
      vertex  3.088954e+001 -4.365436e+001  3.200000e+001
      vertex  3.088667e+001 -4.365149e+001  3.207571e+001
    endloop
  endfacet
  facet normal  0.000000e+000 -9.935730e-001  1.131938e-001
    outer loop
      vertex  2.709241e+001 -4.365149e+001  3.207571e+001
      vertex  3.088667e+001 -4.365149e+001  3.207571e+001
      vertex  2.710094e+001 -4.364296e+001  3.215054e+001
    endloop
  endfacet
  facet normal  0.000000e+000 -9.935730e-001  1.131938e-001
    outer loop
      vertex  2.710094e+001 -4.364296e+001  3.215054e+001
      vertex  3.088667e+001 -4.365149e+001  3.207571e+001
      vertex  3.087815e+001 -4.364296e+001  3.215054e+001
    endloop
  endfacet
  facet normal  0.000000e+000 -9.820321e-001  1.887141e-001
    outer loop
      vertex  2.710094e+001 -4.364296e+001  3.215054e+001
      vertex  3.087815e+001 -4.364296e+001  3.215054e+001
      vertex  2.711556e+001 -4.362834e+001  3.222661e+001
    endloop
  endfacet
  facet normal  0.000000e+000 -9.820321e-001  1.887141e-001
    outer loop
      vertex  2.711556e+001 -4.362834e+001  3.222661e+001
      vertex  3.087815e+001 -4.364296e+001  3.215054e+001
      vertex  3.086353e+001 -4.362834e+001  3.222661e+001
    endloop
  endfacet
  facet normal  0.000000e+000 -9.646447e-001  2.635535e-001
    outer loop
      vertex  2.711556e+001 -4.362834e+001  3.222661e+001
      vertex  3.086353e+001 -4.362834e+001  3.222661e+001
      vertex  2.713565e+001 -4.360825e+001  3.230015e+001
    endloop
  endfacet
  facet normal  9.924473e-007 -9.646320e-001  2.636003e-001
    outer loop
      vertex  2.713565e+001 -4.360825e+001  3.230015e+001
      vertex  3.086353e+001 -4.362834e+001  3.222661e+001
      vertex  3.084343e+001 -4.360825e+001  3.230015e+001
    endloop
  endfacet
  facet normal  9.564247e-007 -9.296190e-001  3.685219e-001
    outer loop
      vertex  2.713565e+001 -4.360825e+001  3.230015e+001
      vertex  3.084343e+001 -4.360825e+001  3.230015e+001
      vertex  2.718909e+001 -4.355481e+001  3.243495e+001
    endloop
  endfacet
  facet normal  0.000000e+000 -9.296279e-001  3.684995e-001
    outer loop
      vertex  2.718909e+001 -4.355481e+001  3.243495e+001
      vertex  3.084343e+001 -4.360825e+001  3.230015e+001
      vertex  3.079000e+001 -4.355481e+001  3.243495e+001
    endloop
  endfacet
  facet normal  0.000000e+000 -8.795972e-001  4.757192e-001
    outer loop
      vertex  2.718909e+001 -4.355481e+001  3.243495e+001
      vertex  3.079000e+001 -4.355481e+001  3.243495e+001
      vertex  2.723263e+001 -4.351126e+001  3.251547e+001
    endloop
  endfacet
  facet normal  0.000000e+000 -8.795972e-001  4.757192e-001
    outer loop
      vertex  2.723263e+001 -4.351126e+001  3.251547e+001
      vertex  3.079000e+001 -4.355481e+001  3.243495e+001
      vertex  3.074645e+001 -4.351126e+001  3.251547e+001
    endloop
  endfacet
  facet normal  0.000000e+000 -8.331444e-001  5.530555e-001
    outer loop
      vertex  2.723263e+001 -4.351126e+001  3.251547e+001
      vertex  3.074645e+001 -4.351126e+001  3.251547e+001
      vertex  2.728181e+001 -4.346209e+001  3.258954e+001
    endloop
  endfacet
  facet normal  9.305065e-007 -8.331243e-001  5.530857e-001
    outer loop
      vertex  2.728181e+001 -4.346209e+001  3.258954e+001
      vertex  3.074645e+001 -4.351126e+001  3.251547e+001
      vertex  3.069728e+001 -4.346209e+001  3.258954e+001
    endloop
  endfacet
  facet normal  8.427403e-007 -7.545433e-001  6.562503e-001
    outer loop
      vertex  2.728181e+001 -4.346209e+001  3.258954e+001
      vertex  3.069728e+001 -4.346209e+001  3.258954e+001
      vertex  2.739370e+001 -4.335021e+001  3.271819e+001
    endloop
  endfacet
  facet normal  9.018244e-007 -7.545425e-001  6.562511e-001
    outer loop
      vertex  2.739370e+001 -4.335021e+001  3.271819e+001
      vertex  3.069728e+001 -4.346209e+001  3.258954e+001
      vertex  3.058539e+001 -4.335020e+001  3.271819e+001
    endloop
  endfacet
  facet normal  7.593964e-007 -6.353751e-001  7.722036e-001
    outer loop
      vertex  2.739370e+001 -4.335021e+001  3.271819e+001
      vertex  3.058539e+001 -4.335020e+001  3.271819e+001
      vertex  2.751884e+001 -4.322506e+001  3.282116e+001
    endloop
  endfacet
  facet normal  0.000000e+000 -6.353862e-001  7.721944e-001
    outer loop
      vertex  2.751884e+001 -4.322506e+001  3.282116e+001
      vertex  3.058539e+001 -4.335020e+001  3.271819e+001
      vertex  3.046025e+001 -4.322506e+001  3.282116e+001
    endloop
  endfacet
  facet normal  0.000000e+000 -5.217510e-001  8.530978e-001
    outer loop
      vertex  2.751884e+001 -4.322506e+001  3.282116e+001
      vertex  3.046025e+001 -4.322506e+001  3.282116e+001
      vertex  2.761851e+001 -4.312539e+001  3.288212e+001
    endloop
  endfacet
  facet normal -7.258703e-007 -5.217661e-001  8.530885e-001
    outer loop
      vertex  2.761851e+001 -4.312539e+001  3.288212e+001
      vertex  3.046025e+001 -4.322506e+001  3.282116e+001
      vertex  3.036057e+001 -4.312539e+001  3.288212e+001
    endloop
  endfacet
  facet normal -5.846307e-007 -4.202410e-001  9.074125e-001
    outer loop
      vertex  2.761851e+001 -4.312539e+001  3.288212e+001
      vertex  3.036057e+001 -4.312539e+001  3.288212e+001
      vertex  2.772143e+001 -4.302246e+001  3.292978e+001
    endloop
  endfacet
  facet normal -1.264201e-006 -4.202554e-001  9.074059e-001
    outer loop
      vertex  2.772143e+001 -4.302246e+001  3.292978e+001
      vertex  3.036057e+001 -4.312539e+001  3.288212e+001
      vertex  3.025765e+001 -4.302247e+001  3.292978e+001
    endloop
  endfacet
  facet normal -7.941985e-007 -2.640136e-001  9.645190e-001
    outer loop
      vertex  2.772143e+001 -4.302246e+001  3.292978e+001
      vertex  3.025765e+001 -4.302247e+001  3.292978e+001
      vertex  3.004630e+001 -4.281112e+001  3.298764e+001
    endloop
  endfacet
  facet normal  0.000000e+000 -7.862571e-002  9.969041e-001
    outer loop
      vertex  2.988954e+001 -4.265436e+001  3.300000e+001
      vertex  2.808954e+001 -4.265436e+001  3.300000e+001
      vertex  3.004630e+001 -4.281112e+001  3.298764e+001
    endloop
  endfacet
  facet normal  0.000000e+000 -7.862572e-002  9.969042e-001
    outer loop
      vertex  3.004630e+001 -4.281112e+001  3.298764e+001
      vertex  2.808954e+001 -4.265436e+001  3.300000e+001
      vertex  2.793279e+001 -4.281112e+001  3.298764e+001
    endloop
  endfacet
  facet normal  0.000000e+000 -2.640218e-001  9.645168e-001
    outer loop
      vertex  3.004630e+001 -4.281112e+001  3.298764e+001
      vertex  2.793279e+001 -4.281112e+001  3.298764e+001
      vertex  2.772143e+001 -4.302246e+001  3.292978e+001
    endloop
  endfacet
  facet normal -7.862572e-002  0.000000e+000  9.969042e-001
    outer loop
      vertex  2.808954e+001 -4.265436e+001  3.300000e+001
      vertex  2.808954e+001 -3.965436e+001  3.300000e+001
      vertex  2.793279e+001 -4.281112e+001  3.298764e+001
    endloop
  endfacet
  facet normal -7.862572e-002  0.000000e+000  9.969042e-001
    outer loop
      vertex  2.793279e+001 -4.281112e+001  3.298764e+001
      vertex  2.808954e+001 -3.965436e+001  3.300000e+001
      vertex  2.793279e+001 -3.949760e+001  3.298764e+001
    endloop
  endfacet
  facet normal -2.640173e-001  0.000000e+000  9.645180e-001
    outer loop
      vertex  2.793279e+001 -4.281112e+001  3.298764e+001
      vertex  2.793279e+001 -3.949760e+001  3.298764e+001
      vertex  2.772143e+001 -3.928624e+001  3.292978e+001
    endloop
  endfacet
  facet normal -9.992829e-001  0.000000e+000  3.786460e-002
    outer loop
      vertex  2.708954e+001 -3.865436e+001  3.200000e+001
      vertex  2.708954e+001 -4.365436e+001  3.200000e+001
      vertex  2.709241e+001 -3.865723e+001  3.207571e+001
    endloop
  endfacet
  facet normal -9.992828e-001  0.000000e+000  3.786459e-002
    outer loop
      vertex  2.709241e+001 -3.865723e+001  3.207571e+001
      vertex  2.708954e+001 -4.365436e+001  3.200000e+001
      vertex  2.709241e+001 -4.365149e+001  3.207571e+001
    endloop
  endfacet
  facet normal -9.935730e-001  0.000000e+000  1.131938e-001
    outer loop
      vertex  2.709241e+001 -3.865723e+001  3.207571e+001
      vertex  2.709241e+001 -4.365149e+001  3.207571e+001
      vertex  2.710094e+001 -3.866575e+001  3.215054e+001
    endloop
  endfacet
  facet normal -9.935701e-001 -3.807526e-007  1.132188e-001
    outer loop
      vertex  2.710094e+001 -3.866575e+001  3.215054e+001
      vertex  2.709241e+001 -4.365149e+001  3.207571e+001
      vertex  2.710094e+001 -4.364296e+001  3.215054e+001
    endloop
  endfacet
  facet normal -9.820275e-001 -3.763293e-007  1.887377e-001
    outer loop
      vertex  2.710094e+001 -3.866575e+001  3.215054e+001
      vertex  2.710094e+001 -4.364296e+001  3.215054e+001
      vertex  2.711556e+001 -3.868037e+001  3.222661e+001
    endloop
  endfacet
  facet normal -9.820321e-001  0.000000e+000  1.887140e-001
    outer loop
      vertex  2.711556e+001 -3.868037e+001  3.222661e+001
      vertex  2.710094e+001 -4.364296e+001  3.215054e+001
      vertex  2.711556e+001 -4.362834e+001  3.222661e+001
    endloop
  endfacet
  facet normal -9.646384e-001  0.000000e+000  2.635767e-001
    outer loop
      vertex  2.711556e+001 -3.868037e+001  3.222661e+001
      vertex  2.711556e+001 -4.362834e+001  3.222661e+001
      vertex  2.713565e+001 -3.870047e+001  3.230015e+001
    endloop
  endfacet
  facet normal -9.646384e-001  0.000000e+000  2.635768e-001
    outer loop
      vertex  2.713565e+001 -3.870047e+001  3.230015e+001
      vertex  2.711556e+001 -4.362834e+001  3.222661e+001
      vertex  2.713565e+001 -4.360825e+001  3.230015e+001
    endloop
  endfacet
  facet normal -9.296234e-001  0.000000e+000  3.685109e-001
    outer loop
      vertex  2.713565e+001 -3.870047e+001  3.230015e+001
      vertex  2.713565e+001 -4.360825e+001  3.230015e+001
      vertex  2.718909e+001 -3.875390e+001  3.243495e+001
    endloop
  endfacet
  facet normal -9.296235e-001  0.000000e+000  3.685109e-001
    outer loop
      vertex  2.718909e+001 -3.875390e+001  3.243495e+001
      vertex  2.713565e+001 -4.360825e+001  3.230015e+001
      vertex  2.718909e+001 -4.355481e+001  3.243495e+001
    endloop
  endfacet
  facet normal -8.795972e-001  0.000000e+000  4.757193e-001
    outer loop
      vertex  2.718909e+001 -3.875390e+001  3.243495e+001
      vertex  2.718909e+001 -4.355481e+001  3.243495e+001
      vertex  2.723263e+001 -3.879745e+001  3.251547e+001
    endloop
  endfacet
  facet normal -8.795972e-001  0.000000e+000  4.757192e-001
    outer loop
      vertex  2.723263e+001 -3.879745e+001  3.251547e+001
      vertex  2.718909e+001 -4.355481e+001  3.243495e+001
      vertex  2.723263e+001 -4.351126e+001  3.251547e+001
    endloop
  endfacet
  facet normal -8.331444e-001  0.000000e+000  5.530555e-001
    outer loop
      vertex  2.723263e+001 -3.879745e+001  3.251547e+001
      vertex  2.723263e+001 -4.351126e+001  3.251547e+001
      vertex  2.728181e+001 -3.884662e+001  3.258954e+001
    endloop
  endfacet
  facet normal -8.331344e-001 -3.442938e-007  5.530706e-001
    outer loop
      vertex  2.728181e+001 -3.884662e+001  3.258954e+001
      vertex  2.723263e+001 -4.351126e+001  3.251547e+001
      vertex  2.728181e+001 -4.346209e+001  3.258954e+001
    endloop
  endfacet
  facet normal -7.545431e-001 -3.118158e-007  6.562506e-001
    outer loop
      vertex  2.728181e+001 -3.884662e+001  3.258954e+001
      vertex  2.728181e+001 -4.346209e+001  3.258954e+001
      vertex  2.739369e+001 -3.895851e+001  3.271819e+001
    endloop
  endfacet
  facet normal -7.545314e-001 -9.830968e-007  6.562639e-001
    outer loop
      vertex  2.739369e+001 -3.895851e+001  3.271819e+001
      vertex  2.728181e+001 -4.346209e+001  3.258954e+001
      vertex  2.739370e+001 -4.335021e+001  3.271819e+001
    endloop
  endfacet
  facet normal -6.353752e-001 -8.278454e-007  7.722036e-001
    outer loop
      vertex  2.739369e+001 -3.895851e+001  3.271819e+001
      vertex  2.739370e+001 -4.335021e+001  3.271819e+001
      vertex  2.751884e+001 -3.908365e+001  3.282116e+001
    endloop
  endfacet
  facet normal -6.353920e-001  0.000000e+000  7.721897e-001
    outer loop
      vertex  2.751884e+001 -3.908365e+001  3.282116e+001
      vertex  2.739370e+001 -4.335021e+001  3.271819e+001
      vertex  2.751884e+001 -4.322506e+001  3.282116e+001
    endloop
  endfacet
  facet normal -5.217511e-001  0.000000e+000  8.530978e-001
    outer loop
      vertex  2.751884e+001 -3.908365e+001  3.282116e+001
      vertex  2.751884e+001 -4.322506e+001  3.282116e+001
      vertex  2.761851e+001 -3.918332e+001  3.288212e+001
    endloop
  endfacet
  facet normal -5.217660e-001  5.049081e-007  8.530887e-001
    outer loop
      vertex  2.761851e+001 -3.918332e+001  3.288212e+001
      vertex  2.751884e+001 -4.322506e+001  3.282116e+001
      vertex  2.761851e+001 -4.312539e+001  3.288212e+001
    endloop
  endfacet
  facet normal -4.202476e-001  4.066697e-007  9.074095e-001
    outer loop
      vertex  2.761851e+001 -3.918332e+001  3.288212e+001
      vertex  2.761851e+001 -4.312539e+001  3.288212e+001
      vertex  2.772143e+001 -3.928624e+001  3.292978e+001
    endloop
  endfacet
  facet normal -4.202483e-001  4.290752e-007  9.074091e-001
    outer loop
      vertex  2.772143e+001 -3.928624e+001  3.292978e+001
      vertex  2.761851e+001 -4.312539e+001  3.288212e+001
      vertex  2.772143e+001 -4.302246e+001  3.292978e+001
    endloop
  endfacet
  facet normal -2.640131e-001  2.695585e-007  9.645191e-001
    outer loop
      vertex  2.772143e+001 -3.928624e+001  3.292978e+001
      vertex  2.772143e+001 -4.302246e+001  3.292978e+001
      vertex  2.793279e+001 -4.281112e+001  3.298764e+001
    endloop
  endfacet
  facet normal  0.000000e+000  7.862571e-002  9.969041e-001
    outer loop
      vertex  2.808954e+001 -3.965436e+001  3.300000e+001
      vertex  2.988954e+001 -3.965436e+001  3.300000e+001
      vertex  2.793279e+001 -3.949760e+001  3.298764e+001
    endloop
  endfacet
  facet normal  -0.000000e+000  7.862572e-002  9.969042e-001
    outer loop
      vertex  2.793279e+001 -3.949760e+001  3.298764e+001
      vertex  2.988954e+001 -3.965436e+001  3.300000e+001
      vertex  3.004630e+001 -3.949760e+001  3.298764e+001
    endloop
  endfacet
  facet normal  0.000000e+000  2.640129e-001  9.645192e-001
    outer loop
      vertex  2.793279e+001 -3.949760e+001  3.298764e+001
      vertex  3.004630e+001 -3.949760e+001  3.298764e+001
      vertex  3.025765e+001 -3.928624e+001  3.292978e+001
    endloop
  endfacet
  facet normal  -0.000000e+000  9.992830e-001  3.786460e-002
    outer loop
      vertex  3.088954e+001 -3.865436e+001  3.200000e+001
      vertex  2.708954e+001 -3.865436e+001  3.200000e+001
      vertex  3.088667e+001 -3.865723e+001  3.207571e+001
    endloop
  endfacet
  facet normal  0.000000e+000  9.992829e-001  3.786460e-002
    outer loop
      vertex  3.088667e+001 -3.865723e+001  3.207571e+001
      vertex  2.708954e+001 -3.865436e+001  3.200000e+001
      vertex  2.709241e+001 -3.865723e+001  3.207571e+001
    endloop
  endfacet
  facet normal  -0.000000e+000  9.935730e-001  1.131938e-001
    outer loop
      vertex  3.088667e+001 -3.865723e+001  3.207571e+001
      vertex  2.709241e+001 -3.865723e+001  3.207571e+001
      vertex  3.087815e+001 -3.866575e+001  3.215054e+001
    endloop
  endfacet
  facet normal  0.000000e+000  9.935730e-001  1.131938e-001
    outer loop
      vertex  3.087815e+001 -3.866575e+001  3.215054e+001
      vertex  2.709241e+001 -3.865723e+001  3.207571e+001
      vertex  2.710094e+001 -3.866575e+001  3.215054e+001
    endloop
  endfacet
  facet normal  -0.000000e+000  9.820229e-001  1.887615e-001
    outer loop
      vertex  3.087815e+001 -3.866575e+001  3.215054e+001
      vertex  2.710094e+001 -3.866575e+001  3.215054e+001
      vertex  3.086353e+001 -3.868037e+001  3.222661e+001
    endloop
  endfacet
  facet normal  0.000000e+000  9.820229e-001  1.887615e-001
    outer loop
      vertex  3.086353e+001 -3.868037e+001  3.222661e+001
      vertex  2.710094e+001 -3.866575e+001  3.215054e+001
      vertex  2.711556e+001 -3.868037e+001  3.222661e+001
    endloop
  endfacet
  facet normal  -0.000000e+000  9.646447e-001  2.635535e-001
    outer loop
      vertex  3.086353e+001 -3.868037e+001  3.222661e+001
      vertex  2.711556e+001 -3.868037e+001  3.222661e+001
      vertex  3.084343e+001 -3.870047e+001  3.230015e+001
    endloop
  endfacet
  facet normal  0.000000e+000  9.646447e-001  2.635535e-001
    outer loop
      vertex  3.084343e+001 -3.870047e+001  3.230015e+001
      vertex  2.711556e+001 -3.868037e+001  3.222661e+001
      vertex  2.713565e+001 -3.870047e+001  3.230015e+001
    endloop
  endfacet
  facet normal  -0.000000e+000  9.296190e-001  3.685223e-001
    outer loop
      vertex  3.084343e+001 -3.870047e+001  3.230015e+001
      vertex  2.713565e+001 -3.870047e+001  3.230015e+001
      vertex  3.079000e+001 -3.875390e+001  3.243495e+001
    endloop
  endfacet
  facet normal  0.000000e+000  9.296190e-001  3.685223e-001
    outer loop
      vertex  3.079000e+001 -3.875390e+001  3.243495e+001
      vertex  2.713565e+001 -3.870047e+001  3.230015e+001
      vertex  2.718909e+001 -3.875390e+001  3.243495e+001
    endloop
  endfacet
  facet normal  -0.000000e+000  8.795972e-001  4.757192e-001
    outer loop
      vertex  3.079000e+001 -3.875390e+001  3.243495e+001
      vertex  2.718909e+001 -3.875390e+001  3.243495e+001
      vertex  3.074645e+001 -3.879745e+001  3.251547e+001
    endloop
  endfacet
  facet normal  0.000000e+000  8.795972e-001  4.757192e-001
    outer loop
      vertex  3.074645e+001 -3.879745e+001  3.251547e+001
      vertex  2.718909e+001 -3.875390e+001  3.243495e+001
      vertex  2.723263e+001 -3.879745e+001  3.251547e+001
    endloop
  endfacet
  facet normal  -0.000000e+000  8.331444e-001  5.530555e-001
    outer loop
      vertex  3.074645e+001 -3.879745e+001  3.251547e+001
      vertex  2.723263e+001 -3.879745e+001  3.251547e+001
      vertex  3.069728e+001 -3.884662e+001  3.258954e+001
    endloop
  endfacet
  facet normal  0.000000e+000  8.331444e-001  5.530555e-001
    outer loop
      vertex  3.069728e+001 -3.884662e+001  3.258954e+001
      vertex  2.723263e+001 -3.879745e+001  3.251547e+001
      vertex  2.728181e+001 -3.884662e+001  3.258954e+001
    endloop
  endfacet
  facet normal  -0.000000e+000  7.545318e-001  6.562635e-001
    outer loop
      vertex  3.069728e+001 -3.884662e+001  3.258954e+001
      vertex  2.728181e+001 -3.884662e+001  3.258954e+001
      vertex  3.058539e+001 -3.895851e+001  3.271819e+001
    endloop
  endfacet
  facet normal  0.000000e+000  7.545319e-001  6.562635e-001
    outer loop
      vertex  3.058539e+001 -3.895851e+001  3.271819e+001
      vertex  2.728181e+001 -3.884662e+001  3.258954e+001
      vertex  2.739369e+001 -3.895851e+001  3.271819e+001
    endloop
  endfacet
  facet normal  -0.000000e+000  6.353979e-001  7.721850e-001
    outer loop
      vertex  3.058539e+001 -3.895851e+001  3.271819e+001
      vertex  2.739369e+001 -3.895851e+001  3.271819e+001
      vertex  3.046025e+001 -3.908365e+001  3.282116e+001
    endloop
  endfacet
  facet normal  0.000000e+000  6.353979e-001  7.721850e-001
    outer loop
      vertex  3.046025e+001 -3.908365e+001  3.282116e+001
      vertex  2.739369e+001 -3.895851e+001  3.271819e+001
      vertex  2.751884e+001 -3.908365e+001  3.282116e+001
    endloop
  endfacet
  facet normal  -0.000000e+000  5.217656e-001  8.530889e-001
    outer loop
      vertex  3.046025e+001 -3.908365e+001  3.282116e+001
      vertex  2.751884e+001 -3.908365e+001  3.282116e+001
      vertex  3.036057e+001 -3.918332e+001  3.288212e+001
    endloop
  endfacet
  facet normal  0.000000e+000  5.217656e-001  8.530889e-001
    outer loop
      vertex  3.036057e+001 -3.918332e+001  3.288212e+001
      vertex  2.751884e+001 -3.908365e+001  3.282116e+001
      vertex  2.761851e+001 -3.918332e+001  3.288212e+001
    endloop
  endfacet
  facet normal  -0.000000e+000  4.202415e-001  9.074123e-001
    outer loop
      vertex  3.036057e+001 -3.918332e+001  3.288212e+001
      vertex  2.761851e+001 -3.918332e+001  3.288212e+001
      vertex  3.025765e+001 -3.928624e+001  3.292978e+001
    endloop
  endfacet
  facet normal  0.000000e+000  4.202415e-001  9.074123e-001
    outer loop
      vertex  3.025765e+001 -3.928624e+001  3.292978e+001
      vertex  2.761851e+001 -3.918332e+001  3.288212e+001
      vertex  2.772143e+001 -3.928624e+001  3.292978e+001
    endloop
  endfacet
  facet normal  -0.000000e+000  2.640129e-001  9.645191e-001
    outer loop
      vertex  3.025765e+001 -3.928624e+001  3.292978e+001
      vertex  2.772143e+001 -3.928624e+001  3.292978e+001
      vertex  2.793279e+001 -3.949760e+001  3.298764e+001
    endloop
  endfacet
  facet normal  0.000000e+000  0.000000e+000  9.999999e-001
    outer loop
      vertex  3.168954e+001 -4.845436e+001  2.700000e+001
      vertex  3.088954e+001 -4.365436e+001  2.700000e+001
      vertex  2.628954e+001 -4.845436e+001  2.700000e+001
    endloop
  endfacet
  facet normal  0.000000e+000  0.000000e+000  1.000000e+000
    outer loop
      vertex  2.628954e+001 -4.845436e+001  2.700000e+001
      vertex  3.088954e+001 -4.365436e+001  2.700000e+001
      vertex  2.708954e+001 -4.365436e+001  2.700000e+001
    endloop
  endfacet
  facet normal  0.000000e+000  0.000000e+000  1.000000e+000
    outer loop
      vertex  2.628954e+001 -4.845436e+001  2.700000e+001
      vertex  2.708954e+001 -4.365436e+001  2.700000e+001
      vertex  2.628954e+001 -3.385436e+001  2.700000e+001
    endloop
  endfacet
  facet normal  0.000000e+000  0.000000e+000  1.000000e+000
    outer loop
      vertex  2.628954e+001 -3.385436e+001  2.700000e+001
      vertex  2.708954e+001 -4.365436e+001  2.700000e+001
      vertex  2.708954e+001 -3.865436e+001  2.700000e+001
    endloop
  endfacet
  facet normal  0.000000e+000  -0.000000e+000  9.999999e-001
    outer loop
      vertex  2.628954e+001 -3.385436e+001  2.700000e+001
      vertex  2.708954e+001 -3.865436e+001  2.700000e+001
      vertex  3.168954e+001 -3.385436e+001  2.700000e+001
    endloop
  endfacet
  facet normal  0.000000e+000  0.000000e+000  1.000000e+000
    outer loop
      vertex  3.168954e+001 -3.385436e+001  2.700000e+001
      vertex  2.708954e+001 -3.865436e+001  2.700000e+001
      vertex  3.088954e+001 -3.865436e+001  2.700000e+001
    endloop
  endfacet
  facet normal  -0.000000e+000  0.000000e+000  1.000000e+000
    outer loop
      vertex  3.168954e+001 -3.385436e+001  2.700000e+001
      vertex  3.088954e+001 -3.865436e+001  2.700000e+001
      vertex  3.168954e+001 -4.845436e+001  2.700000e+001
    endloop
  endfacet
  facet normal  0.000000e+000  0.000000e+000  1.000000e+000
    outer loop
      vertex  3.168954e+001 -4.845436e+001  2.700000e+001
      vertex  3.088954e+001 -3.865436e+001  2.700000e+001
      vertex  3.088954e+001 -4.365436e+001  2.700000e+001
    endloop
  endfacet
  facet normal  0.000000e+000  0.000000e+000 -1.000000e+000
    outer loop
      vertex  3.018954e+001 -4.225436e+001  3.200000e+001
      vertex  2.778954e+001 -4.225436e+001  3.200000e+001
      vertex  3.018954e+001 -4.005436e+001  3.200000e+001
    endloop
  endfacet
  facet normal  -0.000000e+000  0.000000e+000 -1.000000e+000
    outer loop
      vertex  3.018954e+001 -4.005436e+001  3.200000e+001
      vertex  2.778954e+001 -4.225436e+001  3.200000e+001
      vertex  2.778954e+001 -4.005436e+001  3.200000e+001
    endloop
  endfacet
  facet normal  1.000000e+000  -0.000000e+000  0.000000e+000
    outer loop
      vertex  2.778954e+001 -4.005436e+001  3.200000e+001
      vertex  2.778954e+001 -4.225436e+001  3.200000e+001
      vertex  2.778954e+001 -4.005436e+001  2.600000e+001
    endloop
  endfacet
  facet normal  1.000000e+000  0.000000e+000  0.000000e+000
    outer loop
      vertex  2.778954e+001 -4.005436e+001  2.600000e+001
      vertex  2.778954e+001 -4.225436e+001  3.200000e+001
      vertex  2.778954e+001 -4.225436e+001  2.600000e+001
    endloop
  endfacet
  facet normal -1.000000e+000  -0.000000e+000  0.000000e+000
    outer loop
      vertex  3.018954e+001 -4.225436e+001  3.200000e+001
      vertex  3.018954e+001 -4.005436e+001  3.200000e+001
      vertex  3.018954e+001 -4.225436e+001  2.600000e+001
    endloop
  endfacet
  facet normal -1.000000e+000  0.000000e+000  0.000000e+000
    outer loop
      vertex  3.018954e+001 -4.225436e+001  2.600000e+001
      vertex  3.018954e+001 -4.005436e+001  3.200000e+001
      vertex  3.018954e+001 -4.005436e+001  2.600000e+001
    endloop
  endfacet
  facet normal  0.000000e+000  1.000000e+000  0.000000e+000
    outer loop
      vertex  2.778954e+001 -4.225436e+001  3.200000e+001
      vertex  3.018954e+001 -4.225436e+001  3.200000e+001
      vertex  2.778954e+001 -4.225436e+001  2.600000e+001
    endloop
  endfacet
  facet normal  0.000000e+000  1.000000e+000  0.000000e+000
    outer loop
      vertex  2.778954e+001 -4.225436e+001  2.600000e+001
      vertex  3.018954e+001 -4.225436e+001  3.200000e+001
      vertex  3.018954e+001 -4.225436e+001  2.600000e+001
    endloop
  endfacet
  facet normal  0.000000e+000 -1.000000e+000  0.000000e+000
    outer loop
      vertex  3.018954e+001 -4.005436e+001  3.200000e+001
      vertex  2.778954e+001 -4.005436e+001  3.200000e+001
      vertex  3.018954e+001 -4.005436e+001  2.600000e+001
    endloop
  endfacet
  facet normal  0.000000e+000 -1.000000e+000  0.000000e+000
    outer loop
      vertex  3.018954e+001 -4.005436e+001  2.600000e+001
      vertex  2.778954e+001 -4.005436e+001  3.200000e+001
      vertex  2.778954e+001 -4.005436e+001  2.600000e+001
    endloop
  endfacet
  facet normal  0.000000e+000  0.000000e+000 -1.000000e+000
    outer loop
      vertex  3.018954e+001 -4.225436e+001  2.600000e+001
      vertex  3.168954e+001 -4.845436e+001  2.600000e+001
      vertex  2.778954e+001 -4.225436e+001  2.600000e+001
    endloop
  endfacet
  facet normal  0.000000e+000  -0.000000e+000 -1.000000e+000
    outer loop
      vertex  2.778954e+001 -4.225436e+001  2.600000e+001
      vertex  3.168954e+001 -4.845436e+001  2.600000e+001
      vertex  2.628954e+001 -4.845436e+001  2.600000e+001
    endloop
  endfacet
  facet normal  0.000000e+000  0.000000e+000 -1.000000e+000
    outer loop
      vertex  2.778954e+001 -4.225436e+001  2.600000e+001
      vertex  2.628954e+001 -4.845436e+001  2.600000e+001
      vertex  2.778954e+001 -4.005436e+001  2.600000e+001
    endloop
  endfacet
  facet normal  -0.000000e+000  0.000000e+000 -1.000000e+000
    outer loop
      vertex  2.778954e+001 -4.005436e+001  2.600000e+001
      vertex  2.628954e+001 -4.845436e+001  2.600000e+001
      vertex  2.628954e+001 -3.385436e+001  2.600000e+001
    endloop
  endfacet
  facet normal  0.000000e+000  0.000000e+000 -9.999999e-001
    outer loop
      vertex  2.778954e+001 -4.005436e+001  2.600000e+001
      vertex  2.628954e+001 -3.385436e+001  2.600000e+001
      vertex  3.018954e+001 -4.005436e+001  2.600000e+001
    endloop
  endfacet
  facet normal  0.000000e+000  0.000000e+000 -1.000000e+000
    outer loop
      vertex  3.018954e+001 -4.005436e+001  2.600000e+001
      vertex  2.628954e+001 -3.385436e+001  2.600000e+001
      vertex  3.168954e+001 -3.385436e+001  2.600000e+001
    endloop
  endfacet
  facet normal  0.000000e+000  0.000000e+000 -1.000000e+000
    outer loop
      vertex  3.018954e+001 -4.005436e+001  2.600000e+001
      vertex  3.168954e+001 -3.385436e+001  2.600000e+001
      vertex  3.018954e+001 -4.225436e+001  2.600000e+001
    endloop
  endfacet
  facet normal  0.000000e+000  0.000000e+000 -1.000000e+000
    outer loop
      vertex  3.018954e+001 -4.225436e+001  2.600000e+001
      vertex  3.168954e+001 -3.385436e+001  2.600000e+001
      vertex  3.168954e+001 -4.845436e+001  2.600000e+001
    endloop
  endfacet
  facet normal  1.000000e+000  0.000000e+000  0.000000e+000
    outer loop
      vertex  3.168954e+001 -3.385436e+001  2.600000e+001
      vertex  3.168954e+001 -3.385436e+001  2.700000e+001
      vertex  3.168954e+001 -4.845436e+001  2.600000e+001
    endloop
  endfacet
  facet normal  1.000000e+000  0.000000e+000  0.000000e+000
    outer loop
      vertex  3.168954e+001 -4.845436e+001  2.600000e+001
      vertex  3.168954e+001 -3.385436e+001  2.700000e+001
      vertex  3.168954e+001 -4.845436e+001  2.700000e+001
    endloop
  endfacet
  facet normal  0.000000e+000 -1.000000e+000  -0.000000e+000
    outer loop
      vertex  3.168954e+001 -4.845436e+001  2.600000e+001
      vertex  3.168954e+001 -4.845436e+001  2.700000e+001
      vertex  2.628954e+001 -4.845436e+001  2.600000e+001
    endloop
  endfacet
  facet normal  0.000000e+000 -1.000000e+000  0.000000e+000
    outer loop
      vertex  2.628954e+001 -4.845436e+001  2.600000e+001
      vertex  3.168954e+001 -4.845436e+001  2.700000e+001
      vertex  2.628954e+001 -4.845436e+001  2.700000e+001
    endloop
  endfacet
  facet normal -1.000000e+000  0.000000e+000  0.000000e+000
    outer loop
      vertex  2.628954e+001 -4.845436e+001  2.600000e+001
      vertex  2.628954e+001 -4.845436e+001  2.700000e+001
      vertex  2.628954e+001 -3.385436e+001  2.600000e+001
    endloop
  endfacet
  facet normal -1.000000e+000  0.000000e+000  0.000000e+000
    outer loop
      vertex  2.628954e+001 -3.385436e+001  2.600000e+001
      vertex  2.628954e+001 -4.845436e+001  2.700000e+001
      vertex  2.628954e+001 -3.385436e+001  2.700000e+001
    endloop
  endfacet
  facet normal  0.000000e+000  1.000000e+000  0.000000e+000
    outer loop
      vertex  2.628954e+001 -3.385436e+001  2.600000e+001
      vertex  2.628954e+001 -3.385436e+001  2.700000e+001
      vertex  3.168954e+001 -3.385436e+001  2.600000e+001
    endloop
  endfacet
  facet normal  0.000000e+000  1.000000e+000  -0.000000e+000
    outer loop
      vertex  3.168954e+001 -3.385436e+001  2.600000e+001
      vertex  2.628954e+001 -3.385436e+001  2.700000e+001
      vertex  3.168954e+001 -3.385436e+001  2.700000e+001
    endloop
  endfacet
endsolid CATIA STL
